<svg xmlns="http://www.w3.org/2000/svg" fill="none" viewBox="0 0 256 256">
  <path fill="#DC2626" d="M0 0h256v256H0z"/>
  <path fill="#fff" d="M67.69 45.71H197.2v115.64H67.69V45.71Zm17.25 21.7c10.08 12.06 20.3 24 30.43 36.02-10.04 12.06-20.33 23.96-30.39 36.02 23 .08 45.97 0 68.96.04 10.35-11.95 20.31-24.16 30.73-36.07h-.2c-10.14-12.01-20.34-24-30.47-36.01-23.03 0-46.04-.03-69.06 0Z"/>
  <path fill="#EF4444" d="M84.94 67.42c23.02-.04 46.03 0 69.05-.01 10.14 12.01 20.33 24 30.48 36.01-23.03.05-46.07.02-69.1.01C105.24 91.42 95 79.47 84.94 67.42Z"/>
  <path fill="#7F1D1D" d="M115.37 103.43c23.04.01 46.07.03 69.1 0l.2-.01c-10.41 11.9-20.38 24.12-30.73 36.07-22.99-.04-45.97.04-68.95-.04 10.05-12.06 20.34-23.96 30.38-36.02Z"/>
  <path fill="#fff" d="M48.2 191.5a11.2 11.2 0 0 1 8.07-4.31 11 11 0 0 1 8.18 2.85c-1 1.04-2 2.08-3.02 3.11a6.81 6.81 0 0 0-6.2-1.36 6.94 6.94 0 0 0-4.81 5.2 7.43 7.43 0 0 0 2.42 7.41 6.75 6.75 0 0 0 8.6-.13c1.01 1.04 2.04 2.06 3.02 3.13a11.1 11.1 0 0 1-16-1.13 11.62 11.62 0 0 1-2.69-6.4 11.7 11.7 0 0 1 2.43-8.38Zm20.23-3.7h4.31v21.86h-4.3V187.8Zm9.47-.05h4.2c2.5 4.62 4.93 9.3 7.45 13.9 2.45-4.64 4.93-9.26 7.38-13.9h4.23c0 7.29.02 14.58 0 21.87-1.44-.03-2.88 0-4.31-.02v-12.94c-2.47 4.36-4.83 8.8-7.35 13.13-2.4-4.39-4.87-8.74-7.28-13.12v12.94h-4.31v-21.86Zm28.18.05h8.73a7.3 7.3 0 0 1 3.88 1.08c2.78 1.75 3.42 6.3 1.1 8.71-.3.33-.65.6-1 .86a5.08 5.08 0 0 1 2.58 3.6c.36 2.06-.1 4.44-1.66 5.9-1.24 1.23-3 1.67-4.68 1.7-2.98.03-5.97 0-8.96.01V187.8Zm4.3 4v4.75h3.82c.74-.01 1.54-.17 2.08-.73.77-.85.8-2.27.1-3.18-.52-.65-1.39-.85-2.17-.85h-3.82Zm0 8.75v5.07h4.22c.65.02 1.34-.17 1.84-.64.98-.97 1-2.79 0-3.76-.55-.52-1.32-.66-2.04-.67h-4.01Zm19.94-12.8c.72.01 1.44-.03 2.17.01.32.27.5.68.77 1.01 3.95 5.57 7.87 11.17 11.85 16.72v-17.74h2.23v21.8l-2.26.01-12.52-17.77v17.77c-.75 0-1.5.01-2.25-.02.04-7.26 0-14.53.01-21.79Zm22.58 0h2.22v21.8h-2.23v-21.8Zm5.66 21.95c2.57-7.27 5.15-14.54 7.74-21.8h3.1l7.36 21.66h-2.63c-.65-1.94-1.32-3.86-1.99-5.79h-8.74c-.65 1.98-1.27 3.97-1.93 5.94h-2.91Zm5.74-8.54h6.95l-3.45-10.5c-1.16 3.5-2.35 7-3.5 10.5Zm17.41-9.69a10.73 10.73 0 0 1 6.66-3.46c3.13-.32 6.25.88 8.79 2.72-.5.66-1.02 1.3-1.5 1.96-.85-1.23-2.34-1.7-3.7-2.07-2.34-.67-5-.3-6.97 1.2a9.89 9.89 0 0 0-3.46 5.74c-.27 2.32-.04 4.85 1.3 6.81.45.75 1.18 1.22 1.8 1.8a7.28 7.28 0 0 0 4.76 1.6c2.09.02 4.15-.53 6.06-1.37v-6.72h-4.96v-2.04c2.34-.02 4.69 0 7.04-.01v10.39c-2.24 1.29-4.8 1.83-7.34 2.1-2.67.05-5.47-.66-7.55-2.46a11.08 11.08 0 0 1-3.57-7.02c-.27-3.24.53-6.69 2.64-9.17Zm19.39 18.21c2.6-7.25 5.16-14.51 7.73-21.77l3.1-.01c2.37 6.89 4.69 13.8 7.05 20.7.1.3.17.62.2.96h-2.49l-1.99-5.78h-8.77c-.63 1.98-1.28 3.95-1.9 5.93-.98 0-1.95.03-2.92-.03Zm9.24-19c-1.15 3.5-2.35 6.98-3.5 10.49h6.94c-1.12-3.51-2.29-7-3.44-10.5Z"/>
</svg>
