<svg xmlns="http://www.w3.org/2000/svg" fill="none" viewBox="0 0 256 256">
  <path fill="#1A3783" d="M0 0h256v256H0z"/>
  <path fill="#FFB700" d="M203.6 99.3a17 17 0 0 1 1.7 1.73l.2.23c.72.83 1.43 1.67 2.14 2.52a90.61 90.61 0 0 1 1.31 1.56 8.34 8.34 0 0 0 5.31 3.16l.35.06c2.53.31 4.8-.68 6.99-1.8l.53-.26c1.75-.9 3.47-1.86 5.15-2.88 2.55-1.52 5.61-3.24 8.7-2.59 2.34.62 3.84 2.5 5.28 4.26l.41.48a67.7 67.7 0 0 1 2.4 2.97l.23.3.22.3.19.25c.15.25.24.51.29.79l-.31.16c-2.5 1.33-2.5 1.33-4.95 2.72-.75.44-1.52.87-2.28 1.29-1.18.65-2.35 1.3-3.52 1.97a480.36 480.36 0 0 1-6.3 3.5c-2.14 1.19-4.06 1.92-6.55 1.33-1.47-.43-2.43-1.26-3.5-2.28l-.3-.27c-.78-.7-1.4-1.51-2.03-2.33-.8-1-1.63-1.96-2.52-2.88l-.28-.3c-1.92-1.92-4.37-2.88-7.06-3.31l-.48-.08c-4.78-.52-9.5 1.76-13.45 4.06a92 92 0 0 1-3.23 1.8 103.7 103.7 0 0 0-3.48 1.95c-.74.43-1.49.85-2.25 1.26-.63.34-1.27.7-1.9 1.06l-.27.15-1.07.61c-2.4 1.4-4.57 2.3-7.42 1.82-1.7-.52-2.73-1.96-3.76-3.28l-1.15-1.38-.23-.28a47.19 47.19 0 0 0-1.86-2.1c-2.12-2.42-4.9-4.17-8.19-4.52-5.63-.3-10.29 1.72-15.04 4.45l-2.57 1.43a403.56 403.56 0 0 0-6.46 3.6l-.47.27-.94.52c-.75.41-1.5.85-2.22 1.32a9.34 9.34 0 0 1-6.88.91c-2.9-.86-4.8-2.77-6.64-5.03l-1.24-1.49-.45-.53-.22-.26-.42-.47c-.48-.51-.48-.51-.47-.84.19-.4.45-.5.84-.7l.46-.24.25-.12 1.28-.67.26-.14c.86-.45 1.71-.92 2.55-1.4l.83-.47.38-.22 1.31-.73a288 288 0 0 0 2.67-1.48l.42-.24a79.71 79.71 0 0 1 3.7-2.08c1.89-.97 3.75-1.98 5.58-3.03 1.12-.64 2.26-1.27 3.4-1.89l.47-.26.47-.26 1.33-.76c.64-.36 1.3-.67 2-.92l.32-.12c3.79-1.35 7.87-1.62 11.62-.02a11.5 11.5 0 0 1 4.09 3.57c.39.5.8.97 1.21 1.45a86.12 86.12 0 0 1 1.54 1.82l.22.27c.15.2.15.2.15.47h.27l.42.48a7.3 7.3 0 0 0 4.43 2.34l.34.05c2.56.32 4.73-.54 6.9-1.79l1.18-.67c.8-.46 1.62-.9 2.44-1.33 1.37-.74 2.71-1.5 4.06-2.28a129.5 129.5 0 0 1 3.87-2.12c.8-.43 1.6-.88 2.4-1.34 1.9-1.11 3.8-2.1 5.95-2.7l.47-.14c3.7-.88 7.89-.3 10.89 2.04Z"/>
  <path fill="#fff" d="M49.02 132.03a8.1 8.1 0 0 1 2.27 2.96c.4-.38.78-.76 1.14-1.18 1.63-1.79 3.9-3.21 6.43-3.4 1.85-.04 3.47-.06 5.17.7l.35.15a7.8 7.8 0 0 1 3.39 3.33l.2.32c1.72 3.08 1.48 6.8 1.47 10.18v12.24H62.5v-1.47a1942.9 1942.9 0 0 0-.05-7.74l-.01-2.54-.01-1.35c.06-3.98.06-3.98-1.87-7.37-1.2-.8-2.3-.9-3.74-.8-1.3.25-2.21.92-3.02 1.91-.92 1.35-1.06 2.91-1.05 4.5v.49l-.02 1.31v1.38l-.02 2.6-.01 2.98c-.02 2.03-.02 4.07-.03 6.1h-6.79v-1.42l-.04-4.65a913.48 913.48 0 0 1-.04-6.58c.12-4.15.12-4.15-1.73-7.74-1.1-.89-2.34-.98-3.73-.88a5.14 5.14 0 0 0-3.16 2.07c-1.05 1.59-1.15 3.29-1.16 5.12v.47l-.02 2.55-.09 11.06h-6.78L29 130.98h5.95c.11.42.18.85.22 1.29l.03.43.04.45.04.46.09 1.11.2-.28a9.59 9.59 0 0 1 6-3.95c2.72-.3 5.18-.06 7.45 1.54Zm98.64-11.62h3.46l1.09-.01h2.1c.28.01.28.01.41.14.02.2.02.4.02.6v.81l.03 8.8.04 11.2.05 15.37h-6.23a7.2 7.2 0 0 1-.21-1.32l-.04-.45-.03-.47-.04-.48-.1-1.16-.16.24c-1.52 2.25-3.67 3.5-6.37 4.1-.54.1-1.08.18-1.63.21l-.29.02a10.87 10.87 0 0 1-8.02-3.1l-.37-.32a12.97 12.97 0 0 1-3.23-5.96l-.07-.27c-.97-3.97-.51-8.6 1.6-12.17a12.58 12.58 0 0 1 4.56-4.42l.34-.19a12.43 12.43 0 0 1 8.88-.78 8.52 8.52 0 0 1 4.07 2.71l.14-13.11Zm-10.7 17.13c-1.9 2.23-2.37 5.2-2.13 8 .24 1.98.88 4.16 2.5 5.52a7.12 7.12 0 0 0 5.07 1.45 6.43 6.43 0 0 0 4.15-2.54c1.12-1.73 1.18-3.55 1.17-5.54v-1.2c0-1.95-.08-3.66-1.3-5.3l-.21-.28a5.96 5.96 0 0 0-3.4-1.99c-2.27-.22-4.22.25-5.84 1.88Zm-17.82-6.43.33.13c.76.33 1.4.83 2.02 1.34l.26.21c2.07 1.84 2.95 4.81 3.09 7.45.03 1.11.02 2.23.02 3.35v1.45l-.01 2.75-.01 3.12-.03 6.42h-6.92v-1.4l-.04-4.62a868.06 868.06 0 0 1-.04-6.53c.07-4.07.07-4.07-1.72-7.65a4.62 4.62 0 0 0-3.23-1.13 5.53 5.53 0 0 0-3.97 1.53 6.04 6.04 0 0 0-1.6 4.4v1.87l-.01 1.43-.01 2.7-.02 3.08-.02 6.32h-7.06l-.07-11.36-.02-4.17v-.34c-.03-3.5-.08-6.99-.19-10.48l3.48-.01h2.37c.25 0 .25 0 .38.14l.08.75.07.93.04.49.09 1.18h.28c.17-.2.17-.2.34-.46 2.66-3.52 8.07-4.57 12.12-2.89Zm-27.29 1.39c2.35 1.92 3.35 4.53 3.61 7.44l.03 1.29.04 6.05c.02 3.36.08 6.7.35 10.05H89.5l-.42-2.67-1.3 1.08a10.55 10.55 0 0 1-6.31 2.26l-.32.02c-2.6.1-4.8-.84-6.7-2.5-.18-.2-.18-.2-.18-.46H74c-1.46-2.32-2.12-4.7-1.44-7.4.67-2.4 2.28-4.1 4.43-5.4 3.5-1.89 7.62-2.23 11.55-2.19-.3-2.06-.3-2.06-1.53-3.72-1.86-1.3-4.25-1.21-6.43-.89-1.72.31-3.36.9-4.92 1.67-.38-.92-.65-1.85-.92-2.8l-.14-.48-.32-1.13c4.56-3.2 13-3.46 17.57-.22Zm-11.48 14a4.18 4.18 0 0 0-1.15 2.81c.1 1.15.32 2.07 1.15 2.94 1.21.85 2.42.9 3.88.8a5.73 5.73 0 0 0 3.71-2.41c.58-.93.73-1.8.73-2.87v-1.8l-.01-1.48c-2.88-.03-6.03.1-8.31 2Zm90.55-15.52h6.1c.08.59.15 1.12.17 1.71l.02.42.03.87.01.42.02.38c.02.31.07.58.16.88l.14-.3a7.32 7.32 0 0 1 4.08-3.9c1.7-.52 3.04-.48 4.92-.48v5.88l-1.56-.03c-1.88-.01-3.37.25-4.81 1.5-2.13 2.26-1.98 5.23-2 8.1v.94l-.02 2.47-.03 2.98-.03 4.51h-6.92l-.07-12.15-.03-5.14a273.8 273.8 0 0 0-.18-9.06Zm18.7 0h7.06v26.35h-7.06v-26.35Zm-30.19 0h7.06v26.35h-7.06v-26.35Z"/>
</svg>
