<svg xmlns="http://www.w3.org/2000/svg" fill="none" viewBox="0 0 280 201" class="pointer-events-none w-[87.5%]">
  <path fill="currentColor" d="M43.6 100.5c27.4 0 10.4 53.4-8.9 68.9-6.3 5 11.7 12.7 14.7 13.7 6 2 .7 5.9-2 5.9-10.7 0-19.5-7.3-28.6-14.2-.7-.5-1.7.5-2 1.9-1.5 5.1.8 17.7-1 21.6-.6 1.6-2.5 2.1-4.4 1.4a15 15 0 0 1-4.7-3.4c-9.3-10.2-6.7-69.9-5-82.3.4-3.4 1-4.2 2.9-4.2 1.4 0 3.7.8 5 2 1.3 1.2 2 2.4 2.4 4.1.5 2 .5 10.2.1 21.8-.4 14-.3 18.9.8 19.1.6.1 7.8-56.3 30.7-56.3Zm-20.7 63.3c6.8 0 36.3-57.8 22.2-57.8-14 0-20.9 37.7-24 51.1-.5 2.1-1.8 6.7 1.8 6.7Z"/>
  <path fill="currentColor" d="M92.4 157.5c6.1 3.6-7.2 31.5-21.3 29.3-7.5-1-11.4-6.5-13.7-11.8-2.6-5.8-1.3-16.4.5-22.2 2.3-7 5.8-11 10-11.3 3-.2 6.5 1.8 8.5 4.9 4 6.1 4.6 7.2 5 10.4.4 2.2.4 3.2 0 5.2-.9 3.8-3.6 7.4-7 9a8 8 0 0 1-4.8.4c-2.5-.8-3.3.6-2.3 4.5.8 3 1.9 4.4 3.8 4.4 8.4 0 17.5-24.9 21.3-22.8Zm-20.2-4c-1.4 1.6-4.5 9-4.5 10.9 0 1.8 1 2.2 2.5 1a15 15 0 0 0 4.5-7.1c1.5-4.8 0-7.6-2.5-4.8Z"/>
  <path fill="currentColor" d="M131.5 160.4c.4 1.2.2 4-.4 7-1.1 5-3.6 9.6-5.9 10.8-11.7 6.3-14.7-9.7-16.8-9.7-2 0-3.2 15-11.6 15-12 0-7.2-33.4-.6-38.6 5.4-4.3 11.7-1 15.9 3.2 2.6 2.6 3.3 4.6 4.8 12.2 1.6 8.8 3.1 12.5 5 12.5s3.7-3.7 4.9-10c.8-3.7 1.3-4.6 2.7-4.6.7 0 1.7 1 2 2.2Zm-23.4-5c.6-2 0-3.3-1.6-3.3-1.4 0-2.8 2-4.3 6.2-1.4 4.2-2.3 9-1.8 9.8.3.5.9.2 1.6-.5.8-.9 5.7-10.4 6.1-12.1Z"/>
  <path fill="currentColor" d="M139.2 186.1c-2.4-.5-5.5-2.5-7.4-4.5a21.1 21.1 0 0 1-5.6-12.7 41.4 41.4 0 0 1 6.5-24c1.3-2 2.8-3.3 4.4-4.1 1-.6 1.5-.7 3-.7 1.3.1 1.7.2 3.1 1 3.3 1.4 7 5.9 7 8.3 0 1.3-.6 1.7-2.6 1.7-.9 0-1.8.1-2 .3-2.4 1.2-5.9 7.2-7.8 13.4-2.2 6.8-2.3 14.4.3 15.3 7.4 2.7 15.4-12 17.6-15.3 2.8-4 3.7-6.5 6.8-6.5 1.7 0 .8 4.4-2.3 9.9-4.2 7.8-11 16.7-15.5 18-1.5.4-3.8.4-5.5 0Z"/>
  <path fill="currentColor" d="M169.4 196.5c-3.4-.9-5.2-2.5-6.8-6a59.2 59.2 0 0 1-4.3-20.1c-.1-1.7-.3-6.6-.3-13.6v-15.6c0-2.2-2.8-1.2-4.8-.8-1.9.3-3 .3-3.8-.3-1.8-1.1-1.7-2.8.5-5 1-1 2-1.5 4.7-2.1 3-.7 3.5-1 4.2-1.8.6-.9.8-1.6 1.4-4.5 1.2-6 3.2-12.7 4.4-14.3 1.3-1.5 3-2 5-1.3 2.3.7 4.3 2 5 3.5.6 1.2.1 5-.6 9.6-.7 3.6-.7 4-.4 4.8.4 1.5 2.5.4 13.5-1.2 5.2-.8 9.2 5.4-2.4 6.7-11.5 1.3-12.4 3-13 5.7a211.6 211.6 0 0 0-.5 40.3c.5 3.3 1 4.7 1.8 5 1.5.2 2.4-1.7 7-14.9a64 64 0 0 1 4-9.8c1.6-3.2 3.4-5.3 4.1-4.8 1.3.7.7 5.5-1.4 13.4l-2.3 8.8c-3.2 12.5-5 16.4-8.2 18-1.6.7-4.5.9-6.8.3Z"/>
  <path fill="currentColor" d="M205.6 158.8c2-1.3 2.8 1.4 2 6.7-2.1 12.3-3.7 16.4-6.5 18-1.1.5-4.6.7-6.3.2a12 12 0 0 1-6.7-5 29.9 29.9 0 0 1-3.8-11.4c-.4-3-.7-16.7-.3-20.5.3-3.8.6-4.7 1.5-5.7l.8-.9h1.7c1.5 0 1.8.1 3.2.8 2.1 1 3.5 2.4 4 4 .3 1 .3 1.8.2 5.4l-.3 8.7c-.2 6.2.4 12.6 1.4 14.5 1.4 2.6 3 .4 5.6-7.5 1.5-4.7 2.5-6.6 3.5-7.3Zm-16-30.3c-1.4-1.3-3-5.3-3.2-8.2-.1-2.2.6-6.3 1.3-7.9.9-1.6 1.5-2 3.2-2a4 4 0 0 1 2.6.6c1.3.7 4 3.6 4.8 5 .9 1.9.3 5.5-1.4 9-1.3 2.5-3.5 4-5.6 4-.8 0-1 0-1.7-.5Z"/>
  <path fill="currentColor" d="M236.8 163.1c4.2-.4 4.8-.4 4.9.4 0 .5-.2.8-1 1.7-1.4 1.4-3 2.2-6 2.8-1.3.3-2.7.7-3 .9-.9.5-1.3 1.5-2 4.4a35 35 0 0 1-2.7 8.3c-2.2 4-5.6 5.6-9.3 4.7v-.1c-8.8-2.2-13.3-10.2-13.3-18.4 0-4.2.2-6.5 1-9.1.9-2.3.9-2.8.5-5.9-.7-6.1 3.5-12.5 7.4-13.7 11.3-3.8 17.4 12.3 18 19.6.6 4.8.4 5 5.5 4.4Zm-14.5 7.4c.3-1 .3-1.4.1-2-.3-.9-1.4-1.8-2.8-2.2-1.4-.4-2-.2-2.6.6-1 1.6-.4 8.8.8 9.5.5.4 1.1.2 1.8-.3s2.3-3.8 2.7-5.6Zm1.4-8c6.3-5.6-7.7-26.6-8-10.6-.1 3.6 1 6.6 3 8.8 1.8 1.9 3.9 2.7 5 1.8Z"/>
  <path fill="currentColor" d="M244.6 183.3c-3.2-1-4.3-3.3-5.5-12.1-.9-6-1-8.1-1-16.6 0-6.6 0-9 .3-11.3.7-5.3 1.1-6 3.5-6.2 1.1 0 1.5 0 2.7.6 1.7.8 2.5 1.4 3.3 2.8l.5 1.1v8.5c0 8.8 0 10.5.8 11.2.4.5.4.5 1 0 .4-.2 1.2-1.7 2.4-3.9 2.2-4.2 2.9-5.3 4.1-6 .9-.5 1.1-.6 2.5-.5 1.9.2 3.2.7 4.5 2.1 1.3 1.2 2 2.7 3.7 7.3 2.2 6.1 3.3 8 4.5 8 .7 0 1.5-1.2 2.6-3.6a18 18 0 0 1 3.6-6c1.3-.8 1.9.5 1.9 4.1 0 2.2 0 2.9-.6 4.7-1.7 6-3.7 8-7.9 7.7-1.4 0-2-.2-3.2-.8-2.6-1.2-4.2-3.4-6.2-9l-1.4-3.8c-.6-1.7-1.7-2.3-2.6-1.4-1 1.1-2.2 5-3.6 11.6-2 9-2.2 9.7-3.5 10.8-1.4 1.2-4 1.5-6.4.7ZM91 93.2a14 14 0 0 1-4.7-3 20.8 20.8 0 0 1-5.4-12.4c-.6-3.2-.9-4-1.8-4-2.5 0-10 29.2-28.1 11.8-3.9-3.6-6-8-7.3-14.4-.6-3.2-.7-10.6-.3-14.5A92.6 92.6 0 0 1 64 9.4c2.2-2.3 6-5.7 8.1-7A13 13 0 0 1 81.2.2c3.5.7 8 3.6 8 5.1 0 .9-.6 1.2-2.5 1.4-1 .2-2 .4-2.6.7-2 1-6 4.8-10 9.9A96.8 96.8 0 0 0 55 56.9a45 45 0 0 0 .1 24.3c1.1 2.9 2.2 3.6 5.2 3.6 7.5 0 21.6-30.5 25.6-39.4l1.4-2.8c1.3-1.6 3.7-1.4 6.1.4 2.7 2 2.8 4.2 1.4 16a86 86 0 0 0-.6 29.5l.6 3.3c0 1.6-1.7 2.2-3.9 1.4ZM121.5 51c2-1.4 2.8 1.3 2 6.5-2 12.3-3.6 16.5-6.5 18-1 .6-4.5.7-6.2.3a12 12 0 0 1-6.7-5 29.9 29.9 0 0 1-3.8-11.4c-.5-3-.7-16.7-.3-20.6.3-3.8.5-4.6 1.5-5.7l.8-.8h1.6a5 5 0 0 1 3.3.8c2.1 1 3.4 2.4 4 4 .2 1 .3 1.8.1 5.4l-.2 8.6c-.2 6.3.4 12.7 1.4 14.6 1.3 2.6 3 .3 5.6-7.5 1.5-4.7 2.4-6.6 3.4-7.3Zm-16-30.5a15.5 15.5 0 0 1-3.1-8.1c-.2-2.2.5-6.4 1.3-8 .9-1.6 1.5-2 3.2-2a4 4 0 0 1 2.6.7c1.3.7 4 3.6 4.7 5 1 1.8.4 5.4-1.3 9-1.3 2.4-3.5 4-5.6 4-.8 0-1 0-1.7-.6Z"/>
  <path fill="currentColor" d="M152.8 52.8c3.7-.1 4.2 0 3.3.8-.8.7-3.3 1.7-6.4 2.6-3 .9-4.1 1.3-4.4 1.9-.4.8-.2 1.8 1 4.2a49 49 0 0 1 5.3 30.4c-1.1 5.7-3.2 9.1-6.3 10-1.1.3-4.2.2-5.8-.2-6.7-1.6-11.4-7-14.8-16.9a86.2 86.2 0 0 1-4.3-21.7c-.4-4.4-.7-17.4-.3-21.9.7-10 2.5-19.1 4.3-21.7.9-1.3 1.5-1.6 3.1-1.6 1.2 0 1.7.1 2.9.8 2 1.1 3 1.9 3.6 3.1.7 1.5.7 3.3 0 9.1-1.4 11.9-1.7 15.5-1.1 16.6.5.8 1.3 1.5 4 3a8.6 8.6 0 0 0 3.5 1.7c.9.2 4.6 0 12.4-.2Zm-12 39.2c1.5-2 2.8-9 2.5-14.5-.3-7.4-3-16-5.7-18.4-1.5-1.3-4.2-1.3-5 0-.7 1.3-.5 8 .5 14.6 1 5.6 2.6 12 4 15.8 1.2 3 2.5 3.8 3.6 2.5Z"/>
  <path fill="currentColor" d="M163.9 88.5c-3.4-.8-5.2-2.5-6.8-6a59.2 59.2 0 0 1-4.3-20c-.1-1.7-.3-6.6-.3-13.6V33.2c0-2.2-2.8-1.1-4.8-.8-1.9.4-3 .4-3.8-.2-1.8-1.2-1.7-2.8.5-5 1-1 2-1.5 4.7-2.2 3-.7 3.5-.9 4.2-1.7.6-.9.8-1.6 1.4-4.6 1.1-6 3.2-12.7 4.4-14.2 1.3-1.5 3-2 5-1.3 2.3.7 4.3 2 5 3.5.6 1.1.1 4.9-.6 9.5-.7 3.6-.7 4-.4 4.9.4 1.5 2.5.4 13.5-1.3 5.1-.8 9.2 5.5-2.4 6.8-11.5 1.3-12.5 3-13 5.7a211.9 211.9 0 0 0-.5 40.3c.5 3.2 1 4.6 1.8 4.9 1.5.3 2.4-1.7 7-14.8a64 64 0 0 1 4-9.8c1.6-3.2 3.4-5.3 4.1-4.9 1.3.8.7 5.6-1.4 13.5l-2.3 8.8c-3.2 12.5-5 16.4-8.2 18a11 11 0 0 1-6.8.2Zm62.5 18.5a18.4 18.4 0 0 1-14.1-7.3 12 12 0 0 1-2.6-7.4c0-1.4.2-2.9.6-4.3l.1-.7a42 42 0 0 1 3.8-10.6c1.8-3.3 4.2-6.1 7.2-8.6l.5-.6c-3.2-.4-6-1.3-8.6-2.5a16.7 16.7 0 0 1-6.2-4.8 11 11 0 0 1-2.3-7c0-2.6.6-5.2 1.7-7.9 1.2-2.7 2.5-5.2 3.8-7.4a22.4 22.4 0 0 1 20-12c4.5 0 8.4 1 11.8 3.1 3.4 2 5.7 5.1 7 9.3l.2 2.3v1c0 1-.2 1.7-.4 2.2-.3.5-1 .7-2.1.8-1.3 0-2.4-.4-3.4-1.2-1-.8-1.7-1.8-2-3-.7-2.8-2-4.3-4.2-4.3a11 11 0 0 0-6.5 2.7 36.3 36.3 0 0 0-6.2 6 16.3 16.3 0 0 0-4.1 10.6c0 .9.2 1.5.6 1.8a5 5 0 0 0 2.3.6 638.5 638.5 0 0 1 10.6 1.3c2 .3 3.5 1 4.9 2.2 1.4 1.2 2.1 2.4 2.1 3.7 0 1.1-.6 2-1.7 3l-2.2 1.6a30 30 0 0 0-12.7 18.1 11.4 11.4 0 0 0 2.3 10.3c.3.5.8.8 1.3.8.2 0 .5 0 .9-.2 1-.5 2-.7 3.2-.7 1.3 0 2.5.3 3.6.9 1.2.6 1.7 1.4 1.7 2.3 0 1.5-1.2 3-3.7 4.2a16.3 16.3 0 0 1-7.2 1.8Zm2 13h-.1c-1.2 0-2-.3-2.4-.8a4 4 0 0 1-1-2.3c-.1-1.4-.3-2.9-.6-4.3 0-1.2.4-2.2 1.3-3 .8-.8 2-1.2 3.7-1.2 1.4 0 2.4.3 3 .8.8.4 1.1 1.2 1.1 2.3a31.5 31.5 0 0 1-.5 4.5c-.2 2.7-1.7 4-4.4 4Zm4.4-96.8c-1.5 0-2.8-.6-4-1.7a7 7 0 0 1-2-4l-.1-2.2c0-1.6.2-3 .6-4.5.5-1.4 1.5-2.1 3-2.1 1.7.1 3 .6 4.3 1.6 1.4 1 2 2.1 2 3.5 0 .4 0 .8-.2 1.2l-.4 1.3a22 22 0 0 0-.7 2.6c-.2.8-.3 1.7-.3 2.6 0 .6-.2 1-.7 1.3a3 3 0 0 1-1.5.4Z"/>
</svg>
