<svg xmlns="http://www.w3.org/2000/svg" fill="none" viewBox="0 0 234 194" class="pointer-events-none">
  <path fill="#fff" d="M62.5 91c-4.4-1-7.3-5.4-8.5-12.7-.8-4.2-1-6-1-11.7.2-9.7 1-18 3.1-30.7 1-5.3 1.2-8.6.7-8.6-1 0-2.3 3-7.6 16.7A89.2 89.2 0 0 1 41 61.7c-2.8 4.2-6.1 5.7-10.7 4.6-6-1.2-9.9-6.4-11.7-15.4a94.3 94.3 0 0 1 1-35c1.7-8.8 3-12.6 4.3-13.4 2-1.2 6.4.6 8 3.3.4.8.5 1.4.6 2.6.1 1.6 0 2.5-1.1 9.5-1 5.7-1.7 10.7-2 15a86 86 0 0 0 0 17.6c.8 7 1.9 9.4 3.6 8.8 2.5-1 6.8-8.5 13.7-24.2A397 397 0 0 1 61.5 4.2c1.7-2.7 2.6-3.7 3.7-4 2.2-.7 4.8 1.1 5.7 4 .4 1.4.5 4.9.2 8.1l-1.3 10.3c-4 28.3-5.4 47.3-4.3 57.7.3 2.5.6 3.6 1.5 4.9 1 1.3 1.3 2 1.1 3.2a3 3 0 0 1-1.3 2.3c-.5.4-.9.4-2.1.4-.8.1-1.8 0-2.2-.1Zm39.7-40.2c3.8-.4 4.3-.4 4.4.4 0 .4-.1.7-.8 1.5-1.3 1.3-2.8 2-5.6 2.6a23 23 0 0 0-2.8.8c-.7.5-1.2 1.4-1.7 4-.8 3-1.8 6.2-2.6 7.7-2 3.6-5.1 5.1-8.5 4.3-8.1-2.1-12.3-9.5-12.3-17 0-3.9.2-6 1-8.4.7-2.1.7-2.6.4-5.4-.6-5.6 3.2-11.5 6.8-12.6 10.4-3.5 16 11.3 16.7 18 .5 4.5.2 4.7 5 4.1Zm-13.4 6.8c.3-.9.3-1.3.1-1.8-.3-.8-1.3-1.7-2.6-2-1.2-.4-1.9-.3-2.4.5-1 1.4-.3 8 .8 8.8.4.2 1 0 1.6-.3.6-.5 2.1-3.5 2.5-5.2Zm1.3-7.4c5.8-5.1-7.1-24.5-7.4-9.7 0 3.3 1 6 2.9 8 1.5 1.8 3.5 2.6 4.5 1.7Z"/>
  <path fill="#fff" d="M131.7 47.4c6.2-2 11-.3 2.4 4.9l-3.1 2.2c-.5.5-.6.7-.5 1.6 0 .5.3 1.8.6 2.7 1.2 3.5.8 8.1-.7 11.4a25.7 25.7 0 0 1-17 12.4c-4.9.9-12-1-13.2-6.5-1.5-6.7 3.2-13.5 8.4-17 7.4-5 4-3.4-.8-7-3-2.5-4.4-5.6-4.2-9.8.1-2.3.7-4 1.8-5.6 2.1-2.8 8.2-5.5 12.6-5.5 1.8 0 2.8.5 3.6 1.5 1.4 1.8 1.4 5.3 0 6.3-.3.1-1.3.5-2.2.6-2.3.5-5.7 1.8-6.5 2.6-1 .9-1 1.5-.4 2.3.7 1 10.3 5 11.8 5.2.8 0 1.3.2 3.6-1l3.8-1.3ZM123 67c2.9-2.6 3.5-4.1 2.3-5.6a5.4 5.4 0 0 0-3.4-1.6c-1.2 0-2.1.4-5 2.3-4.6 3-8.2 6.3-9.8 8.6-1 1.6-1 3 .3 3.4.5.2 3.2 0 4.4-.4 3.3-1.2 8.2-4 11.2-6.7Z"/>
  <path fill="#fff" d="M164.4 47.4c6.2-2 11-.3 2.4 4.9a22 22 0 0 0-3.1 2.2c-.5.5-.6.7-.5 1.6 0 .5.2 1.8.6 2.7 1.1 3.5.7 8.1-.8 11.4a25.7 25.7 0 0 1-17 12.4c-4.8.9-12-1-13.1-6.5-1.5-6.7 3.2-13.5 8.3-17 7.5-5 4-3.4-.7-7-3-2.5-4.4-5.6-4.2-9.8 0-2.3.6-4 1.7-5.6 2.2-2.8 8.3-5.5 12.6-5.5 1.8 0 2.8.5 3.7 1.5 1.4 1.8 1.4 5.3 0 6.3-.3.1-1.3.5-2.2.6a21 21 0 0 0-6.6 2.6c-1 .9-1 1.5-.4 2.3.8 1 10.4 5 11.8 5.2.8 0 1.4.2 3.7-1l3.8-1.3ZM155.6 67c2.8-2.6 3.5-4.1 2.3-5.6a5.4 5.4 0 0 0-3.4-1.6c-1.2 0-2.2.4-5 2.3-4.6 3-8.3 6.3-9.8 8.6-1.1 1.6-1 3 .3 3.4.5.2 3.2 0 4.3-.4 3.4-1.2 8.3-4 11.3-6.7Z"/>
  <path fill="#fff" d="M223.9 39c.5 4.8-10.2 10.3-11.2 12.4-.5 1-.5 1.5.2 6.7 1.6 14.6-2.3 49.6-23.7 44.2-1.2-.3-3-1.2-3.8-1.8-2.3-1.8-3.4-5.6-3-10.4a70 70 0 0 1 15.8-33.4c2.7-3.3 3-3.8 2.8-6.1-.2-3-1.5-8.8-2.8-12.6-1.3-4.2-3.1-4.2-5.6 0a62.5 62.5 0 0 0-5.3 13.2l-1.7 5.7c-1 3.4-2.2 6-3.2 6.9-1.5 1.2-3.6 1.4-6 .5-3.2-1.1-4.9-2.8-6-6.3a48.4 48.4 0 0 1-1.9-17c.5-6.3 1.3-9.3 2.9-10.1a4 4 0 0 1 1.7-.3 7 7 0 0 1 5.4 3.2c.3.8.3 1.3.2 6.7-.1 6.3 0 7.2.7 7.7.7.4 1.3-.6 3.5-5 3-6.7 4.5-9.9 7-11.8 14.2-11.3 21 13 21.3 13.2 2.7 1 12.3-8.3 12.7-5.6Zm-25 47c1.7-5.2 3-13 3-18.5 0-2.5-.4-3.4-1.2-3.4-.8 0-1.6 1-3.2 3.7a63 63 0 0 0-6.6 17.8 24 24 0 0 0-.1 9.3c.6 1.3 1.6 1.4 2.8.5 1.6-1.2 4-5.5 5.3-9.3Zm-79 6.5c25.2 0 9.6 49.2-8.2 63.3-5.8 4.6 10.7 11.7 13.5 12.7 5.5 1.9.6 5.4-1.8 5.4-10 0-18-6.7-26.3-13-.7-.5-1.6.4-2 1.7-1.2 4.7.8 16.2-.7 19.9-.7 1.4-2.4 2-4.2 1.3-1.1-.4-3-1.9-4.3-3.2-8.6-9.4-6.1-64.2-4.6-75.7.4-3.1.9-3.9 2.7-3.9a7 7 0 0 1 4.6 2c1.2 1 1.8 2.1 2.2 3.7.5 1.8.5 9.3.1 20-.4 12.9-.3 17.4.7 17.6.6 0 7.2-51.8 28.3-51.8Zm-19 58.2c6.1 0 33.4-53.2 20.4-53.2-12.9 0-19.3 34.8-22.1 47-.5 2-1.7 6.2 1.6 6.2Z"/>
  <path fill="#fff" d="M169.7 147.6c.3 1.1.2 3.7-.4 6.4-1 4.6-3.3 8.9-5.4 10-10.8 5.7-13.6-9-15.4-9-1.8 0-3 13.9-10.7 13.9-11 0-6.7-30.8-.6-35.6 5-4 10.8-1 14.6 3 2.4 2.3 3.1 4.2 4.5 11.2 1.5 8.1 2.8 11.5 4.6 11.5 1.7 0 3.3-3.4 4.5-9.3.7-3.3 1.2-4.1 2.5-4.1.6 0 1.5.9 1.8 2Zm-21.5-4.5c.6-1.9 0-3.2-1.5-3.2-1.3 0-2.6 1.9-4 5.8-1.3 3.8-2.1 8.2-1.6 9 .3.4.8.2 1.4-.5a72 72 0 0 0 5.7-11.1Z"/>
  <path fill="#fff" d="M195.3 147.9c3.3 0 3.8 0 3 .8-.7.6-3 1.6-5.9 2.3-2.8.8-3.8 1.3-4 1.8-.4.7-.2 1.7 1 3.8a45 45 0 0 1 4.7 28c-1 5.3-2.9 8.4-5.7 9.2-1 .3-3.9.2-5.4-.1-6.1-1.5-10.5-6.5-13.6-15.6-2-6-3-10.7-4-20-.3-4-.6-16-.2-20.1.6-9.2 2.3-17.6 4-20 .7-1.1 1.3-1.4 2.8-1.4 1 0 1.5 0 2.7.7 1.8 1 2.7 1.7 3.3 2.9.6 1.3.6 3 0 8.3a52 52 0 0 0-1 15.2c.4.8 1.2 1.5 3.7 2.9a9 9 0 0 0 3.2 1.5c.8.1 4.1 0 11.4-.2Zm-11.1 36a27 27 0 0 0 2.3-13.3c-.2-6.7-2.7-14.8-5.2-17-1.4-1.1-3.9-1.1-4.6.2-.7 1.1-.5 7.3.5 13.3.8 5.2 2.3 11.1 3.6 14.5 1 2.8 2.3 3.6 3.4 2.3Z"/>
  <path fill="#fff" d="M233.3 147.6c.4 1.1.2 3.7-.4 6.4-1 4.6-3.2 8.9-5.3 10-10.8 5.7-13.6-9-15.5-9-1.8 0-3 13.9-10.7 13.9-11 0-6.6-30.8-.5-35.6 5-4 10.7-1 14.6 3 2.3 2.3 3 4.2 4.4 11.2 1.5 8.1 2.9 11.5 4.7 11.5 1.6 0 3.3-3.4 4.4-9.3.7-3.3 1.2-4.1 2.5-4.1.7 0 1.5.9 1.8 2Zm-21.5-4.5c.6-1.9 0-3.2-1.5-3.2-1.3 0-2.6 1.9-4 5.8-1.2 3.8-2 8.2-1.6 9 .3.4.8.2 1.5-.5.8-.8 5.2-9.5 5.6-11.1Z"/>
  <path fill="#F472B6" d="M46.9 102.8c-8.2 4.2-14.3 14.7-15.1 26l-.1 1.5-1.4-1.5c-5-5.3-10.4-8.2-16.1-8.4-2 0-5.3.7-7 1.6a12 12 0 0 0-6.7 10.5c0 1.7.7 5.2 1.6 7.2a35.5 35.5 0 0 0 14.6 14.9c3.5 2 5.7 3.1 9.2 4.3 5.7 2 11.9 3 13.1 2.2.5-.4.4-.5-.4-.6-2.2-.2-8.7-2.4-13.9-4.8A38 38 0 0 1 7 140.3c-.5-.8-.8-1.7-1.3-3.7-.6-2.3-.7-2.9-.7-4 0-4.7 2.5-8 6.6-9.2 3.4-.8 6.8-.2 11 2.2 2.3 1.3 4 2.6 5.9 4.4 2.1 2.1 3 3.5 4.4 6.4.2.4 1 .7 1.5.5.7-.2.7-.4.3-2.2-1.4-5.5.2-12.7 4.2-19.2a24 24 0 0 1 13-10.6c4.2-1.2 7.2 0 8.7 3.6 1 2.4 1.3 7.2.7 11.5a75.3 75.3 0 0 1-9.3 23.3 61 61 0 0 0-7 17c-.8 4.3-.2 8.5 1.7 11.6.5 1 1.5 1.6 1.8 1.4l.2-1c-.2-5.7 1-11.6 3.4-16.8.5-.9 2.2-4.2 4-7.2a132 132 0 0 0 8.1-16c4.3-10.5 4.6-20 1-25.7a13 13 0 0 0-12.2-5.5c-1.6.1-4.5 1-6 1.7Z"/>
</svg>
