<svg xmlns="http://www.w3.org/2000/svg" fill="none" viewBox="0 0 232 294" class="pointer-events-none w-[80%]">
  <path fill="currentColor" d="M48.7 180.7c6.4-2 11.3-.2 2.5 5A27 27 0 0 0 48 188c-.5.6-.6.8-.5 1.7 0 .5.3 1.9.7 2.8 1.1 3.5.7 8.3-.9 11.6A26 26 0 0 1 30 216.8c-5 .9-12.2-1-13.5-6.6-1.5-6.9 3.3-13.8 8.6-17.4 7.6-5.1 4-3.5-.8-7.2a11 11 0 0 1-4.3-10c.1-2.3.7-4.1 1.8-5.6 2.2-3 8.4-5.7 12.9-5.7 1.8 0 2.8.5 3.7 1.5 1.5 1.8 1.5 5.4 0 6.4a9 9 0 0 1-2.3.7 21 21 0 0 0-6.6 2.6c-1 .9-1.1 1.6-.5 2.4a57 57 0 0 0 12.1 5.3c.8 0 1.4.2 3.8-1l3.8-1.4Zm-9 20.1c3-2.6 3.6-4.1 2.4-5.6-.9-1-2.4-1.7-3.5-1.7-1.2 0-2.2.4-5 2.3a40.2 40.2 0 0 0-10.1 8.8c-1.1 1.7-1 3 .3 3.5.5.3 3.3 0 4.4-.4 3.5-1.2 8.5-4.2 11.5-6.9Z"/>
  <path fill="currentColor" d="M89.5 176.2c.5 1.3.5 1.5-.4 2.7-6.6 8.7-4.4 16-19.3 24.8-4 2.3-3.8 2.6-4 6.5 0 1.5.6 5.6.6 7.5 0 4-.2 4.9-1.6 5.5-3.2 1.4-5-.3-6.5-3.3a49 49 0 0 1-2.7-9.7c-.2-1.5-.7-3.7-1-4.8-.5-1.6-.6-2.2-.6-4.1l-.4-6.1c-.2-2.6-.2-6-.2-10.3 0-9.1.4-15.4 1.3-18.2 1.5-4.7 4.7-2.1 7 .4 1.5 1.4 1.6 1.9 1.3 9.5-.2 6 .4 13.5 4.7 3.6a49 49 0 0 1 6.8-11.8 12 12 0 0 1 4.5-3.7 6 6 0 0 1 5.3.3c3 1.4 4.5 4 4.7 8.3 0 1.2.3 2.3.5 3Zm-13.4 12c.8-1.7.9-2.2.5-2.8-.4-.7-1.4-.7-3 .2-4.4 2.3-6.6 10.1-5.8 11 1.5 1.9 7.8-7.3 8.3-8.4Zm5.6-13.6c.6-2.5.6-3.7 0-4.3-.7-.6-1-.6-2.1.1a21 21 0 0 0-4.8 7c-.6 2 .4 2.5 3.2 1.6 2.2-.7 3.1-1.7 3.7-4.4Zm42.7 4.4c5.7 3.3-6.8 29.5-20 27.5-7-1-10.7-6.2-13-11a36.6 36.6 0 0 1 .6-21c2.1-6.6 5.4-10.4 9.3-10.6 2.8-.2 6.1 1.6 8 4.6 3.8 5.7 4.4 6.8 4.8 9.8.3 2 .3 3 0 4.8-.9 3.6-3.4 7-6.7 8.5-1.4.6-3 .7-4.4.4-2.4-.8-3.2.6-2.2 4.2.7 2.9 1.7 4.1 3.6 4.1 7.9 0 16.4-23.3 20-21.4Zm-19-3.8a31.4 31.4 0 0 0-4.3 10.2c0 1.7 1 2 2.4 1a14 14 0 0 0 4.2-6.7c1.4-4.6.1-7.2-2.3-4.5Z"/>
  <path fill="currentColor" d="M134 205.8c-2.3-.5-5.2-2.3-7-4.2a20.3 20.3 0 0 1-5.3-12 39 39 0 0 1 6.1-22.5c1.3-1.9 2.7-3.2 4.2-4 1-.4 1.4-.5 2.7-.5 1.3 0 1.7.2 3 .8 3 1.4 6.5 5.7 6.5 8 0 1.2-.5 1.5-2.3 1.5-.9 0-1.7.1-2 .3-2.2 1.1-5.5 6.8-7.3 12.5-2 6.5-2.1 13.6.3 14.5 7 2.5 14.5-11.2 16.6-14.4 2.6-3.7 3.4-6.1 6.4-6.1 1.6 0 .7 4-2.2 9.3-4 7.3-10.4 15.7-14.6 16.8a11 11 0 0 1-5.1 0Z"/>
  <path fill="currentColor" d="M172 180.2c2-1.3 2.7 1.3 1.9 6.2-2 11.6-3.4 15.5-6 17-1.1.4-4.3.6-6 .1a11 11 0 0 1-6.2-4.6 28 28 0 0 1-3.6-10.7c-.5-2.8-.7-15.8-.3-19.4.3-3.6.5-4.4 1.4-5.3l.8-.8h1.5c1.4 0 1.7 0 3 .7 2 1 3.3 2.3 3.7 3.7.3 1 .4 1.8.3 5.2l-.3 8.1c-.2 5.9.4 11.9 1.4 13.7 1.2 2.4 2.8.3 5.2-7.1 1.4-4.4 2.3-6.2 3.3-6.8Zm-15-28.6c-1.3-1.1-2.7-4.9-3-7.7-.1-2 .6-5.9 1.3-7.4.8-1.5 1.4-1.9 3-1.9 1 0 1.5.1 2.4.6a16 16 0 0 1 4.5 4.7c.9 1.8.3 5.1-1.3 8.4-1.2 2.4-3.3 4-5.2 4-.8 0-1-.2-1.6-.7Z"/>
  <path fill="currentColor" d="M209.7 181.6a16 16 0 0 1-.3 6.6c-1 4.7-3.4 9-5.5 10.1-11 6-14-9-15.8-9-1.9 0-3 14-11 14-11.2 0-6.7-31.3-.5-36.2 5-4 11-1 15 3 2.3 2.4 3 4.3 4.4 11.5 1.6 8.2 3 11.7 4.8 11.7 1.7 0 3.4-3.5 4.5-9.5.8-3.4 1.3-4.2 2.6-4.2.7 0 1.5.9 1.8 2Zm-22-4.6c.7-1.9 0-3.2-1.5-3.2-1.3 0-2.6 2-4 5.9-1.3 4-2.2 8.4-1.7 9.2.3.4.8.2 1.5-.5.8-.8 5.3-9.8 5.8-11.4Z"/>
  <path fill="currentColor" d="M215 210.9c-4-1-6.4-4-7.8-10.2a95.9 95.9 0 0 1-2.3-22.7c-.2-12.4.7-22.6 2.8-33 1.6-7.6 2.5-9.3 5-9.1a9 9 0 0 1 6.5 4.4c1 2 1 3.5-.6 12.9A175.3 175.3 0 0 0 217 199c.4 2.2 1.3 2.8 2.4 1.7 1-1 1.9-3.3 4.2-10.2 2.4-6.7 3.8-12.5 5.6-14.4.8-1 2.5-.6 2.8.1.3.7-1.4 6.8-1.8 9.3-.4 2.5-3.6 14.6-4.5 17.5-1.6 4.7-3 6.8-5 7.5-1.4.5-4.1.6-5.6.3Zm-94 49.8a35 35 0 0 1-2.1 13.8c-1.8 5.5-3.5 7.4-7.2 7.4-2.5 0-4.7-1-6.5-2.5-2-2-3.4-4.4-5-9.1-1.2-3.8-1.7-4.3-2.5-3.4-.6.6-1 2-2.4 7-2.6 10.3-4.5 13.5-8.1 13.8l-2-.1c-1.7-.3-3.7-1.5-5-2.7-1.7-1.8-2.7-4-3.4-7.7-.6-3-.5-11 0-14.9 1.5-8.7 3.7-13.8 7.1-16.1 2.1-1.4 3-1.7 6-1.7 2.3 0 2.9 0 4.3.5 2.2.8 2.9.8 3.5.1.6-.7.6-.7 1.1-5.1 1-8 3-17.8 4.5-20.7 1-1.9 2.2-2.5 4-2 2.7.8 4.6 2.8 5 4.7.1 1.3-.2 4.5-1.2 10.1-1.7 10.8-2.3 16-2.5 22.4-.1 4.9.1 9.3.7 13.2.4 2.8.8 4.1 1.5 4.8 1 1.2 1.7.3 3.5-3.9a56 56 0 0 1 4.7-9.7c1.3-1.4 1.6-1 2 1.8Zm-24.8-5c1.2-2.3 1.3-3.4.7-4.2-1-.8-3.2-.1-4.9 1.8a37 37 0 0 0-5.7 18.3c0 1.9 0 2.5.2 3s.5.9.6.9c.2 0 .6-.4.9-.8.7-.8 2-3.9 3.9-9.4 1.1-3.4 1.7-4.8 4.3-9.6Z"/>
  <path fill="currentColor" d="M157 259.7a16 16 0 0 1-.3 6.6c-1 4.7-3.4 9-5.5 10.1-11 6-13.9-9-15.8-9-1.8 0-3 14-11 14-11.2 0-6.7-31.3-.5-36.2 5-4 11-1 15 3 2.4 2.4 3 4.3 4.5 11.5 1.5 8.2 3 11.7 4.7 11.7 1.7 0 3.4-3.5 4.6-9.5.7-3.4 1.2-4.2 2.5-4.2.7 0 1.6.9 1.9 2Zm-21.9-4.6c.6-1.9 0-3.2-1.5-3.2-1.3 0-2.7 2-4 5.9-1.4 4-2.3 8.4-1.7 9.2.3.4.8.2 1.4-.5.8-.8 5.4-9.8 5.8-11.4Z"/>
  <path fill="currentColor" d="M163 293.6c-3.1-.8-4.8-2.3-6.3-5.6-2-4-3.2-9.6-4-18.9-.2-1.5-.3-6.1-.3-12.7v-14.7c0-2-2.7-1.1-4.6-.8-1.7.3-2.8.3-3.6-.2-1.6-1-1.5-2.6.5-4.8 1-1 2-1.3 4.4-2 2.8-.6 3.3-.8 4-1.6.6-.8.8-1.5 1.3-4.3a48 48 0 0 1 4.2-13.4c1.2-1.4 2.8-1.8 4.7-1.2 2.2.7 4 1.9 4.7 3.3.5 1 0 4.6-.6 9-.6 3.4-.7 3.7-.4 4.5.4 1.4 2.3.4 12.7-1.1 4.9-.8 8.7 5-2.2 6.3-10.9 1.2-11.7 2.8-12.3 5.4a199.1 199.1 0 0 0-.4 37.8c.4 3.1 1 4.4 1.7 4.6 1.4.3 2.3-1.5 6.6-13.9 2.2-6.3 2.5-7 3.6-9.2 1.6-3 3.3-5 4-4.5 1.2.7.6 5.2-1.3 12.6l-2.2 8.3c-3 11.7-4.7 15.4-7.7 16.8-1.6.8-4.3 1-6.5.3Z"/>
  <path fill="currentColor" d="M210.8 257c5.8 3.4-6.8 29.6-20 27.6-7-1-10.7-6.2-12.9-11.1-2.4-5.5-1.2-15.4.5-21 2.1-6.5 5.4-10.3 9.3-10.6a9.5 9.5 0 0 1 8 4.7c3.9 5.7 4.4 6.8 4.8 9.8.3 2 .3 3 0 4.8a13 13 0 0 1-6.6 8.5c-1.4.6-3.1.7-4.5.4-2.4-.8-3.2.5-2.2 4.2.7 2.9 1.8 4.1 3.6 4.1 7.9 0 16.5-23.3 20-21.4Zm-19-3.7a31.4 31.4 0 0 0-4.2 10.2c0 1.7.8 2 2.3 1a14 14 0 0 0 4.3-6.7c1.3-4.6 0-7.2-2.4-4.5Zm28.2 28a8.5 8.5 0 0 1-3.5-2.6 11 11 0 0 1-2.8-5.3c-.7-3.7 1-5.5 4.5-4.7 1.8.3 3 1 5 2.5 1 .8 1.9 1.6 2.4 2.3.7 1.1.7 1.2.7 2.6 0 2.4-.8 3.8-2.8 4.9-1.1.5-2.5.6-3.5.3ZM55 23.4c.5-2 1-4.5 1-5.8.1-2 .1-2.3-.4-3.2-2.7-5-14.6-2.8-26.2 4.9-4 2.6-6.3 4.3-9.5 7.5a33.7 33.7 0 0 0-10 15c-1 3.7 0 5.4 4.9 8.6 3.5 2.3 8.3 4.7 17.1 8.5 12.5 5.4 15.7 7 19.4 11 2.8 2.7 4.2 5 5.4 8.5a16.5 16.5 0 0 1-2 15.3c-5.4 8.2-18.7 14.8-27.3 13.6a14.5 14.5 0 0 1-11.7-17.6c1.3-5 6-11.3 12.1-16.1 2-1.6 2.5-2.3 2-3.3-.3-.7-1-1-5.9-3.3C12.3 61.9 6.5 57 2.7 49.4c-5.5-11.4-2.6-22.7 8.7-34a53.6 53.6 0 0 1 17.5-12c11-4.9 20.2-4.5 26.3 1.2a21 21 0 0 1 5.5 9.8c.6 2.5.7 6.9.1 9.5-.8 4.2-2.9 9.1-4 9.7-2 1-3.4-1.7-2.8-5.1 0-.8.6-3 1-5ZM32.7 76.7l-4 5c-4.5 5-7.4 10.5-7.4 13.6 0 1 .6 2.2 1.6 2.6 1.1.5 4.8.4 6.7-.3a36 36 0 0 0 18.5-14.9c1.9-3.4 1-4.7-4.3-7.3-5-2.5-6.6-3-8.3-1.8l-2.8 3Z"/>
  <path fill="currentColor" d="M103.7 58.6c.4 1.4.2 4.4-.4 7.6-1.2 5.6-4 10.6-6.5 12C84 85 80.6 67.4 78.4 67.4c-2.1 0-3.5 16.5-12.7 16.5-13.2 0-8-36.6-.7-42.4 5.9-4.7 12.8-1.2 17.4 3.5 2.8 2.9 3.7 5 5.3 13.4 1.8 9.7 3.4 13.7 5.6 13.7 2 0 3.9-4 5.3-11 .8-4 1.4-5 3-5 .7 0 1.7 1 2 2.4ZM78 53.2c.6-2.2-.1-3.7-1.8-3.7-1.6 0-3.1 2.2-4.7 6.8s-2.6 9.8-2 10.8c.4.5 1 .2 1.7-.6A87 87 0 0 0 78 53.2Z"/>
  <path fill="currentColor" d="M114.2 84a14 14 0 0 1-8-3.7A37.1 37.1 0 0 1 99 63.8c-1.8-9.4-2.4-22.6-1-25.3 1.2-2.4 5.2-2.5 9.7-.2a9 9 0 0 1 3.8 3.3c.8 1.4 1 3.1 1.3 8 .5 12.8.8 15.3 1.8 17.2.4.9 1.2 1.2 1.8.7.7-.6 1.4-2.5 3.8-9.4a92 92 0 0 1 8.8-21c2-3.2 3.6-5 4.4-4.9.6.1.7.1.7 2a81 81 0 0 1-3 16.6L127.7 65l-2.2 10c-1 4.9-2.5 7.2-5 8.2-.8.4-4 1-4.8 1a9 9 0 0 0-1.5-.3ZM173 55.5c6.7 3.9-8 34.5-23.4 32-8.2-1.1-12.5-7-15-12.8-2.8-6.4-1.5-18 .6-24.4 2.5-7.7 6.3-12 10.8-12.4 3.4-.2 7.2 2 9.4 5.4 4.5 6.7 5 7.9 5.6 11.4a15 15 0 0 1-.1 5.6c-1 4.2-4 8.2-7.7 10-1.6.6-3.6.8-5.2.4-2.8-.9-3.7.7-2.6 5 .9 3.3 2 4.7 4.2 4.7 9.2 0 19.2-27.2 23.4-25ZM150.8 51c-1.5 1.7-5 10-5 11.9 0 2 1 2.4 2.8 1.1 1.9-1.4 4-4.6 5-7.8 1.6-5.3 0-8.3-2.8-5.2Zm-77 105c-2.6-.7-4-2-5.3-4.7-1.7-3.4-2.6-8-3.4-15.8 0-1.3-.2-5-.2-10.6v-12.2c0-1.8-2.2-1-3.8-.7-1.5.3-2.4.3-3-.1-1.4-1-1.3-2.2.4-4 .8-.8 1.6-1.2 3.7-1.7 2.3-.5 2.8-.7 3.3-1.4.5-.6.7-1.2 1.1-3.5a40 40 0 0 1 3.5-11.2c1-1.1 2.3-1.5 3.9-1 1.8.5 3.3 1.6 4 2.7.4 1 0 3.9-.6 7.6-.5 2.8-.6 3-.3 3.7.4 1.2 2 .3 10.6-1 4-.6 7.2 4.3-1.9 5.4-9 1-9.7 2.3-10.2 4.4a165.8 165.8 0 0 0-.3 31.6c.3 2.5.8 3.6 1.4 3.8 1.1.3 1.9-1.3 5.5-11.6a42 42 0 0 1 3-7.7c1.3-2.5 2.7-4.1 3.3-3.8 1 .7.5 4.4-1.1 10.6l-1.8 6.9c-2.5 9.8-4 12.8-6.4 14-1.3.6-3.6.8-5.4.3Z"/>
  <path fill="currentColor" d="M92.8 149.7c-2.6-.7-3.6-1.8-4.7-5.7a89.4 89.4 0 0 1-3.1-18c-.8-9.9-.1-23.8 1.3-26.5.7-1.4 2.4-1.8 4.3-1.1 2.4.8 3.8 2.4 4 4.2.1.5 0 3.2-.1 5.8a97 97 0 0 0 .3 19.3c.2 1 .7 1.4 1 1 .5-.3 1-1.3 1.8-4 1.8-5.7 3-8.3 4.4-9 .7-.4 1-.4 2-.3 2.1 0 3.6 1 4.6 3l2.1 5.5c1.7 5.3 2.6 7.2 3.4 7.7.6.5 1 .4 1.8-.1l1-.4c.6 0 1 .7 1 2 0 1.9-1.2 2.7-4 2.6-1.1 0-1.6-.2-2.5-.6-2.1-1-3.6-3-5-6.9-1.3-3.1-1.4-3.4-1.8-3.7-1.6-1-2.7 3-4.2 17.1-.7 6-1 7-3 8a9 9 0 0 1-4.6.1Z"/>
  <path fill="currentColor" d="M146 125.5c4.8 2.8-5.6 24.6-16.6 22.9-5.9-.8-9-5.1-10.8-9.2-2-4.6-1-12.9.5-17.5 1.7-5.4 4.5-8.6 7.7-8.8a8.2 8.2 0 0 1 6.7 3.8c3.2 4.9 3.6 5.7 4 8.2.2 1.7.2 2.5 0 4-.7 3-2.9 5.8-5.6 7.1a6 6 0 0 1-3.7.3c-2-.6-2.6.5-1.8 3.6.6 2.3 1.5 3.4 3 3.4 6.6 0 13.7-19.5 16.7-17.8Zm-15.8-3.1c-1 1.2-3.5 7-3.5 8.4 0 1.4.7 1.7 2 .8 1.3-1 2.8-3.3 3.5-5.5 1.1-3.8 0-6-2-3.7Z"/>
</svg>
