<svg xmlns="http://www.w3.org/2000/svg" fill="none" viewBox="0 0 280 257" class="pointer-events-none w-[87.5%]">
  <path fill="currentColor" d="M93.2 187.2c.6 5.2-11 11.2-12.2 13.5-.5 1-.5 1.7.2 7.4 1.8 15.9-2.5 54.2-25.9 48.3a14 14 0 0 1-4.2-2c-2.5-1.9-3.7-6.1-3.1-11.3a75.7 75.7 0 0 1 17.2-36.6c2.9-3.6 3.1-4.2 3-6.7-.3-3.2-1.6-9.5-3-13.7-1.5-4.6-3.5-4.6-6.2 0-2 3.5-4 8.4-5.8 14.4l-1.8 6.2a19.4 19.4 0 0 1-3.6 7.6c-1.6 1.3-3.8 1.5-6.6.5-3.4-1.2-5.2-3-6.5-6.8a53 53 0 0 1-2-18.7c.5-6.9 1.4-10 3.1-11 .4-.2 1.2-.3 1.9-.3 2.2 0 5 1.7 5.9 3.5.3.8.4 1.4.2 7.4-.1 6.8 0 7.8.8 8.3.7.4 1.4-.6 3.8-5.5 3.3-7.3 5-10.8 7.6-12.9 15.5-12.3 23 14.3 23.4 14.4 2.9 1.2 13.4-9 13.8-6ZM66 238.7a73.8 73.8 0 0 0 3.2-20.4c0-2.7-.3-3.6-1.2-3.6-1 0-1.8 1-3.5 4-3.3 5.7-6 13.1-7.3 19.4a28 28 0 0 0 0 10.3c.6 1.3 1.7 1.5 3 .4 1.7-1.3 4.4-6 5.8-10.1Z"/>
  <path fill="currentColor" d="M122.9 194.4c6 3.6-7.3 31.7-21.5 29.5-7.5-1-11.4-6.6-13.8-11.8-2.5-6-1.3-16.6.6-22.5 2.3-7 5.8-11 10-11.3 3-.2 6.5 1.8 8.6 5 4 6.1 4.6 7.2 5 10.4.4 2.2.4 3.2 0 5.2-.9 3.8-3.6 7.4-7 9-1.6.7-3.4.9-4.9.5-2.5-.8-3.3.6-2.3 4.5.8 3 1.9 4.4 3.8 4.4 8.5 0 17.6-25 21.5-22.9Zm-20.4-4a33.6 33.6 0 0 0-4.5 11c0 1.7 1 2.1 2.5 1a15 15 0 0 0 4.5-7.2c1.5-4.9.1-7.7-2.5-4.8Z"/>
  <path fill="currentColor" d="M151.3 196.3c6.8-2.1 12-.2 2.6 5.4l-3.4 2.4c-.5.6-.6.8-.5 1.8 0 .5.3 2 .7 3 1.2 3.7.7 8.8-.9 12.4a28 28 0 0 1-18.6 13.6c-5.3 1-13-1.1-14.4-7.1-1.6-7.3 3.5-14.8 9.2-18.6 8.1-5.5 4.3-3.8-.9-7.8-3.3-2.6-4.8-6-4.5-10.6 0-2.6.7-4.5 1.9-6.1 2.3-3.1 9-6 13.7-6 2 0 3.1.4 4 1.5 1.6 2 1.6 5.8 0 7-.3 0-1.4.5-2.4.6-2.5.6-6.2 2-7.1 2.9-1.1.9-1.2 1.6-.5 2.5.9 1 11.4 5.5 13 5.7.8 0 1.4.2 4-1l4-1.6Zm-9.7 21.6c3.2-2.9 3.9-4.5 2.6-6-1-1-2.5-1.9-3.7-1.9-1.4 0-2.4.5-5.4 2.5a43 43 0 0 0-10.8 9.4c-1.2 1.9-1 3.3.3 3.8.5.2 3.5 0 4.8-.5 3.6-1.3 9-4.4 12.3-7.3ZM168.4 220.4a9.1 9.1 0 0 1-3.7-2.8 11.9 11.9 0 0 1-3-5.6c-.8-4 1-5.9 4.8-5.1 1.9.4 3.1 1 5.3 2.7 1.2.8 2 1.7 2.6 2.5.8 1.1.8 1.3.8 2.8 0 2.5-1 4-3 5.2a5 5 0 0 1-3.8.3ZM34.8 132.4c6.8-2 12-.2 2.6 5.5l-3.4 2.3c-.6.6-.6.8-.6 1.8l.7 3c1.3 3.8.8 8.9-.8 12.5A28 28 0 0 1 14.7 171c-5.3 1-13-1-14.4-7.1-1.6-7.3 3.5-14.7 9.2-18.6 8.1-5.5 4.3-3.8-.9-7.8-3.3-2.5-4.8-6-4.5-10.5 0-2.6.7-4.5 1.8-6.2 2.4-3 9-6 13.8-6 2 0 3 .5 4 1.6 1.6 2 1.6 5.8 0 6.9l-2.4.7c-2.5.5-6.2 2-7.1 2.8-1.1 1-1.2 1.6-.5 2.5.9 1 11.4 5.6 13 5.7.8.1 1.4.2 4-1l4-1.6ZM25 154c3.2-2.8 3.9-4.5 2.5-6-.9-1-2.5-1.8-3.6-1.8-1.4 0-2.4.4-5.4 2.5A43 43 0 0 0 7.8 158c-1.2 1.8-1 3.2.3 3.8.5.2 3.5-.1 4.7-.5 3.7-1.3 9-4.5 12.3-7.4Z"/>
  <path fill="currentColor" d="M49.3 161.8c-3.3-1-4.6-2.5-6-7.4a115 115 0 0 1-4-23.1c-1-12.7-.1-30.6 1.7-34 .9-1.9 3-2.4 5.5-1.6 3 1.1 4.9 3.1 5.2 5.5 0 .7 0 4-.2 7.4-.7 10-.5 21.5.3 24.9.4 1.1 1 1.7 1.4 1.3.6-.5 1.2-1.8 2.3-5.3 2.2-7.2 3.9-10.5 5.7-11.5.8-.5 1.1-.5 2.6-.4 2.6.1 4.5 1.4 5.8 4 .4.7 1.6 3.8 2.7 7 2.2 6.8 3.3 9.3 4.3 9.9.9.5 1.3.5 2.3-.2a3 3 0 0 1 1.4-.4c.8-.1 1.2.8 1.2 2.4 0 2.5-1.5 3.6-5 3.4a7 7 0 0 1-3.3-.7c-2.7-1.4-4.6-4-6.5-9-1.5-3.9-1.7-4.3-2.2-4.7-2.2-1.3-3.5 4-5.4 22-1 7.8-1.4 9-4 10.2-1.4.6-4.2.7-5.8.3Z"/>
  <path fill="currentColor" d="M117.7 130.6c6.1 3.6-7.2 31.6-21.4 29.5-7.5-1.1-11.5-6.6-13.8-11.9-2.6-5.9-1.3-16.5.5-22.4 2.3-7 5.8-11 10-11.4 3-.1 6.6 1.8 8.6 5 4 6.1 4.6 7.2 5 10.5.4 2.2.4 3.2 0 5.1-.8 3.9-3.6 7.5-7 9.1-1.5.7-3.3.8-4.8.4-2.6-.8-3.4.7-2.4 4.6.8 3 2 4.4 3.9 4.4 8.4 0 17.6-25 21.4-23Zm-20.3-4a33.6 33.6 0 0 0-4.6 10.9c0 1.8 1 2.2 2.5 1a15 15 0 0 0 4.6-7.2c1.5-4.8 0-7.6-2.5-4.7ZM171.1 132.4c6.9-2 12.1-.2 2.7 5.5-1.6.9-3.1 2-3.4 2.3-.6.6-.7.8-.6 1.8 0 .6.3 2 .7 3 1.3 3.8.8 8.9-.8 12.5A28 28 0 0 1 151 171c-5.3 1-13-1-14.4-7.1-1.7-7.3 3.5-14.7 9.1-18.6 8.2-5.5 4.4-3.8-.8-7.8-3.3-2.5-4.8-6-4.6-10.5.1-2.6.7-4.5 2-6.2 2.3-3 9-6 13.7-6 2 0 3 .5 4 1.6 1.6 2 1.6 5.8 0 6.9l-2.4.7c-2.5.5-6.2 2-7.2 2.8-1 1-1.1 1.6-.4 2.5.8 1 11.3 5.6 12.9 5.7.9.1 1.5.2 4-1l4.1-1.6Zm-9.6 21.6c3.1-2.8 3.8-4.5 2.5-6-1-1-2.5-1.8-3.7-1.8-1.3 0-2.3.4-5.4 2.5a43 43 0 0 0-10.8 9.4c-1.2 1.8-1 3.2.3 3.8.6.2 3.6-.1 4.8-.5 3.7-1.3 9-4.5 12.3-7.4Z"/>
  <path fill="currentColor" d="M217.7 133.5c.4 1.2.3 4-.3 7-1.1 5-3.6 9.7-6 10.8-11.7 6.4-14.8-9.7-16.8-9.7s-3.2 15.2-11.7 15.2c-12 0-7.3-33.7-.6-39 5.4-4.3 11.7-1 16 3.3 2.5 2.6 3.3 4.6 4.8 12.3 1.6 8.9 3.1 12.5 5 12.5s3.7-3.6 5-10c.7-3.8 1.3-4.6 2.7-4.6.7 0 1.6 1 2 2.2Zm-23.4-5c.6-2-.1-3.4-1.7-3.4-1.4 0-2.8 2-4.3 6.3-1.4 4.2-2.3 9-1.8 9.8.3.5.9.3 1.6-.5.8-.9 5.7-10.4 6.2-12.2Z"/>
  <path fill="currentColor" d="M234.6 131.9c2-1.3 2.8 1.4 2 6.7-2.1 12.4-3.7 16.5-6.6 18-1 .6-4.5.8-6.2.3-2.8-.8-5.1-2.5-6.8-5a30 30 0 0 1-3.8-11.5c-.5-3-.7-16.8-.3-20.7.3-3.8.5-4.7 1.5-5.7l.8-.8h1.7c1.5 0 1.8 0 3.3.7 2 1 3.4 2.5 3.9 4 .3 1 .4 2 .2 5.5l-.2 8.7a42 42 0 0 0 1.4 14.7c1.3 2.6 3 .3 5.6-7.6 1.5-4.7 2.4-6.6 3.5-7.3Zm-16-30.6c-1.5-1.2-3-5.2-3.3-8.2a21 21 0 0 1 1.3-8c.9-1.6 1.5-2 3.2-2 1.2 0 1.7.1 2.6.6 1.4.8 4.1 3.7 4.8 5 1 2 .4 5.6-1.3 9-1.4 2.6-3.6 4.2-5.7 4.2-.8 0-1 0-1.7-.6Z"/>
  <path fill="currentColor" d="M279.9 134.5c.4 4-.3 8.8-2.2 14.7-1.9 6-3.8 8-7.7 8-2.6 0-5-1-7-2.7-2.1-2-3.6-4.7-5.3-9.7-1.3-4-1.8-4.7-2.7-3.6-.6.6-1 2-2.5 7.5-2.8 11-4.9 14.4-8.7 14.7a7 7 0 0 1-2.2-.1c-1.7-.3-4-1.6-5.3-3-1.8-1.8-3-4.2-3.6-8-.7-3.3-.6-12 0-16 1.5-9.4 3.9-15 7.6-17.3 2.2-1.5 3.3-1.8 6.4-1.8 2.5 0 3 0 4.6.5 2.4.8 3 .8 3.7 0 .7-.6.7-.7 1.2-5.4 1-8.6 3.3-19 4.8-22.1 1-2 2.4-2.7 4.4-2.1 2.7.7 4.9 2.9 5.3 5 .1 1.3-.3 4.8-1.3 10.8a159.2 159.2 0 0 0-2.7 24c-.1 5.2.1 10 .7 14.1.4 3 .9 4.4 1.6 5.1 1.2 1.3 1.9.4 3.8-4.1 1.5-3.9 4.1-9.3 5-10.4 1.4-1.5 1.8-1 2.1 1.9Zm-26.5-5.3c1.3-2.5 1.4-3.7.7-4.5-1-1-3.3-.2-5.1 1.9a39.2 39.2 0 0 0-6.2 19.6c0 2 0 2.6.3 3.3.1.4.5.8.6.8.2 0 .6-.4 1-.8a52 52 0 0 0 4.1-10c1.3-3.8 1.9-5.2 4.6-10.3ZM106.4 95.4c-7-1-11.4-5.8-15.8-16.9a119 119 0 0 1-7.2-33.4c-.8-7.3-1-8.7-1.9-9-.4-.1-1.1 1.5-1.6 3.7-.7 3-2.2 12.5-4.3 27.4-1.7 12.2-3 17.3-5.5 20.6-1.8 2.6-4.9 3.3-9.2 2-3.3-1.2-4.8-2.7-6.5-7.3A113 113 0 0 1 50 45a151 151 0 0 1 3.4-30.6c1.8-8 2.6-9.6 5.2-10 1.7-.3 5.2 1.1 6.5 2.4 1.3 1.5 1.3 2.4-.3 14-2 13.6-2.5 19.4-2.4 31.4 0 12 .6 19.6 1.7 21.8.4 1 .8 1.2 1.4.6C67 73.4 67.8 70 74 40.4c1.8-8.2 3.2-13.5 4.7-17.7 1.8-5.1 2.8-6.2 5.1-6.2 2.5 0 4.7 1.5 6 3.8.8 1.5 1.9 4.8 2.3 7.2.6 2.5 2 10.7 2.5 14.9.6 4.3 2.2 14 3.2 18.1 2.2 10 5 18.2 7.9 23.7C107 87 108 88 109 88c1.2 0 1.9-.6 3-2.3 3-4.2 4.1-11.7 5.6-20 1.3-7 1.7-12.8 2-22.8.3-13-.6-22.3-3-32.4-.2-.5-3.8-15.1 2.2-9 3.3 3.4 5.8 11 7.4 22.8 2 15 2.5 35.3 1 45.4-1 8-3.5 15.5-6.4 19.4a20.2 20.2 0 0 1-4.7 4.4 15.8 15.8 0 0 1-9.8 1.9ZM142.2 80c-3.3-1-4.6-2.4-6-7.4a115 115 0 0 1-4-23.1c-1-12.7-.1-30.6 1.7-34 .9-1.8 3-2.4 5.5-1.5 3 1 4.9 3 5.2 5.5 0 .6 0 4-.3 7.3-.6 10-.4 21.5.4 24.9.4 1.2.9 1.7 1.4 1.3.6-.5 1.1-1.8 2.2-5.3 2.3-7.2 4-10.5 5.8-11.5.8-.4 1.1-.4 2.5-.4 2.7.1 4.6 1.5 6 4l2.6 7c2.2 6.8 3.3 9.3 4.3 9.9.9.6 1.3.5 2.3-.2a3 3 0 0 1 1.4-.4c.8-.1 1.2.8 1.2 2.4 0 2.5-1.5 3.6-5 3.5a7 7 0 0 1-3.3-.8c-2.7-1.4-4.6-4-6.5-8.9-1.5-4-1.7-4.4-2.2-4.8-2.2-1.3-3.5 4-5.5 22-.8 7.8-1.3 9-3.9 10.3-1.4.5-4.2.7-5.8.2Z"/>
  <path fill="currentColor" d="M210.6 48.8c6.1 3.6-7.3 31.7-21.4 29.5-7.6-1.1-11.5-6.6-13.8-11.9-2.6-5.9-1.3-16.5.5-22.4 2.3-7 5.8-11 10-11.4 3-.1 6.6 1.8 8.6 5 4 6.2 4.6 7.3 5 10.5.4 2.2.4 3.2 0 5.2-.9 3.8-3.6 7.4-7 9-1.5.7-3.3.8-4.8.4-2.6-.7-3.4.7-2.4 4.6.8 3 2 4.4 3.9 4.4 8.4 0 17.6-25 21.4-23Zm-20.3-4a33.7 33.7 0 0 0-4.6 10.9c0 1.8 1 2.2 2.5 1a15 15 0 0 0 4.6-7.1c1.5-4.9 0-7.7-2.5-4.8Z"/>
  <path fill="currentColor" d="M214.5 74.7c-3.2-1-4.3-3.3-5.6-12.2-.8-6-1-8.1-1-16.7 0-6.6.1-9 .4-11.3.7-5.3 1.1-6.1 3.5-6.3 1.1 0 1.5 0 2.7.6 1.7.8 2.5 1.5 3.3 2.9l.5 1v8.6c0 8.9 0 10.6.8 11.3.4.5.5.5 1 0 .4-.2 1.3-1.7 2.5-3.9 2.2-4.3 2.9-5.3 4.1-6.1.9-.5 1.1-.6 2.5-.5 2 .2 3.2.7 4.6 2.1 1.2 1.3 2 2.8 3.7 7.4 2.2 6.1 3.2 8 4.5 8 .7 0 1.5-1.2 2.6-3.6 1-2.6 2.8-5.4 3.7-6 1.2-.8 1.8.4 1.8 4.1 0 2.2 0 3-.6 4.7-1.7 6.1-3.7 8-7.9 7.8a7 7 0 0 1-3.2-.8c-2.7-1.3-4.2-3.4-6.3-9.1l-1.4-3.8c-.6-1.8-1.7-2.3-2.6-1.4-.9 1.1-2.2 5-3.6 11.6-2 9.2-2.2 9.8-3.6 11-1.4 1.1-4 1.4-6.4.6Z"/>
</svg>
