<svg xmlns="http://www.w3.org/2000/svg" fill="none" viewBox="0 0 36 36">
  <path fill="currentColor" d="M16 .1c-.5.2-1 .5-1.3 1-.2 0-.3.3-.4.3-.4 0-1.4.6-1.8 1-.5.3-1.2 1-1.6 1.4L9.9 5a35.5 35.5 0 0 0-6.7 12c-.4 1.5-.1 2.3 1 2.8.5.2.6.3.7.6 0 .2 0 .4-.4 1.1a8 8 0 0 0-.5 1.2c0 .4.1 1 .4 1.3.2.3.2.3 0 .5L4 26.2v4.6c0 4.2 0 4 .5 4.6.2.2.4.4.6.4l.3.2h25.4l.3-.2c.2 0 .4-.2.6-.4.5-.6.5-.4.5-4.6v-4.6l-.6-1.8.1-.5c.1-.1.3-.4.3-.7.2-.5 0-.9-.4-1.8l-.4-1c0-.3.3-.6.8-.8a2 2 0 0 0 1-1c.2-.5 0-1.2-.2-2.2-.5-1.6-1.6-4.1-1.9-4.2h-.6c-.3.3-.2.4.2 1.4a17 17 0 0 1 1.5 4.2l-.1.6-.2.2-1 .4-.1.2-.2-.3-1.3-2.6c-.3-.3-.8 0-.8.3l1.3 3.1 1.4 3.1v.4l-.6-.3c-.8-.6-1.3-.8-3.8-1.4a36 36 0 0 1-2.2-.7l.4-.5a8 8 0 0 0 1.9-4.8 49.2 49.2 0 0 0-.2-5.8c0-.2-.2-.4-.3-.5V9l.2-.1c.1 0 .5-.6.5-.8v-.3l1 1.3 1 1.5c.1.2.3.4.5.4 0 0 .2 0 .3-.2.3-.2.3-.4 0-1a57.6 57.6 0 0 0-2.2-3.3 2 2 0 0 0-.3-1c-.2-.1-.3-.3-.3-.4 0-.6-.5-1.2-1-1.4-.3 0-.4-.1-.7-.5a8 8 0 0 0-5.1-3c-1-.2-3.6-.2-4 0Zm3.8 1c1.3.3 2.5.9 3.4 1.7l.5.3-.3.2c-.2 0-.4.2-.5.3h-.3c-.3 0-.9.3-1 .5l-.5 1-.1.3-.3.4c0 .2-.1.4 0 .8v.5H20c-1.3 0-2.4-.4-3.4-1.4-.9-.8-1.4-2-1.4-3 0-.6 0-.9.4-1.2.4-.4.6-.4 2.1-.4h2ZM14.2 3l.2 1c.2.7.3 1.8.2 2.2-.1.3-.5.8-.9.9l-.7.1c-.6.1-1 .4-1.3.9l-.3.3-.5.1-.4.2V8a6.2 6.2 0 0 1 3.6-5.4l.1.3Zm10.2 1.6c.2.2.3.3.7.3.5 0 .7 0 .7.4 0 .5 0 .6.2.9.2.1.3.3.3.4L26 7c-.2.3-.3.3-.2.7 0 .5-.2.6-.7.6-.3 0-.4 0-.7.2-.1.2-.3.3-.4.3l-.4-.3c-.3-.2-.4-.3-.9-.2-.3 0-.5-.2-.5-.7 0-.4 0-.4-.2-.6-.4-.3-.4-.6 0-1 .3-.2.3-.2.2-.5 0-.3 0-.4.2-.5 0-.2.2-.2.5-.1.3 0 .3 0 .6-.3.4-.4.6-.4 1 0Zm-7.3 2.9 1.2.5 1.8.3h1l.2.2c.1.4.8.8 1.3.8.1 0 .3 0 .5.2l.3.2v1.5c0 1.7 0 2-.6 3a7.1 7.1 0 0 1-4.1 3c-.9.3-1.4.2-2.7-.4a6 6 0 0 1-3.2-3.6c-.2-.4-.2-.6-.2-2.4V8.5c0-.2.3-.3.9-.4.8 0 1.6-.6 2-1.4l.2-.4.5.4 1 .7ZM9.4 11c0 4 0 5.2.3 6.2a7 7 0 0 0 1.6 3.1l.4.5-2.2.7c-2.4.6-3 .8-3.8 1.4-.4.4-.5.4-.5.2v-.3a52.2 52.2 0 0 1 2.7-6c0-.3-.3-.7-.6-.6-.3 0-.4.2-1 1.3l-.6 1.4-.2.3-.2-.1-.5-.4c-.8-.3-.8-.5-.6-1.5.5-2 1.5-4.2 3-6.5l2.2-3.3V11Zm2-.5v1.2h-.1c-.7-.3-1-1.1-.7-1.7.1-.2.6-.6.8-.6v1.1Zm13.7-.8c.6.6.4 1.6-.4 2h-.2v-1c0-1 0-1 .2-1.1.2-.1.2-.1.4.1Zm-14.3 2.8.5.2h.3l.1.6a7 7 0 0 0 2 3.1l.4.3v1.4c0 1.3 0 1.4-.3 1.7-.2.4-.7.7-.9.6-.2 0-1-1-1.4-1.6-.8-1.4-1-2.5-1-5.2 0-1.2 0-1.2.3-1Zm14.7 1.7c0 2.2-.2 3-.8 4.1a9 9 0 0 1-1.6 2.2c-.2 0-.7-.3-1-.7l-.2-1.7v-1.4l.4-.3a7 7 0 0 0 2-3.1l.1-.5.4-.1.4-.2c.4-.2.4-.2.3 1.7Zm-8.8 3.9c1.2.4 2.3.3 3.7-.4l.4-.2v.9c0 1 .1 1.5.5 2 .2.4.7.8 1 1a61.7 61.7 0 0 0 6.3 1.8 4 4 0 0 1 2 1.7c.4.8.4.8.4 5.2s0 4.4-.4 4.7c-.2.2-.3.2-1.7.2h-1.4v-2.8c0-3 0-3.2-.4-4a5.6 5.6 0 0 0-8.2-1.3c-.4.5-.6.5-.9.5-.3 0-.5 0-.9-.4-.6-.6-1.4-1-2.3-1.2-.5-.1-1.7-.2-2.1 0-1.4.2-2.7 1-3.4 1.9-.6.8-.8 1.7-.8 3.2 0 .9.1 1 .6 1 .4 0 .5-.1.5-.8v-.5l.3-.3c.8-.7 1.8-1.2 3-1.2 1.3 0 2.4.3 3.4 1.2.7.5 1 .7 1.7.7.6 0 1-.1 1.6-.7 1-.9 2.2-1.3 3.5-1.2 1.2 0 2.2.5 3 1.2l.3.3V35H9.6v-.7c0-.7-.1-.9-.5-.9s-.6.2-.6 1v.6H7c-1.4 0-1.5 0-1.7-.2-.5-.3-.5-.3-.4-4.7 0-4.4 0-4.4.4-5.2a4 4 0 0 1 2-1.7 104.3 104.3 0 0 1 6.2-1.8c.4-.2.8-.6 1.1-1 .4-.5.5-1 .5-2v-1l.4.3 1.1.4Zm-2.1 8.7c.6.2 1.3.5 1.8 1 .7.6.9.7 1.6.7.7 0 1-.1 1.6-.7.8-.7 1.7-1 2.9-1 1 0 2 .3 2.8 1 .4.3.8.9.8 1l-.6-.2a6 6 0 0 0-6.5.9c-.8.7-1.2.7-2 0-.7-.6-1.3-1-2-1.2a6.2 6.2 0 0 0-4.5.3l-.6.2c0-.1.4-.7.8-1 1-1 2.4-1.3 3.9-1Z"/>
  <path fill="currentColor" d="M17.2 6.9c-.2.2-.3.4 0 .7.2.3.9 0 .9-.4l-.2-.3c-.3-.2-.5-.2-.7 0Z"/>
</svg>
