<svg xmlns="http://www.w3.org/2000/svg" version="1.0" viewBox="0 0 512 512" fill="currentColor">
  <path d="M256.8 1.6a81.6 81.6 0 0 0-41 20.3l-6.6 6.1h-6.4c-14.7 0-36.1 5.1-49 11.6a121.2 121.2 0 0 0-30.9 23.3C95 91.1 73.5 137.3 57.4 203.7c-4 16.4-4.2 20.5-1.4 23.3 2.5 2.5 7.4 2.6 9.8.2 1.2-1.2 3.7-9.5 7.1-23.3a417.5 417.5 0 0 1 32.8-91.8C131.5 64.8 163.3 43 206.8 43h9.2l8-7.9a64.7 64.7 0 0 1 44.5-19.7A54.6 54.6 0 0 1 311 31.7c6.3 5.8 17 18.2 17 19.7 0 .3-1.7.6-3.7.6a151 151 0 0 0-30.1 5.6c-10.3 3-26.5 10.5-35.3 16.4A119.3 119.3 0 0 0 234 98.8c-2.2 3.8-2.8 4.2-5.5 3.7a87 87 0 0 0-25.8-.5c-3.2.6-9.4 3-13.8 5.2-18.6 9.3-32.6 29.9-37.9 55.8a80.2 80.2 0 0 0-1.7 24.5c1 26.6 9.4 46.4 26.6 63.5a70.5 70.5 0 0 0 29.6 18.7c7.3 2.5 9.3 2.7 23 2.7a77 77 0 0 0 22.2-2.1l7.3-1.9.6 3.3c.9 4.7-1.2 29.9-3.6 43.3a585 585 0 0 1-15.5 61c-16 55-21.3 83.8-21.8 118.3-.2 13.5-.1 13.9 2.2 15.8 3 2.4 6.2 2.4 9.3-.1 2.4-1.8 2.5-2.6 3.2-16.2 1.8-38.2 6.1-60.2 23.1-119.3 12-41.8 15.5-58.3 17.5-83.4a89 89 0 0 0-.6-27.6c-.4-.8 1.5-2.6 4.8-4.8 3-1.9 9-6.3 13.3-9.9l8-6.4 4.5 1.7c2.5 1 5.9 1.8 7.5 1.9 5 .1 7.3 1.1 7.9 3.4A39 39 0 0 0 332 266c14.6 11.4 14.6 21.6.1 32.8-10.4 8.1-15 15.7-15.1 25.3 0 6 2.4 9.2 6.9 9.2s7.2-3.1 8.2-9.4c1-6.4 3.2-9.2 4.8-6.2a27 27 0 0 0 6.4 6.1l5.4 4.2.6 19.2c.8 21.3 2.3 30.8 6.2 37.4 5 8.5 8.9 10.3 13.9 6.3 3.5-2.7 3.4-6.1-.4-13.5-3.2-6.2-4.9-17.6-5-32.8 0-6.1.2-6.7 1.8-6 16 7.1 32.2 9.2 43.8 5.5 20.4-6.3 35.8-27.7 46.3-64.6l2-7 5.3-1.9a28.1 28.1 0 0 0 16.7-17.4c2.2-9.1-.5-15.7-11.3-27.2-3.9-4.2-7.9-8.6-8.8-9.8-5.3-6.7-14.5-1.2-12.4 7.4.4 1.3 4.2 6.2 8.6 10.9 8.3 8.7 10.5 12.4 9.5 15.6-1 3.2-7 6.9-12.4 7.8-6.4 1-7.6 2.1-9 7.9-.7 2.6-2.5 9.1-4.2 14.5-2.8 9.1-3.1 9.8-5.2 9.1a39.6 39.6 0 0 1-13.2-7.8c-5.7-5.2-11-4.7-13.4 1.3-1.1 2.4-1 3.4.4 6a45.5 45.5 0 0 0 17.9 13.6l4.4 1.7-3.6 6.1a48.3 48.3 0 0 1-17.9 17.8c-14.9 7.2-36.7.5-59.7-18.4l-2.9-2.4 4.1-5.1a27 27 0 0 0 6.6-20.2c0-9.7-2.6-15.5-9.6-22l-10.3-9.3-5-4.6v-22.3c.1-20 .3-23.2 2.3-30.7a76 76 0 0 1 28.6-43.5c14.3-12 21.5-20 25.8-28.1l3.2-6.3 7.5 6.7c12 10.5 27.3 20.6 44.1 29.1l6 3v4.8c0 2.6-.3 6.3-.6 8.3l-.6 3.5-13.7.1c-10.4.1-15.5.6-21.6 2.2-10.2 2.7-12.9 4.6-13.3 9.5-.6 7 4.9 9.5 13.1 6.1 4.9-2 20.8-3.7 27.9-2.9 4.6.5 5.8 1 5.8 2.4 0 6 8.4 8.5 12.5 3.8 3-3.5 5-17.7 5-35.3a93.1 93.1 0 0 0-4.7-32.5c-13.1-41-52.6-67.9-106.4-72.5-7-.6-8.3-1-9.2-2.9a149 149 0 0 0-19.3-24.5C304.3 3.7 283.3-3.2 256.8 1.6zm113.7 67.3c31.6 6.9 55.2 22.1 67.7 43.4 4.7 7.9 9.7 21.1 8.5 22.3-.8.9-15-7.2-24.2-13.9a128.8 128.8 0 0 1-24.1-21.8c-6.1-7.2-9.4-9.2-13.1-7.8-3.2 1.2-5 4.7-5.6 11.1a42 42 0 0 1-8.9 20.1c-1.8 2.2-9.2 9.1-16.6 15.5a152.3 152.3 0 0 0-18 17.6c-4.2 5.7-13.2 23-13.2 25.4 0 2.3-1.9 2.1-6.6-.6a29.1 29.1 0 0 0-24-.5 29 29 0 0 0-15.6 26.4c0 8.2 2.1 15.9 6.1 22.1l3 4.7-4.6 4.1a67.2 67.2 0 0 1-14.4 10c-.4 0-1.1-.9-1.4-2-.3-1.1-4.3-8-8.7-15.3-20.3-33.6-25.6-50-24.5-76.4.6-15.2 3-25.4 8.6-36.8 13.8-27.9 42.6-44.8 85.1-49.9 8.5-1 35.7.4 44.5 2.3zM223.4 117c.3.3-.5 4-1.9 8.1a123 123 0 0 0 1.1 69.8c3.8 11.5 9 21.9 20.2 40.7 5.6 9.4 10.2 17.4 10.2 17.7 0 1.5-11.4 3.9-21 4.4-12.9.7-19.5-.6-29.8-5.7a73 73 0 0 1-37.2-54.3c-1.7-10.3-.8-27.9 2-37.6 6.2-21.9 21.1-39.1 37.3-43.2 3.4-.8 18.2-.8 19.1.1zm86.2 76.6c2.1 1 4 3.1 5.4 5.9 1.8 3.8 2 5.8 1.8 18.1l-.3 13.9-3.5-.3a24.8 24.8 0 0 1-19.9-16.5c-2.3-8.7-1.8-13.7 1.6-17.7 4.3-5.1 8.9-6.2 14.9-3.4z"/>
  <path d="M189.9 66.4A74 74 0 0 0 151 88c-37.8 37.3-62.1 120.2-81.6 278a399.2 399.2 0 0 1-2.9 21.8c-.5.5-11.9-2.5-16-4.2-4.3-1.8-4.3-.4-1-33.4 3.4-34.1 6.4-57.1 12-91.7 1.2-7.2-5.2-11.9-11.5-8.5-1.1.6-2.4 2.7-2.9 4.8-2.8 10.3-11.3 77.6-14.6 115.2-1.4 16.6-1.4 17.6.3 20 2.4 3.3 10.8 7.4 22.3 10.6l9.7 2.9c.2.2-.4 6.5-1.2 14.2-4.1 35.7-8.5 87.5-7.6 89.8 1.8 4.8 7.4 5.8 11.4 2.2 2.5-2.2 2.6-2.8 6.1-40.2a4434.5 4434.5 0 0 1 6.5-64.1c0-.7 4.2-1.3 11.8-1.7a120 120 0 0 0 22.2-3.2 135.6 135.6 0 0 1 75.2 2.6c8.1 2.3 13.2-1.5 11.4-8.5-.8-3.4-7.1-6.4-19.6-9.4a138.8 138.8 0 0 0-69.5.5c-6 1.3-15.2 2.8-20.2 3.2-8.1.6-9.3.4-9.3-.9 0-8.4 11.8-89.7 17.6-122 25.8-141.4 60.3-194.9 119.2-184.6 11.8 2.1 14.5 2 16.5-.2 2.3-2.5 2.2-8.5-.2-10.6-4.6-4.2-32.7-6.8-45.2-4.2zm206.3 149.9c-6.1 6.5.2 13.7 15 17.2 9.6 2.3 17.3 2 19.8-.7 5.4-5.8.2-12.8-9.5-12.8-4.1 0-13.5-2.8-15.6-4.6-2.4-2.2-7.3-1.7-9.7.9zm-11.1 186.3c-2.4 3.1-2.7 6.1-.7 8.9a136 136 0 0 0 14.9 11.5l13.6 9.4-9.2 3.1a290.8 290.8 0 0 0-37.5 16.4c-10.5 5.4-11.3 5.7-11.6 3.7-4.8-25.7-12.3-39.2-27-48.7-7.1-4.7-11.7-5.7-15-3.6-5.6 3.7-4 10.4 3.3 14.2a36.5 36.5 0 0 1 15 13.3c7.1 11.1 9.2 22 10 53 .6 24.1.6 24.4 3 26.3 3 2.5 6.2 2.4 9.5-.2l2.6-2v-33.4l10.3-5.7c18.7-10.5 48.1-22.3 60.3-24.3 3.7-.6 4.5-.2 10.1 3.9 16.5 12.4 21.2 21.9 22.2 44.9.6 14 .8 15 3 16.8 3 2.5 6.2 2.4 9.5-.2 2.6-2 2.6-2.2 2.6-14.7-.1-32.8-8.9-46.6-45.2-70.6-9.8-6.4-21.9-14.6-26.9-18.1-10.4-7.3-13.5-8.1-16.8-3.9z"/>
</svg>
