<svg xmlns="http://www.w3.org/2000/svg" viewBox="0 0 512 512" fill="currentColor">
  <path d="M257.8-.62c5.35 1.5 8.33 8.26 10.9 12.84l1.24 2.28 1.31 2.39c8.21 15.16 15.2 31.22 11.13 48.78-2.8 6.41-9.1 10.62-15.38 13.33h-3v26c7.02-.16 7.02-.16 14.03-.36l2.67-.03 2.71-.06c3.62.63 5.06 1.78 7.59 4.45.48 3.03.63 5.5.57 8.53v2.6c0 2.84-.04 5.68-.08 8.51l-.02 5.9c-.02 5.18-.07 10.35-.13 15.53-.06 6.2-.08 12.42-.1 18.63-.06 9.43-.15 18.87-.24 28.3h55l-.1-19.73-.05-12.37c-.01-6.55-.04-13.1-.08-19.64-.03-5.28-.05-10.56-.05-15.84l-.04-6.04c-.02-2.82-.02-5.64-.02-8.46l-.03-2.52c.02-4.62.37-7.65 3.37-11.4 2.89-1.44 4.8-1.38 8-1 2.69 1.98 4.67 3.57 5.45 6.93.17 2.37.17 4.7.12 7.08v2.72c0 2.96-.04 5.92-.08 8.88l-.02 6.17c-.02 5.4-.07 10.8-.13 16.21-.05 5.52-.07 11.03-.1 16.55-.05 10.82-.13 21.64-.24 32.46l2.07.18 2.72.26 2.7.25c8.48 1.06 16.2 5.75 22.51 11.31l1.83 1.59c8.55 7.93 14.7 19.5 15.26 31.32.03 2.34.03 4.67.02 7.01v2.7a3595.76 3595.76 0 0 1-.02 14.87l-.02 16.04-.02 16.37L409 331l1.86-.02 2.44-.02 2.42-.02c10.44.3 21 6.78 28.47 13.69 9.49 10.06 14.33 22.23 14.15 35.95v2.72a4823.88 4823.88 0 0 0-.06 14.94c-.01 5.37-.04 10.73-.07 16.1A11081.7 11081.7 0 0 1 458 463c.62-.02 1.25-.02 1.9-.03 6.58-.07 13.14-.11 19.71-.14l7.36-.07 10.57-.06 3.33-.05h3.1l2.72-.02c2.78.44 3.66 1.1 5.3 3.36 1.61 11.05-.71 20.9-7.31 29.81-6.49 7.7-14.53 14.23-24.69 16.19-2.5.1-4.96.14-7.46.13l-2.3.01h-7.65l-5.54.02-15.23.01-16.41.03-39.67.04-18.67.01a131074.02 131074.02 0 0 1-66.08.04h-14.12c-21.62.01-43.25.04-64.87.07-22.87.03-45.73.05-68.6.06-12.46 0-24.93 0-37.4.03-10.6.03-21.22.03-31.83.02-5.42 0-10.83 0-16.25.02-4.96.02-9.92.02-14.88 0-1.79 0-3.58 0-5.37.02-15.29.09-26.12-2.29-37.38-13.17-7.02-7.57-10.41-16.2-10.54-26.4l-.08-3.73C0 466 0 466 1.21 464.32c2.38-1.76 3.86-1.68 6.81-1.66h3.1l3.33.05 3.42.01c3.6.02 7.21.05 10.82.1l7.33.03c6 .04 11.99.09 17.98.15l-.03-3.41c-.08-10.65-.14-21.3-.18-31.95-.02-5.48-.05-10.95-.1-16.43-.04-5.29-.06-10.58-.07-15.87 0-2.01-.02-4.02-.04-6.03-.19-17.6 2.29-31.57 14.6-45.06 8.23-7.67 19.14-13.34 30.49-13.28l2.45.02 1.88.01-.02-3.37c-.06-10.54-.1-21.07-.14-31.6-.01-5.42-.03-10.83-.07-16.25-.03-5.23-.05-10.46-.05-15.7l-.04-5.96c-.14-18.7 1.76-32.75 15-46.83 7.66-7.58 16.63-12.85 27.53-13.85l2.72-.26L150 197v-2.25a32713.18 32713.18 0 0 1-.23-80.5c-.03-7.62-.05-15.24-.05-22.86 0-4.04-.02-8.08-.04-12.11-.02-3.8-.02-7.6-.02-11.4 0-1.4 0-2.79-.02-4.18v-8.94c.41-3.15 1.15-4.5 3.36-6.76 3.8-1.27 5.55-1.17 9.31.25C165 50 165 50 166 53c.1 1.94.12 3.88.12 5.83v3.68a30052.52 30052.52 0 0 1 0 8.3l-.02 11.57v12.09l-.03 22.88-.02 26.05L166 197h55l-.18-19.1-.06-11.99c-.03-6.33-.07-12.67-.14-19.01-.05-5.11-.08-10.22-.1-15.33 0-1.95-.02-3.9-.05-5.85a579.6 579.6 0 0 1-.04-8.19l-.05-2.45c.03-3.93.24-5.68 3-8.58 2.94-1.68 4.56-1.97 7.92-1.9l2.67.04 3.34.11L248 105V79l-5-1c-5.56-2.88-10.37-6.2-13-12-5.26-20.1 4.25-38.07 13.93-55.2C250.3.05 250.3.05 257.8-.62ZM256 24c-6.81 8.73-12.44 19.26-12.36 30.48.59 4.12 2.31 5.76 5.36 8.52 3.62 1.2 6.2 1.32 10 1 4.34-2.25 7.13-4.44 9-9 1.57-11.18-5.64-21.65-11-31h-1Zm-19 97v15h38v-15h-38Zm0 31v14h38v-14h-38Zm0 30v15h38v-15h-38Zm-112.45 45.7A23.14 23.14 0 0 0 120 242c1.98 1.53 1.98 1.53 4.56 2.75 8.36 4.76 12.5 11.26 17.38 19.31 4.37 7.2 8.33 13.5 16.75 16.06 4.58-.17 6.84-1.8 10.19-4.8 3.13-1.94 5.52-1.71 9.12-1.32 2.72 1.63 2.96 2.86 3.81 5.94.2 3.33-.06 4.3-1.81 7.06-6.69 5.7-13.89 8.53-22.68 8.23-9.25-.93-15.21-5.38-21.32-12.23-3.2-4.27-6.05-8.78-8.9-13.3a122.3 122.3 0 0 0-7.1-9.7h-1v71h274v-71c-4.4 4.38-4.4 4.38-7.87 9.18l-1.5 2.32-3 4.73c-5.53 8.55-11.57 15.4-21.61 18.35-7.86 1.63-14.88-.08-22.02-3.58-4.21-2.89-7-6.4-9.88-10.56l-1.3-1.86a217.5 217.5 0 0 1-9.15-14.28A22.93 22.93 0 0 0 308 257c-3.81-.53-6.45-.78-9.92.96-5.75 4.47-9.25 10.68-13.08 16.76-5.71 9.08-11.53 17.23-22.54 19.9-8.73 1.36-16.19-.15-23.52-5.12-5.95-4.78-9.9-11.31-13.98-17.67-5.7-9.69-5.7-9.69-14.93-15.32-3.86-.25-6.34.48-9.6 2.55-4.11 2.32-5.94 2.17-10.43.94-2.45-2.45-2.77-3.57-3-7 1.22-4.51 3.34-6.57 7.25-8.88 7.47-3.36 15.87-3.6 23.69-1.23 9.02 4.14 14.57 11.31 19.62 19.61 5.69 9.64 5.69 9.64 13.88 17 3.57.7 6.04.43 9.56-.5 5.9-4.04 9.16-9.4 12.94-15.38 11.95-18.9 11.95-18.9 23.06-21.62 9.28-1.08 17.37-.74 25 5 5.58 4.86 9.22 10.86 13 17.13 4.36 7.19 8.3 13.33 16.63 16.06 5.5-.3 8.58-3.16 12.18-7.06 2.87-3.48 5.23-7.26 7.63-11.07 5.68-8.97 10.75-15.43 20.56-20.06-.74-8.92-4.24-15.01-10.7-21.17-7.34-5.85-14.72-7.98-23.95-7.98h-2.7a3746.99 3746.99 0 0 0-15.48-.05 11207.11 11207.11 0 0 0-28.55-.05l-34.34-.04c-13.21-.01-26.42-.04-39.64-.08-10.2-.03-20.42-.04-30.63-.05-6.1 0-12.2 0-18.3-.03-5.74-.03-11.48-.03-17.23-.02-2.1 0-4.2 0-6.3-.02-17-.1-28.06 1.54-39.63 15.2ZM77.54 357.98A41.11 41.11 0 0 0 70 374l2.45 1.17 3.24 1.58 3.2 1.55c10.53 5.76 16.37 16.46 22.61 26.32 8.26 13.71 8.26 13.71 21.5 21.38 6.38.2 11.07-.73 16-5 5.75-5.91 10.12-12.54 14.5-19.5 7.36-11.7 14.47-22.75 28.44-26.88 10.2-1.96 19.31-.63 28.28 4.7 8.16 5.75 13.63 13.62 18.72 22.06 8.51 15.08 8.51 15.08 22.3 24.25 5.92 1.03 10.21.1 15.4-2.9 7.3-5.37 11.54-13.58 16.24-21.17 7.52-12.13 14.86-21.57 28.5-26.87 10.45-1.98 20.01-.69 29.18 4.81 8.78 6.32 14.24 15.57 19.77 24.64C368.64 418 368.64 418 382 426c7.52.11 12.15-1.42 17.72-6.6 4.93-5.08 8.57-10.85 12.28-16.84 8.05-12.94 15.19-23 30-28.56-2.62-9.63-7.07-16.98-15.46-22.66-9.58-5.16-19.6-5.64-30.3-5.6h-25.31c-7.29-.02-14.58-.02-21.87-.01h-25.5l-48.25.01h-41.37a45742.11 45742.11 0 0 0-53.21 0h-2.55l-17.76-.01a9614.13 9614.13 0 0 0-32.69 0c-3.99 0-7.98 0-11.98.02l-3.5-.02c-13.09.07-25.44 2.24-34.71 12.24ZM176 396c-1.67 2.1-3.23 4.17-4.75 6.38l-1.3 1.85a258.85 258.85 0 0 0-7.4 11.25c-7.37 11.77-15 21.72-29.16 25.15-9.5 1.46-19.04-.02-27.13-5.48-8.95-7.67-15.22-17.36-21.26-27.34-3.9-6.43-8.13-12-14-16.81h-1v72l27.6.04a106077.72 106077.72 0 0 1 100.9.22h2.72c14.58.04 29.17.07 43.75.09 14.95.02 29.9.06 44.86.1 9.24.03 18.47.04 27.7.05 6.33 0 12.66.02 18.98.05l10.96.02c3.96 0 7.9.01 11.86.03l3.53-.01 3.2.03h2.76l2.18.38c2.46 3.69 2.31 5.64 2 10-2 3-2 3-3.75 3.68-2.76.4-5.42.45-8.2.46l-3.73.02a32230.15 32230.15 0 0 1-8.43.01l-11.94.03c-4.3 0-8.59.02-12.88.04l-22.31.05-32.26.08a127116.69 127116.69 0 0 1-103.18.26h-3.17l-15.72.05L17 479l1.9 3.88 1.06 2.18c3.1 5.8 9.02 8.86 15.04 10.94a65.1 65.1 0 0 0 13.43 1.13h9.56l5.31.01h14.62l15.76.02a41003.86 41003.86 0 0 0 55.98.01l71.14.02h7.75c20.75 0 41.5 0 62.26.02a89428.87 89428.87 0 0 0 99.79.03 19575.52 19575.52 0 0 0 46.14.01 4094.93 4094.93 0 0 0 19.43 0c18.12.18 18.12.18 33.37-8.73 2.6-2.96 4.09-5.86 5.46-9.52l-3.42-.02a16707.85 16707.85 0 0 1-48.32-.4 5195.39 5195.39 0 0 1-21.88-.18l-8.46-.08h-2.52c-4.2-.07-7.63-.24-11.4-2.32-1.5-3.02-1.18-5.67-1-9 2-3 2-3 3.83-3.4l2.25-.03 2.59-.06 2.71-.02 2.5-.05c3.08-.06 6.16-.1 9.25-.13L442 463v-71c-8.73 4.36-13.35 12.93-18.44 20.94-7.95 12.5-15.7 23.95-30.8 27.56-9.53 1.74-18.12-.01-26.38-5.13-9.08-6.57-14.66-15.57-20.55-24.92-8.05-13.37-8.05-13.37-20.83-21.45-6.43-.54-10.69.3-16 4-6.12 5.92-10.62 12.75-15 20-7.22 11.94-14.94 23.26-29 27.38-11.33 2.2-21.14-.1-30.7-6.4-6.86-5.92-11.5-13.17-16.18-20.86-8.75-15.26-8.75-15.26-23.12-24.12-7.95-1.06-13.16 1.9-19 7Z"/>
  <path d="M384 131c5.36 2.68 9.74 6.99 13 12 .64 3.85.52 5.84-1.06 9.38-2.95 2.47-5.13 2.62-8.94 2.62-5.26-2.63-11.31-7.62-14-13-.36-3.84-.55-6.15 1.56-9.44 3.41-2.18 5.45-2.11 9.44-1.56Zm-52 1c3.12 2.13 3.86 3.47 4.81 7.13-1.43 6.8-6.79 11.78-12.42 15.67-3.26 1.64-4.95 1.3-8.39.2-3.12-2.13-3.86-3.47-4.81-7.13 1.43-6.8 6.79-11.78 12.42-15.67 3.26-1.64 4.95-1.3 8.39-.2ZM136 79c2.44 2.13 2.44 2.13 4 5-.12 5.03-1.13 7.88-4.7 11.48l-1.49 1.4-1.42 1.46c-3.29 3.22-5.8 4.5-10.39 4.66-4.57-2.13-4.57-2.13-6-5-.58-3.61-.67-6 1.42-9.1 1.8-2.05 3.65-3.98 5.58-5.9l2.25-2.44c3.49-3.11 6.47-2.78 10.75-1.56Zm252.31-9.81C392 70 392 70 394.5 71.5c1.63 2.72 2.48 4.93 2.36 8.13C394.87 85.1 388.2 91.4 383 94c-3.56.39-5.34.46-8.31-1.63-2.09-2.93-2.62-4.77-2.69-8.37 3.16-6.12 8.83-14.48 16.31-14.81ZM324 71a36.32 36.32 0 0 1 5.31 4.94l2.62 2.71c2.6 2.95 3.03 3.76 3.32 7.72-.25 3.63-.25 3.63-1.31 6C330.86 94.95 329 95.2 325 95c-3.1-1.93-5.5-4.37-8-7l-1.88-1.78c-3.09-3.15-4.1-4.4-4.18-8.97 1.45-4.44 1.45-4.44 4.06-6.25 3.63-1.2 5.33-1.02 9 0ZM192.06 16.38c3.94.62 3.94.62 6.44 2.75 1.84 3.53 2.35 4.94 1.5 8.87a54.75 54.75 0 0 1-7 8l-1.59 1.62c-2.42 2.27-4.21 3.34-7.47 4-4.03-.85-5.5-2.33-7.94-5.62-.75-2.81-.75-2.81 0-6a66.25 66.25 0 0 1 7-8l2.44-3c2.62-2.05 3.44-2.4 6.62-2.63ZM188 78c3.02 2 5.48 4.4 8 7l1.65 1.55c2.74 2.8 3.35 4.18 3.35 8.14-1.44 4.78-1.44 4.78-4 6.31-3.19 1.13-3.19 1.13-7 1-3.05-1.97-5.46-4.42-8-7l-3-2.44c-2.07-2.64-2.38-3.42-2.56-6.62.56-3.94.56-3.94 2.12-6.44 3.55-2.18 5.33-2.25 9.44-1.5Zm-61-60c2.59 1.48 4.47 3.4 6.5 5.56l1.63 1.56c2.9 2.98 3.8 4.37 4.32 8.63C139 37 139 37 137.38 39.38c-3 2.03-4.75 2.62-8.38 2.62-5.26-2.68-11.3-7.6-14-13-.35-3.8-.53-6.14 1.5-9.44 3.45-2.15 6.59-2.3 10.5-1.56Zm30-15.56c3.88.72 5.32 1.64 8 4.56.72 3.18.65 6.25.56 9.5l.04 2.59c-.08 6.2-.08 6.2-2.48 9.45-2.53 1.74-4.04 2.38-7.12 2.46-3.49-1.62-4.84-2.76-7-6a92.72 92.72 0 0 1-.44-8.38l-.1-2.28c-.04-4.26.18-5.87 2.88-9.34C154 3 154 3 157 2.44Zm153.88 102.25 2.47-.09c5.97-.06 5.97-.06 9.19 2.13 1.62 2.53 2 3.86 1.96 6.83l.03 2.32c-.53 2.12-.53 2.12-2 3.87-3.8 1.88-7.35 1.69-11.53 1.63l-2.45.03c-3.5-.02-5.91-.08-9.05-1.72-2.42-2.73-2.44-5.13-2.5-8.69 3.1-6.8 7.02-6.23 13.88-6.31Zm86.5-.94 2.32-.06c3.43-.03 5.7 0 8.78 1.61 2.44 2.73 2.46 5.12 2.52 8.7-1.35 2.95-2.09 4.54-5 6-2.96.23-5.85.37-8.81.44l-2.45.14c-5.82.1-5.82.1-8.43-1.83-2.39-2.72-3.31-4.3-3.31-7.94 2.56-7.2 7.5-7.01 14.38-7.06Zm-282.5-52.12 2.14-.12c3.99-.07 5.77.33 8.95 2.8C128 57 128 57 128.57 60.55 128 64 128 64 126.55 66.18c-3.87 2.75-7.43 2.4-12.06 2.32l-2.59.05c-3.94-.03-6.2-.05-9.48-2.36-2.1-3.2-1.9-5.45-1.43-9.19 3.14-5.68 7.96-5.26 13.88-5.38Zm86.06-.82 2.17-.03c3.76-.02 6.77-.01 9.89 2.22 1.56 3.13 1.7 6.61 1 10-1.43 2.22-1.43 2.22-4 4-3.18.61-6.27.6-9.5.56l-2.59.07c-6.23-.01-6.23-.01-9.48-2.97-1.74-3.23-1.97-5.04-1.43-8.66 3.25-5.73 7.94-5.18 13.94-5.19ZM357 56c3.19 1.76 3.83 2.5 5 6 .15 2.46.22 4.92.25 7.38l.08 3.96c-.34 3.81-1.01 5.66-3.33 8.66-3.1 1.55-5.6 1.3-9 1-2.2-1.43-2.2-1.43-4-4-.6-3.18-.56-6.28-.5-9.5l-.05-2.59c.03-3.94.05-6.2 2.36-9.48 3.2-2.1 5.45-1.9 9.19-1.43Zm-98 193c2.31 1.06 2.31 1.06 4 3 1.11 4 1.44 6.09-.38 9.88C261 264 261 264 260 265c-7.16.46-7.16.46-9.94-1.06-1.65-3.01-1.94-5.52-2.06-8.94 2.58-5.65 4.92-6.49 11-6Zm98 1c1.94 1.06 1.94 1.06 3 3 .75 6.8.75 6.8-1.56 10.5-3.39 2.08-5.53 2.06-9.44 1.5-2.44-1.5-2.44-1.5-4-4-.61-2.8-.65-5.2 0-8 3.63-4.52 6.6-4.5 12-3Zm-193 0c1.94 1.06 1.94 1.06 3 3 .75 6.8.75 6.8-1.56 10.5-3.39 2.08-5.53 2.06-9.44 1.5-2.44-1.5-2.44-1.5-4-4-.61-2.8-.65-5.2 0-8 3.63-4.52 6.6-4.5 12-3Zm226 141c2.2 1.6 2.9 2.47 3.4 5.16l-.02 2.34.02 2.34c-.5 2.66-1.3 3.52-3.4 5.16-3.02 1.03-4.6 1.11-7.69.25C380 405 380 405 378 402c-.42-3.84-.55-6.11 1.5-9.44 3.75-2.34 6.11-2.05 10.5-1.56Zm-130 0c2.56 2.06 2.56 2.06 4 5-.06 3.52-.28 5.92-2.25 8.88-2.32 1.49-4 1.92-6.75 2.12-2.9-.74-4.47-1.35-6.38-3.69a14.55 14.55 0 0 1 1.44-11.25c3.22-1.76 6.43-1.8 9.94-1.06Zm-131.94-.34c1.94.34 1.94.34 4.44 1.9 2.07 3.36 1.99 5.56 1.5 9.44-1.13 2.38-1.13 2.38-3 4-3.7 1.2-5.3 1.34-8.81-.38C120 404 120 404 119 403c-.2-1.96-.2-1.96-.25-4.38l-.08-2.4c.33-2.22.33-2.22 1.6-3.98 2.47-1.77 4.83-1.71 7.79-1.58Z"/>
</svg>
