<svg xmlns="http://www.w3.org/2000/svg" viewBox="0 0 512 512" fill="currentColor">
  <path d="M260 0c3.33 1.4 6.28 3.3 9.31 5.25l2.64 1.64c2.7 1.69 5.37 3.4 8.05 5.11l4.79 3.01c3.13 1.97 6.26 3.95 9.38 5.94 4.98 3.16 10 6.26 15.02 9.36a4107 4107 0 0 1 22.5 14c9.5 5.95 19.04 11.84 28.6 17.7 8.25 5.08 16.46 10.2 24.67 15.35C392.3 81.94 399.64 86.48 407 91c9.47 5.81 18.9 11.67 28.31 17.57a6049.4 6049.4 0 0 0 21.72 13.5c8.04 4.97 16.06 9.98 24.07 15l2.9 1.81 2.56 1.6c1.69 1.05 3.4 2.06 5.13 3.03C494 145 494 145 496 148c.22 3 .33 5.9.34 8.9 0 .88 0 1.75.02 2.65l.01 5.55c0 2.82.04 5.65.08 8.48l.01 5.38.04 2.57-.01 2.4v2.1c-.74 2.98-2.04 4.14-4.49 5.97-3.02.4-3.02.4-6.25.25l-3.27-.1c-.82-.06-1.64-.1-2.48-.15l.03 3.47c.08 10.77.14 21.54.18 32.3a3771 3771 0 0 0 .1 16.62c.04 5.34.06 10.69.07 16.03 0 2.04.02 4.08.04 6.12.03 2.85.04 5.7.03 8.56l.05 2.56c-.04 5.87-.04 5.87-2.53 8.45L476 288c-.36 3.3-.36 3.3.1 7.1l.18 2.22a4635.8 4635.8 0 0 1 1.25 13.58c.52 5.65 1.06 11.28 1.61 16.92l1.1 11.3c1.03 10.71 2.07 21.42 3.12 32.12a11248.65 11248.65 0 0 1 2.63 27.21c2.2 22.34 2.2 22.34 2.4 31.44.05 1.66.05 1.66.08 3.36-.6 3.47-1.72 4.62-4.47 6.75-3.98 1.1-7.9 1.46-12 2v22l7.73-.14 7.43-.08 5.16-.08c2.47-.05 4.94-.07 7.41-.1l2.33-.05c3.3 0 5.56.23 8.42 1.91 2.27 3.8 2.1 7.2 2.05 11.54l.01 2.64c0 1.85 0 3.69-.02 5.53-.02 2.82 0 5.64.03 8.45l-.02 5.38.03 2.55-.04 2.39-.01 2.09c-.78 3.02-2.04 4.07-4.51 5.97-2.91.4-5.44.54-8.35.5l-2.6.02c-2.87.02-5.76 0-8.64-.01-2.08 0-4.16 0-6.24.02h-17.19c-6.17-.02-12.34 0-18.51 0-11.4.03-22.8.02-34.2.01a22420.2 22420.2 0 0 0-42.2 0c-26.6.01-53.18 0-79.76-.02-23.63-.02-47.26-.02-70.9 0a62545.75 62545.75 0 0 1-88.09.02H97.64c-11.96.02-23.93.01-35.9 0-6.1-.02-12.21-.02-18.32 0-5.59 0-11.17 0-16.76-.03l-6.08.01c-2.74.01-5.48 0-8.23-.02l-2.41.03c-3.58-.05-5.55-.23-8.43-2.44-1.66-2.3-2.01-3.35-2.03-6.15l-.04-2.39.03-2.55-.01-2.64c0-1.85 0-3.69.02-5.53.02-2.82 0-5.64-.03-8.45l.02-5.38-.03-2.55c.06-3.61.2-5.85 2.08-8.99 3.52-2.07 6.77-1.96 10.75-1.85l2.4.02c2.53.02 5.05.07 7.58.12l5.15.05c4.2.05 8.4.12 12.6.2v-22l-5.75-.75c-4.84-.63-7.19-1.38-10.25-5.25-2.38-13.13 1.12-28.62 2.42-41.73.35-3.47.68-6.94 1.01-10.41l1.91-19.66a27233.22 27233.22 0 0 0 4.64-47.6l.92-9.48.34-3.42c.28-2.9.53-5.8.76-8.7l.2-2.16c.18-2.04.18-2.04-.2-4.84l-1.97-1.88c-3.16-3.3-2.56-6.62-2.48-11.02v-2.72c0-2.97.03-5.93.06-8.9l.02-6.17c.01-5.4.05-10.82.1-16.23.04-5.53.05-11.05.07-16.57.05-10.84.12-21.67.2-32.51l-2.48.14-3.27.11-3.23.14C20 192 20 192 17.64 190.24c-1.75-2.39-2.15-3.38-2.17-6.29l-.05-2.37.01-2.54-.02-2.64.01-5.52c.02-2.8-.02-5.6-.05-8.42v-5.36l-.04-2.54c.07-4.24.25-6.02 2.95-9.46a62.71 62.71 0 0 1 6.92-4.8l2.38-1.4 2.55-1.46 5.41-3.2 2.77-1.63a507.7 507.7 0 0 0 12.13-7.55c6.55-4.17 13.14-8.3 19.75-12.37a4107 4107 0 0 0 22.5-14c9.5-5.95 19.04-11.84 28.6-17.7 7.26-4.47 14.5-8.97 21.71-13.49 8.3-5.2 16.64-10.37 25-15.5 9.47-5.81 18.9-11.67 28.31-17.57 7.23-4.52 14.47-9.01 21.72-13.49 8.13-5.03 16.23-10.1 24.33-15.18l2.93-1.84c1.3-.8 1.3-.8 2.61-1.64C251.94-.19 255.32-.73 260 0Zm-6.95 18.92-2.24 1.48-2.57 1.68-2.8 1.86-6.01 3.9-3.2 2.08a802.18 802.18 0 0 1-16.1 10.02A2955.1 2955.1 0 0 0 195 55.5c-8.3 5.2-16.64 10.37-25 15.5-9.47 5.81-18.9 11.67-28.31 17.57-7.24 4.53-14.5 9.03-21.77 13.52a3569.8 3569.8 0 0 0-19.6 12.22 3955.87 3955.87 0 0 1-40.84 25.22A254.1 254.1 0 0 0 54 143v1h90l2-6c2.46-1.23 4.26-1.2 7-1.32l3-.12 3.13-.12 3.15-.13L170 136l-.49-2.56c-.82-5.5-.73-11-.75-16.55-.01-2.08-.04-4.17-.07-6.26l-.02-3.99-.03-3.64c.36-3 .36-3 1.37-4.89 3.22-1.8 6.58-1.56 10.17-1.54l2.46-.02h5.16c2.6.01 5.19-.02 7.78-.05 11.62-.05 22.35.78 31.98 8.06l2.38 1.76c1.8 1.47 3.45 3 5.06 4.68 1.97-.97 3.9-1.95 5.8-3.07 7.31-3.95 15.14-3.9 23.2-2.93a39.88 39.88 0 0 1 7.98 3.9c2.22 1.42 2.22 1.42 6.02 1.1 1.64-1.12 1.64-1.12 3.13-2.69 8.44-7.66 18.6-10.62 29.76-10.61l2.5-.01h5.2c2.67 0 5.32-.03 7.98-.05h5.07l2.4-.03c2.96.02 5.35.05 7.96 1.5 1.52 2.87 1.35 5.3 1.33 8.53l-.02 4-.03 2.07c-.03 2.08-.04 4.16-.05 6.25-.04 5.77-.15 11.34-1.23 17.04l1.97.04c2.95.08 5.9.18 8.84.27l3.1.07 2.98.1 2.75.09c2.82.51 3.7 1.13 5.36 3.43l1 4h90a98.48 98.48 0 0 0-9.82-7.1c-.94-.6-1.87-1.17-2.83-1.77l-3.04-1.88-3.2-1.99a6107.2 6107.2 0 0 0-26.4-16.28c-8.25-5.07-16.46-10.2-24.67-15.34C380.7 95.06 373.36 90.52 366 86c-9.47-5.81-18.9-11.67-28.31-17.57-6.39-4-12.78-7.97-19.19-11.93-7.41-4.58-14.8-9.19-22.19-13.81a5393.42 5393.42 0 0 0-35.96-22.35c-3.52-2.19-3.52-2.19-7.3-1.42ZM184 112c-.13 11.86 1.46 21.56 9.57 30.78 1.37 1.44 1.37 1.44 3.43 1.22l1.07-2.41c4.41-9.49 8-14.3 17.87-17.97 1.68-.55 3.37-1.1 5.06-1.62v-2c-11.06-8.83-23.6-8.3-37-8Zm107 8v2l2.13.63c8.04 2.61 14.27 5.66 18.47 13.27 1.23 2.67 2.36 5.35 3.4 8.1 5.2-2.11 7.3-6.3 10-11 2.34-5.56 3.06-11.22 3.02-17.23L328 112c-19.66-.57-19.66-.57-37 8Zm-45 5c-1.59 3.2-1.59 3.2-2.69 6.69-2.12 6.22-2.12 6.22-4.31 7.31-1.88.13-1.88.13-4 .13h-2.13C231 139 231 139 229 138c-4.8-.13-8.12.3-11.94 3.31-3.11 4.06-4.08 5.36-4 10.63.67 4.33 2.66 6.17 5.94 9.06 2.49 3.15 3 4.5 3 8.56-1.2 4.14-2.6 4.93-6 7.44-2.83 4.15-3.49 7.26-2.64 12.1 1.29 3.8 4.13 5.84 7.3 8.07 4.07 1.45 8.37.5 12.58.02 5.27-.48 5.27-.48 7.64.94 1.42 2.36 2.19 4.68 3 7.3 1.17 3.31 2.06 5.49 4.25 8.26A19.78 19.78 0 0 0 261 215c4.6-2.8 6-5.66 7.69-10.69 2.12-6.22 2.12-6.22 4.31-7.31 4.2-.14 7.94-.04 12.06.75 4.83.3 7.33-.6 10.94-3.75 2.46-3.38 3.25-5.95 3-10.06-.72-4.24-2.8-6.11-6-8.94-2.49-3.15-3-4.5-3-8.56 1.2-4.14 2.6-4.93 6-7.44 2.83-4.15 3.49-7.26 2.64-12.1-1.32-3.9-4.28-5.98-7.58-8.21-3.45-1.15-6.78-1.33-10.06.31-7.35.47-7.35.47-9.64-1.18-1.72-2.3-2.4-4.5-3.24-7.26-1.17-3.3-2.06-5.48-4.25-8.25-6.62-3.02-12.69-2.56-17.87 2.69Zm-86 27c-.12 10.94.95 20.17 8 29 8.7 8.55 17.1 10.43 29 11l-.14-2.02c-.26-6.59.7-11.5 3.26-17.57 1.1-2.6 1.1-2.6.88-6.41l-3.1-1.57-4.09-2.12-2.04-1.03c-3.36-1.75-5.74-3.25-8.45-5.99-4-3.94-8.01-3.4-13.45-3.38l-2.18.03-2.25.01-5.44.05Zm165.81 5.25c-4.9 4-10.2 6.88-15.81 9.75l.9 2.2c3.05 7.75 4.58 14.44 4.1 22.8 10.3-.35 19.66-1.88 27.4-9.18 8.15-9.27 9.73-18.88 9.6-30.82-2.54-.05-5.08-.1-7.63-.13l-2.16-.05c-6.53-.06-11.33 1.08-16.4 5.43ZM32 160v16h114l-2-16H32Zm336 0-2 16h114v-16H368ZM48 192v71c15.78-13.53 26.32-28.16 32.35-48.19.5-1.62 1.07-3.22 1.65-4.81 3.12-1.56 6.6-1.56 10-1 2.05 1.5 2.86 2.46 3.5 4.92.42 16.08-9.88 32.08-19.35 44.26A144.8 144.8 0 0 0 70 267a70.98 70.98 0 0 0 18.19-6l2.5-1.2c25.12-12.43 44.54-33.91 55.31-59.8l2-8H48Zm316 0c8.75 29.17 27.94 51.58 54.43 66.18 7.49 3.9 15.13 7.71 23.57 8.82a155.44 155.44 0 0 0-8.25-11.44c-8.98-11.94-17.2-26.21-17.18-41.5.54-2.6 1.29-3.51 3.43-5.06 1.94-.4 1.94-.4 4-.38l2.06-.02c2.52.52 3.28 1.46 4.94 3.4.96 2.75 1.81 5.46 2.63 8.25 5.63 17.81 16.14 30.89 30.37 42.75v-71H364Zm-200 8a993.59 993.59 0 0 0-5.9 11.9c-9.37 19.22-21.27 36.65-38.81 49.3A1237520839.09 1237520839.09 0 0 1 114 265a90794.98 90794.98 0 0 0 10.72 62.16 2343.14 2343.14 0 0 0 8.17 45.19c3.75 20.09 3.75 20.09.61 26.9-5.97 6.56-11.73 12.1-20.92 12.98-2.54.06-5.05.03-7.58-.04l-2.64-.04L96 412l-.23 2.01-.4 2.68-.35 2.63C94 422 94 422 88 427v37h336v-37l-6-5c-1.02-2.68-1.02-2.68-1.38-5.31l-.4-2.68L416 412l-3.84.14c-12.73.33-20.93-.38-30.5-9.43-4.67-4.8-4.88-8.13-4.82-14.61.26-5.16 1.19-10.14 2.15-15.2l.64-3.51 1.38-7.47 2.17-11.81c2.03-11.2 4.07-22.39 6.15-33.57 1.15-6.2 2.28-12.4 3.4-18.6l1.8-9.81c.69-3.64 1.35-7.28 2-10.93l.63-3.27c1.18-5.56 1.18-5.56-.93-10.52L394 262l-2.16-1.72-2.34-1.78c-19.42-15.51-31.98-35.73-41.5-58.5l-2.92 1.28-3.83 1.66-1.92.84c-5.22 2.26-9.2 3.33-14.87 3.36l-3.26.06c-2.24.03-4.48.05-6.72.05-6.63.15-10.9 1.04-16.5 4.61-2.83 1.63-5.45 1.78-8.67 1.95-4.55.5-4.55.5-8.26 2.9a72.8 72.8 0 0 0-2.8 4.26c-3.22 5.23-8.5 8.17-14.25 10.03-9.35 1.14-18.3.93-26-5a64.13 64.13 0 0 1-9-11c-2.82-.63-5.6-.89-8.47-1.18-3.3-.76-5.26-1.72-8.16-3.36-5.91-3.08-11.2-3.08-17.75-3.02-8.97-.13-16.43-.5-24.62-4.44l-2.04-.93A73.46 73.46 0 0 1 164 200Zm-71.13 77-2.19 1.13L89 279a89872.62 89872.62 0 0 0 2.14 43.18c1.18 23.95 2.45 47.89 3.86 71.82 7.12 2.47 13.6 3.58 20.63.31 2.7-2.64 2.93-3.65 3.37-7.31-.13-2.3-.13-2.3-.6-4.63l-.47-2.73-.54-2.95-.56-3.14-1.85-10.27-1.28-7.14-3.38-18.8-3.43-19.11-5.02-27.92-.53-2.95-.5-2.73-.42-2.36A444.2 444.2 0 0 0 99 275c-2.52 0-3.89.85-6.13 2ZM413 275l-.54 3-7.67 43-.51 2.85a72473.56 72473.56 0 0 1-3.5 19.58 2789.2 2789.2 0 0 1-7.06 38.5l-.5 2.63c-.25 2.74 0 4.8.78 7.44 3.62 3.53 6.6 4.27 11.5 4.38 4.2-.07 7.54-1 11.5-2.38a39316 39316 0 0 0 3.51-63.2 11930.03 11930.03 0 0 0 1.49-26.7l.57-10.33.18-3.1a18958208959.72 18958208959.72 0 0 1 .29-5.31A33.72 33.72 0 0 0 422 278l-9-3Zm26 9a64095.71 64095.71 0 0 0-4.49 83.83l-.4 7.47a1840.35 1840.35 0 0 0-1.47 31.59l-.11 3.35c.62 3.61 1.99 4.74 4.85 6.95 2.73 1.56 2.73 1.56 5.62 2.81l2.71 1.26a44.17 44.17 0 0 0 19.1 3.8l3.52-.02L471 425a9385.96 9385.96 0 0 0-8.73-95.06 25422.62 25422.62 0 0 0-2.49-26.03l-.2-2.08c-.12-7.91-.12-7.91-2.58-14.83a61.1 61.1 0 0 0-4.04-.75l-2.45-.4A1651573507.76 1651573507.76 0 0 0 439 284Zm-375.5 1.44-2.42.4c-3.86.37-3.86.37-7.08 2.16-.3 2.27-.55 4.54-.77 6.82l-.21 2.17-.7 7.22a11327.18 11327.18 0 0 1-1.8 18.77l-1.36 14.1-2.15 22.44a20419.93 20419.93 0 0 1-4.33 44.7l-.87 9-.25 2.6c-.3 3.08-.56 6.1-.56 9.18 14.4.85 25.33-2.52 37-11 1.8-1.8 1.14-4.48 1.14-6.91-.04-11.84-.81-23.67-1.45-35.5a28139.85 28139.85 0 0 1-1.36-25.44l-1.1-20.36C74.5 311.86 73.76 297.93 73 284c-3.14 0-6.4.9-9.5 1.44ZM440 437v27h16v-23l-16-4Zm-376.56 2L56 441v23h16v-27c-2.8 0-5.84 1.27-8.56 2ZM16 480v16h480v-16H16Z"/>
  <path d="M251.5 294.38c3.25 1.99 3.25 1.99 5.81.88L260 294l6.5-2.56 3.34-1.32c11.28-4 26.47-3.89 37.55.55 12.75 6.5 22.69 16.24 27.26 29.97 1.56 5.46 1.81 10.6 1.73 16.24l-.04 2.93c-.42 19.05-8.47 34.05-21.64 47.55-14.63 13.89-37.92 27.63-58.39 29.26-22.92-1.21-47.8-17.35-63.19-33.5C178.51 365.93 174.53 348 176 326c2.13-12.36 10.2-23.4 20.31-30.66 16.68-10.63 37.9-10.37 55.19-.96ZM199 316c-6.4 9.43-7.07 18.86-6 30 3.33 15.84 13.98 28.02 27 37.09 17.5 11.21 17.5 11.21 37.25 15.91 21.87-5.83 42.6-17.88 55.5-36.81a49.56 49.56 0 0 0 5.55-36.25c-3.54-9.77-10.1-15.42-19.3-19.94-8.52-2.95-19.3-1.66-27.44 1.71a87.45 87.45 0 0 0-10.17 6.12c-3.12 1.53-4.94 1.62-8.39 1.17a71.77 71.77 0 0 1-6.94-3.88c-15.3-9.59-34.67-9.22-47.06 4.88Zm68.44-170.5c5.82 3.52 10.54 8.99 12.56 15.5.8 7.84 1.12 15.62-4 22-4.8 5.05-9.16 8.6-16.27 9.34-8.52.09-14.4-.22-20.7-6.21-6.38-6.9-7.51-12.33-7.33-21.68.7-7.87 4.35-12 10.2-17 7.07-4.87 17.7-5.43 25.54-1.95Zm-16.81 17.13c-2.12 3.08-2.24 4.7-1.63 8.37 1.5 2.5 1.5 2.5 4 4 3.67.61 5.29.49 8.38-1.63 2.1-3.08 2.23-4.7 1.62-8.37-1.5-2.5-1.5-2.5-4-4-3.67-.61-5.29-.49-8.38 1.63Z"/>
</svg>
