<svg xmlns="http://www.w3.org/2000/svg" viewBox="0 0 512 512" fill="currentColor">
  <path d="M453.75 77.5c21.21 20.32 31.77 47.24 32.56 76.34l.1 6.3c.22 15.5.9 30.96 1.84 46.42l.18 3.06a1308.12 1308.12 0 0 0 5.36 60.89c.2 1.97.42 3.94.64 5.9.55 5.41.78 10.27-.43 15.59-2.41 2.56-5.04 3.55-8.36 4.61l-2.6.84-2.79.86-2.92.92c-10 3.07-20.12 5.6-30.29 8.03-3.13.76-6.26 1.54-9.4 2.32l-3.21.81-2.43.61 2.22.87 20.78 8.2c3.56 1.42 7.12 2.83 10.69 4.22a2202.05 2202.05 0 0 1 14.25 5.63c11.7 4.57 22.96 9.72 29.23 21.22 3.04 7.04 3.41 13.34 3.36 20.95l.01 3.7c0 2.55 0 5.11-.02 7.67-.02 3.92 0 7.85.03 11.77l-.02 7.48.03 3.56-.04 3.3-.01 2.89c-.67 3.32-1.82 4.53-4.51 6.54h-4l.02 2.73a10816.81 10816.81 0 0 1 .21 38.63c.03 4.22.05 8.44.05 12.66l.04 4.83c.02 2.25.02 4.51.02 6.77l.02 3.89c-.4 3.82-1.35 6.24-3.36 9.49-3.1 1.55-5.6 1.3-9 1-2.2-1.56-2.2-1.56-4-4a43.3 43.3 0 0 1-.45-7.43v-2.25c0-2.44.03-4.89.06-7.34l.02-5.09c.01-4.47.05-8.93.1-13.4.04-4.55.05-9.11.07-13.67.05-8.94.12-17.88.2-26.82h-20l.06 6.91c.07 7.54.11 15.07.15 22.61.02 4.57.05 9.14.1 13.7.04 4.42.06 8.83.07 13.23 0 1.69.02 3.37.04 5.05.03 2.36.04 4.71.03 7.07l.05 2.1c-.03 3.33-.3 5.07-2.31 7.77-3.18 2.26-5.38 2.04-9.19 1.56-3.19-1.76-3.83-2.5-5-6-.1-1.4-.14-2.8-.15-4.2l-.02-2.6v-2.82l-.03-3-.04-9.81-.01-3.38-.05-17.72c0-6.1-.04-12.21-.08-18.32-.03-4.69-.03-9.38-.04-14.07l-.03-6.75c-.03-3.15-.03-6.3-.02-9.45l-.04-2.82c.04-4.23.14-6.47 2.41-10.14 2.27-2.07 3.08-2.58 6.1-2.48h2c2 .56 2 .56 6 4.56v13h29c-.07-4.94-.16-9.89-.26-14.83l-.09-5.03c.46-15.83.46-15.83-6.37-29.37-5.8-4.33-13-6.6-19.72-9.14l-4.24-1.66c-3.43-1.34-6.87-2.66-10.32-3.97l-1.47 3.11C444.05 363.94 429.15 380.55 406 389a89.07 89.07 0 0 1-21 4l-2.18.16c-18.35.71-37.65-5.5-51.82-17.16l-2.36-1.9c-7.58-6.42-13.02-13.77-18.01-22.29l-1.05-1.76A26.48 26.48 0 0 1 306 339a1361.27 1361.27 0 0 0-25.19 9.56l-2.14.82c-5.73 2.3-9.36 5.09-12.28 10.71-1.78 4.35-1.87 8.48-1.9 13.12l-.06 2.6c-.05 2.7-.08 5.42-.12 8.13l-.1 5.54c-.09 4.5-.15 9.01-.21 13.52h28v-10c1.08-3.98 1.5-4.67 5-7 3.67-.4 6.02-.62 9.19 1.4 2.8 4.02 2.37 7.84 2.33 12.63l.02 3.09c.02 3.36 0 6.73 0 10.1v7.02c0 4.9 0 9.8-.02 14.7-.02 6.3 0 12.58.02 18.87v21.44c.02 3.24 0 6.48-.02 9.72l.02 2.91c-.08 6.46-.08 6.46-2.35 9.72-3.23 2.07-5.44 1.94-9.19 1.4-2.9-2.22-3.84-3.52-5-7-.09-2.35-.12-4.7-.11-7.04v-2.16a2327.9 2327.9 0 0 1 .02-11.96l.02-12.89.02-13.15.05-25.8h-19l.05 6.71c.05 7.33.08 14.65.1 21.98.02 4.44.04 8.88.08 13.32.03 4.28.05 8.57.05 12.85l.04 4.9c.02 2.3.02 4.59.02 6.88l.02 3.95c-.38 3.64-1.16 5.52-3.36 8.41-3.1 1.55-5.6 1.3-9 1-2.2-1.56-2.2-1.56-4-4a43.3 43.3 0 0 1-.45-7.43v-2.25c0-2.44.03-4.89.06-7.34l.02-5.09c.01-4.47.05-8.93.1-13.4.04-4.55.05-9.11.07-13.67.05-8.94.12-17.88.2-26.82l-2.36.1c-2.64-.1-2.64-.1-4.95-1.85-2.63-5.07-1.94-9.59-1.69-15.25h-20l.06 8.47c.07 9.24.11 18.47.15 27.7.02 5.6.05 11.2.1 16.8.04 5.4.06 10.8.07 16.2 0 2.06.02 4.12.04 6.18.03 2.89.04 5.77.03 8.66l.05 2.59c-.03 3.81-.05 5.77-2.31 8.93-3.22 2.16-5.4 2.01-9.19 1.47-2.76-2.1-3.86-3.3-4.54-6.73l-.06-3.2-.1-3.69-.04-4.03-.09-4.26a1418.05 1418.05 0 0 1-.25-18.9c-.08-6.77-.14-13.55-.18-20.33-.05-8.76-.13-17.52-.32-26.28C209.8 333.64 209.8 333.64 231 309c2.8-2.47 3.7-2.96 7.5-3.44 3.5.44 3.5.44 5.94 2 2.16 3.38 1.9 5.47 1.56 9.44a61.35 61.35 0 0 1-3.68 6.9l-2.32 4.03-1.21 2.13C228.28 348.8 226.76 364.84 228 386h20l-.14-5.08-.11-6.73-.1-3.34c-.13-10.71 2.37-19.58 9.33-27.88 6.87-6.72 16.5-10.07 25.27-13.6l3.76-1.53a2584.98 2584.98 0 0 1 16.26-6.56A6537.9 6537.9 0 0 1 328 311l-3.7-.91a4072.28 4072.28 0 0 1-19.72-4.94c-9.72-2.4-19.38-4.85-28.8-8.27l-1.97-.7c-3.67-1.4-5.95-2.66-7.81-6.18-1.5-8.14.67-17.5 1.54-25.7a1255.7 1255.7 0 0 0 4.08-47.05l.2-2.76c.75-11.52 1.3-23.05 1.7-34.6l.13-3.6c.2-5.8.38-11.6.53-17.41.41-14.36 1.54-27.84 6.5-41.44l.78-2.13C285.73 103.97 292.09 94.16 300 85l1.79-2.23C317.44 63.93 341 52.52 365 49l2.35-.37c32.24-4.04 62.65 7.34 86.4 28.87ZM316.57 90.4A88.32 88.32 0 0 0 300 114l-1.52 3.17c-7.34 16.12-7.92 30.42-7.48 47.83 14.32-1.19 24.92-4 35-15 2.73-3.44 5.26-7.01 7.74-10.63l1.16-1.7a77.44 77.44 0 0 0 2.96-5.04c2.14-2.63 2.14-2.63 5.52-3.72 4.34.1 6.03 1.1 9.56 3.59 16.55 10.93 34.85 14.9 54.04 19 41.11 8.77 41.11 8.77 53.14 25.75 8.87 13.7 8.8 32.67 5.7 48.25-4.9 19.3-14.53 36.53-29.82 49.5a454.01 454.01 0 0 1-6.56 3.81c-4.41 2.7-4.41 2.7-6.2 7.36 0 3.03.22 5.85.76 8.83 7.76-.58 15.12-2.36 22.64-4.27 2.09-.54 4.19-1.06 6.28-1.58A407.93 407.93 0 0 0 478 282l-.14-1.7-.2-2.43-.22-2.82-.52-6.53c-.47-5.99-.96-11.98-1.46-17.97a1464.55 1464.55 0 0 1-3.58-52.49l-.13-2.6c-.42-8.78-.78-17.55-.99-26.34-.44-18.44-1.1-35.02-8.76-52.12l-1.12-2.6c-10.23-22.24-29.64-37.17-52-45.72-32.24-11.62-68.13-1.63-92.31 21.71ZM347 148a18924.22 18924.22 0 0 0-6.64 8.1c-1.47 1.8-2.91 3.63-4.31 5.48-9.25 10.92-22.17 16.5-36.14 17.77-3.53.79-5.3 2.19-7.91 4.65-1.55 3.1-1.29 5.58-1 9 1.62 3.25 3 4.63 6.42 5.9 1.77.52 3.55 1 5.34 1.42C305 201 305 201 307 203c.44 1.96.44 1.96.71 4.37l.33 2.66.33 2.84c2.65 20.01 10.46 37.3 26.34 50.44 16.88 12.46 35.4 18.18 56.36 15.42 19.93-3.41 35.98-14 48.12-30.02 10.73-16.06 15.51-34.52 12.12-53.71-2.08-7.6-6.78-13.66-13.31-18a66.12 66.12 0 0 0-15.81-6.38l-2.27-.61c-8.35-2.22-16.79-4-25.22-5.85A221.93 221.93 0 0 1 347 148Zm-59 65a1185216156.22 1185216156.22 0 0 0-3.8 45.12l-.32 3.75c-.57 6.72-1.18 13.43-1.88 20.13 13.4 3.95 26.8 7.89 40.44 11l2.72.63c4 .89 7.7 1.64 11.84 1.37.79-3.89.97-7.13 0-11-3.53-3.68-7.75-6.22-12-9-19.42-15.02-28.83-37.2-32-61l-5-1Zm65 78-.11 2.75c-.39 7.16-.83 13.7-3.89 20.25l-.82 1.86c-5.05 8.97-19.11 12.78-28.18 16.14a61.79 61.79 0 0 0 11 21l1.4 1.9c9.52 12.16 24.7 19.28 39.7 21.57A66.15 66.15 0 0 0 420 363c10-8.6 16.9-18.12 20-31l-1.62-.62c-22.6-8.82-22.6-8.82-27.82-18.25-2.73-6.9-2.4-14.8-2.56-22.13l-2.16.4-2.9.54-2.85.52c-13.93 2.42-27.4 2.43-41.18-.8-2.9-.77-2.9-.77-5.91-.66Z"/>
  <path d="m113.5 12.82 2.51-.02 8.22-.04 2.85-.01 14.94-.05c5.12 0 10.24-.04 15.36-.08 3.95-.03 7.91-.03 11.87-.04 1.89 0 3.77-.01 5.66-.03 14.04-.13 25.15.58 35.81 10.75 3.3 3.9 5.39 8.2 7.64 12.77 1.89 3.37 3.84 5.08 6.87 7.36 7.17 6.38 11.26 16.3 12.03 25.73.08 3.57.08 7.13.04 10.7l.02 5.96c.01 4.86 0 9.71-.04 14.57v8.22c.01 2.57 0 5.14-.04 7.7.02 7.55.02 7.55 3.72 13.86L244 133c3.08 6.02 2.93 13.87 1.46 20.38-1.45 4.2-3.3 7.53-6.46 10.62l-2.34.97c-3.73 1.62-6.85 2.99-8.43 6.96-1.07 4.05-1.7 8.16-2.37 12.28-.99 6.05-3.2 11.3-5.86 16.79l-.93 2.12c-5.2 11.42-14.59 22.9-25.07 29.88-.5 2.32-.5 2.32-.51 5l-.1 3-.08 3.12-.1 3.16c-.08 2.57-.15 5.15-.21 7.72l2.83.31c5.11.74 10 2.23 14.96 3.67l3.1.9 6.44 1.9c3.29.97 6.58 1.91 9.87 2.85l6.28 1.85 2.97.84c5.47 1.66 9.04 3.07 12.55 7.68.71 3.78.28 5.47-1.5 8.87-2.77 2.36-4.38 2.78-8 2.57-5.3-.94-10.4-2.7-15.5-4.44l-1.28 3.49c-9.9 26.35-25.76 44.9-51.67 56.65-21.1 8.85-45.6 8.25-66.74.11A89.82 89.82 0 0 1 60 297a164.2 164.2 0 0 1-5-15c-4.38 1.23-8.75 2.49-13.12 3.75l-3.75 1.05-3.64 1.06-3.33.95c-5.6 2.1-9.94 5.12-13.16 10.19a55.03 55.03 0 0 0-2.32 16.16l-.03 2.34-.06 7.56-.06 5.28c-.05 4.61-.1 9.22-.13 13.83l-.17 16.63c-.09 8.4-.16 16.8-.23 25.2h38c.73-22.74-.07-37.1-11.27-56.7l-1.1-1.92c-1-1.7-2.03-3.4-3.06-5.09-1.91-4-2.35-6.87-2.57-11.29 1.44-3 1.44-3 4-5 2.82-.7 5.23-.92 8 0 3.55 3.9 5.78 8.14 8.07 12.82l1.12 2.24 2.32 4.68a1873.89 1873.89 0 0 0 5.81 11.7l1.08 2.16c2.47 5.03 3.72 8.64 3.74 14.23l.02 3.69a23973.38 23973.38 0 0 1 .02 8.31 5155.6 5155.6 0 0 1 .03 18.83c.02 7.54.03 15.1.03 22.64 0 8.71.02 17.42.05 26.14.02 6.73.03 13.47.03 20.2 0 4.02.01 8.05.03 12.07.01 3.78.02 7.57 0 11.35l.02 4.16v8.9c-.43 3.32-1.4 5.2-3.37 7.88-3.1 1.55-5.6 1.3-9 1-2.2-1.46-2.2-1.46-4-4-.57-3-.5-5.95-.45-9v-2.74c0-3 .03-6 .06-9l.02-6.23c.01-5.47.05-10.94.1-16.42.04-5.58.05-11.16.07-16.75.05-10.95.12-21.9.2-32.86H24l.06 8.47c.07 9.24.11 18.47.15 27.7.02 5.6.05 11.2.1 16.8.04 5.4.06 10.8.07 16.2 0 2.06.02 4.12.04 6.18.03 2.89.04 5.77.03 8.66l.05 2.59c-.03 3.81-.05 5.77-2.31 8.93-3.22 2.16-5.4 2.01-9.19 1.47-2.9-2.22-3.84-3.52-5-7-.12-2.87-.19-5.73-.2-8.6a193176076.15 193176076.15 0 0 0-.18-17.42l-.15-15.9-.16-16.23L7 402l-2.37-.81C2 400 2 400 0 397c-.26-1.87-.26-1.87-.27-4.01l-.02-2.47v-2.7l-.02-2.85c-.02-3.11-.02-6.23-.03-9.35 0-2.17 0-4.34-.02-6.5l-.01-13.67c0-5.82-.03-11.63-.06-17.45l-.03-13.45c0-2.15 0-4.3-.02-6.44a856.6 856.6 0 0 1 0-9.03l-.04-2.65c.1-9.7 3.81-18.4 10.52-25.43 7.95-7.28 19-9.47 29.06-12.44l5.68-1.71c4.59-1.39 9.19-2.76 13.79-4.12l6.73-2c3.39-1.03 6.78-2.04 10.18-3.04l2.9-.86 2.6-.76 2.18-.63C85 255 85 255 88 255c1.26-13.53 1.26-13.53-3.46-25.56-2.94-2.77-6.27-5.06-9.54-7.44-12.47-12.74-19.5-30.27-21.81-47.75-.49-2.75-.75-3.87-2.87-5.71-1.39-.82-2.8-1.6-4.22-2.34-5.33-3.04-8.77-8.28-10.63-14.04-1.7-7.8-.57-14.33 3.53-21.16l2.05-1.93c2.95-4.64 2.48-8.98 2.42-14.37l.02-3.36c.03-4.73.01-9.46 0-14.2-.02-25.46 3.2-46.08 21.53-65.25 13.22-12.64 30.3-19 48.47-19.07ZM72 48C60.15 63.57 59.43 79.02 59.75 97.87l.05 6.17c.05 4.99.12 9.97.2 14.96h13l1.64-4.96 2.17-6.42 1.08-3.27 1.07-3.12.97-2.9C81 96 81 96 84 94c2.92-.35 5.77-.59 8.7-.75l5.38-.34 2.84-.17C116.7 91.78 132.4 90.7 148 88l2.53-.42c13.18-2.26 25.9-5.61 38.28-10.74 2.86-1.1 5.15-1.1 8.19-.84 3 2 3 2 3.55 3.84l.2 2.1.23 2.09C201 86 201 86 200 89c-2.7 1.04-2.7 1.04-6 2a880.4 880.4 0 0 0-5.94 2.37c-27.03 10.38-57.37 13.36-86.1 14.34-3.22.11-5.89.27-8.96 1.29-1 1.72-1 1.72-1.68 3.86l-.88 2.38-.88 2.51c-4.37 12.37-4.37 12.37-9.75 15.54-4.68 1.19-9.4 1.1-14.22 1.19-5.74.2-9.1 1.28-13.46 5.2-1.74 3.57-1.22 6.59-.13 10.32 2.32 3.74 5.06 4.4 9.13 5.5l2.63.6c2.24.9 2.24.9 3.5 2.5 1.04 3.36 1.26 6.73 1.55 10.21 2 19.47 10.61 36.92 25.78 49.5 16.53 12.85 35.63 18.45 56.41 16.13 19.3-3.34 36.23-13.27 48-29.13 10.03-15.17 13.21-30.54 15-48.31l2.27-.52 2.98-.73 2.95-.7c3.78-1.42 6-3.44 7.8-7.05.67-2.74.67-2.74 0-6a58.86 58.86 0 0 0-5.37-6.17c-2.97-3.33-2.76-6.54-2.77-10.81l-.02-3.73v-2l-.05-6.2c-.05-5.9-.1-11.78-.12-17.66 0-3.6-.04-7.2-.08-10.8l-.01-4.1c.01-10.32-1.13-18.88-8.58-26.53l-4-2.69c-4.23-3.02-5.42-6.1-7.09-10.9-1.83-4.82-4.44-7.65-9.07-10.04-3.96-1.61-7.8-1.8-12.03-1.77l-2.39-.02a2303.24 2303.24 0 0 0-24.64-.02c-4.84 0-9.68-.01-14.53-.04-3.75-.02-7.5-.02-11.26-.02l-5.35-.01C102.58 28.36 86.07 32.69 72 48Zm32 195c-.45 17-.3 30.97 11.56 44.19 7.8 7.42 17.87 10.06 28.44 9.81 9.17-.84 17.55-5.55 24-12 7.23-9.92 9.5-19.5 9.19-31.63l-.04-3.04c-.04-2.44-.09-4.89-.15-7.33l-2 .6-5.43 1.63c-1.85.55-3.7 1.12-5.54 1.68-18.47 5.2-37.27 3.61-55.12-2.89-2.71-1.13-2.71-1.13-4.91-1.02Zm-24.56 30.5A198363855.29 198363855.29 0 0 1 71 276c1.9 16.5 12.65 30.48 25 41 16.75 12.64 36.4 17.55 57.14 14.7 19.27-3.51 35.29-14.64 46.74-30.26C204.9 293.98 210 285.17 210 276a3410 3410 0 0 0-7.87-2.5l-2.27-.72c-3.85-1.3-3.85-1.3-7.86-1.78l-1.03 2.9c-5.85 15.83-14.08 26.5-29.42 34.06-13.2 5.39-27.4 5.16-40.67.29-16.32-7-24.56-18.9-31-34.98L89 271c-3.1 0-6.57 1.61-9.56 2.5ZM366 226c2.39 1.66 4.57 3.5 6.8 5.36 3.15 2.35 5.29 2.85 9.2 2.64a31.83 31.83 0 0 0 10.63-6.25C395 226 395 226 398 225.44c4.1.77 5.54 2.23 8 5.56.76 3.19.64 4.92-1.04 7.76-5.15 6.63-12.43 10.55-20.65 12.02-9.42.9-16.93-1.82-24.5-7.39-2.58-2.27-4.46-4.1-5.38-7.48-.19-3.34.37-5.58 2.13-8.41 3.57-2.2 5.3-2.25 9.44-1.5Z"/>
  <path d="M131.13 185.56c3.86 3.28 6.77 3.78 11.8 3.73 4.08-.57 6.92-3.1 9.7-5.98 1.85-1.77 2.79-2.17 5.37-2.31 6.7 2.38 6.7 2.38 8 5 .6 4.32.37 7.1-2.25 10.56-6.28 6.49-13.97 9.78-22.94 10.06-6.04-.27-10.64-1.52-15.81-4.62l-3.31-1.94c-4.17-3.2-6.44-5.3-7.19-10.62.5-3.44.5-3.44 2.25-5.81 5.56-4.02 9.44-2.29 14.38 1.93ZM181 138c2.59 2.44 3 3.93 3.47 7.5l.03 3.94.1 3.93c-.74 4.47-2.02 5.94-5.6 8.63-3.66 0-5.94-.19-8.88-2.44-2.4-3.34-2.28-5.86-2.3-9.94l-.05-3.46c.22-3.03.58-4.65 2.23-7.16 3.56-2.77 6.8-2.07 11-1Zm-71 0c2.59 2.44 3 3.93 3.47 7.5l.03 3.94.1 3.93c-.74 4.47-2.02 5.94-5.6 8.63-3.66 0-5.94-.19-8.88-2.44-2.4-3.34-2.28-5.86-2.3-9.94l-.05-3.46c.22-3.03.58-4.65 2.23-7.16 3.56-2.77 6.8-2.07 11-1Zm311 45c2.78 3.7 3.41 6.42 3.38 11l.02 3.06c-.45 3.34-1.42 5.24-3.4 7.94-3.1 1.55-5.6 1.3-9 1-2.2-1.52-2.2-1.52-4-4a46.6 46.6 0 0 1-.5-8l-.05-2.16c.03-3.48.27-5.47 2.4-8.28 4.2-3.04 6.56-2.66 11.15-.56Zm-71 0c2.78 3.7 3.41 6.42 3.38 11l.02 3.06c-.45 3.34-1.42 5.24-3.4 7.94-3.1 1.55-5.6 1.3-9 1-2.2-1.52-2.2-1.52-4-4a46.6 46.6 0 0 1-.5-8l-.05-2.16c.03-3.48.27-5.47 2.4-8.28 4.2-3.04 6.56-2.66 11.15-.56Z"/>
</svg>
