<svg xmlns="http://www.w3.org/2000/svg" version="1.0" viewBox="0 0 512 512" fill="currentColor">
  <path d="m229.5.6-12 1.5A396.2 396.2 0 0 0 143 19.5a188 188 0 0 0-41.4 19.6 22.6 22.6 0 0 0-7.6 14c0 4 5.2 11 11.7 15.8l6 4.4-1.3 5.1c-4 15.7-5.1 45.3-2.5 64.1 1.2 8.7 1.8 10.3 4.3 12.8 3.4 3.5 7.1 3.1 10.4-1l2.2-2.6 17.8.5c15.1.4 18.9.9 24.6 2.8 6.4 2.2 6.9 2.2 9.3.6 1.4-1 3-2.7 3.4-3.9 3.5-9.4-11.1-14.6-41.6-14.7h-16.1l-.7-11.4c-.7-11.5.4-29 2.7-40 1-5.1 1.4-5.7 3.2-5.3 16.8 4.1 23 5 35.1 5 13.8 0 22-1.6 34.5-6.6 3.3-1.4 6-2.4 6-2.3l-1 6.1c-.7 4.1-.7 7.6.1 11.3 1 4.8 2 6.2 9.7 14.1a70.8 70.8 0 0 1 18.4 28.1 86 86 0 0 1 2.7 24.8l.6 18.4 2.8 2.4c2.6 2.3 3.6 2.4 15.1 2.4 16.7 0 17.2-.4 17.8-13.3.4-11 2.4-15.2 8.2-18.1 3.2-1.6 4.4-1.7 7.6-.7 4.7 1.4 8.7 5.9 9.6 10.9 1 5.4-1.1 18.3-4.1 24.7a23.2 23.2 0 0 1-20.8 13.5c-2.7 0-4.5.7-6.2 2.5-5.3 5.2-1.3 12.5 6.8 12.5 6.8 0 16.6-3.5 22.6-8.1l5.3-4.1 5.7 3.1c26 13.9 32.6 17.9 32.3 19.7l-.8 15.9-.7 14.1-12.1 4.8C248.1 291.1 185.3 311 166.1 311a24 24 0 0 1-14-4.3 32.6 32.6 0 0 1-5.1-8.2 87.5 87.5 0 0 1-6.8-22c.3-.3 2.9-1.2 5.9-1.9 14-3.7 27.3-10.9 31-17 2.3-3.6 1.8-7.3-1.3-9.9-3.2-2.7-7.3-2.1-11.5 1.7-6.5 5.8-23.6 12.8-27.6 11.3-.9-.3-2-4.1-3.2-11.4-2.2-13.5-3.2-17.1-5.3-18.2-.9-.5-4.8-1.2-8.7-1.6-9.2-.9-13.3-2.2-14-4.5-.8-2.5.4-4.5 8.3-14.9a59 59 0 0 0 14-30c.4-6 .2-7.1-1.7-9a8 8 0 0 0-5-2.1c-4.6 0-7 2.8-8.1 9.2-1.3 8.3-3.7 12.9-12.8 25.1-8.8 11.6-10.8 16.4-9.7 23.1 1.7 10.2 8.6 15.8 21.2 17.2 4.4.6 5.4 1.1 5.8 2.8L120 259a279.7 279.7 0 0 0 14.2 48.4c3 5.9 10.3 13.1 15.7 15.4a50.3 50.3 0 0 0 26 2.3c7.6-1.1 29.4-6.1 33.4-7.6 1.5-.6 1.7.1 1.7 7.2v7.9l-7.6 7.4a101 101 0 0 0-22.8 34.8l-6.2 13.6-7.6 1.2a60 60 0 0 0-23.3 7.8c-17.7 9-32.6 29-41.4 55.5a204.6 204.6 0 0 0-8.8 44.6l-.6 10.1 2.8 2.2c5.4 4.3 8 3.1 15.2-7.2 35.5-50.8 78.2-97.1 116.9-126.8 13.4-10.2 34.2-24 49.4-32.8 17.5-10.1 67-34.4 67.9-33.4a58.7 58.7 0 0 1 5.1 12.9c0 .7-4.6 3.3-10.2 5.9a593.7 593.7 0 0 0-101.7 61.1C220.4 402.8 213 409.8 213 413c.1 4.8 5.3 8.6 9.7 6.9a93 93 0 0 0 12-8.7 533.7 533.7 0 0 1 100.8-63.8c19.5-9.8 21.1-10.4 22.3-8.7.7 1 3.8 6 6.8 11.1 2.9 5.2 10.4 16.3 16.5 24.8 6 8.5 11.6 16.9 12.4 18.7 6.1 14.5 11.2 53.4 13.1 98.5.7 15.8.8 16.3 3.2 18.2 3.4 2.7 6.8 2.5 9.9-.6l2.5-2.6-.6-16.1c-2-45.7-7.3-85.4-13.7-102.2a183 183 0 0 0-13.7-21.5 251 251 0 0 1-26.6-43c-10.3-21.6-16-44-17.2-67.5-.9-16.9.3-27 7.6-64 3.3-16.5 6.9-35.9 8-43 2.5-17 4.4-43.2 3.5-51.7a88.4 88.4 0 0 0-16.8-42.6c-7.9-11.5-12.3-13.7-17.2-8.7-3.6 3.5-3.1 6.4 2.5 14 7 9.5 10.4 15.7 13.7 25 2.6 7.6 2.8 8.8 2.6 23.5-.1 8.6-1.1 22.6-2.3 31.4-2 15.6-11.7 66.5-12.9 67.7-.5.6-30.9-15.6-32.7-17.3-.3-.3.3-3.2 1.2-6.4a60.7 60.7 0 0 0-.2-31.5 27.4 27.4 0 0 0-25.4-16.3 24 24 0 0 0-18.3 7.3 30.2 30.2 0 0 0-9.2 19.4c-.7 5.5-.9 5.8-3.4 5.5l-2.6-.3-.6-13.5a65.6 65.6 0 0 0-7.4-32.5 79.6 79.6 0 0 0-18.8-26c-5-4.4-5.2-4.7-5-9.3.5-12.9 12.3-28.5 32.8-43.3 13.5-9.8 13.5-9.8 13.5-13 0-3.6-3.9-7.9-7.1-7.9-4.3 0-19.6 10.8-31.4 22.1A108.7 108.7 0 0 1 170.6 70c-20.3 2.5-48.8-5-58.6-15.5-2.5-2.6-2.5-2.7-.5-4.2 1.1-.8 7.4-4.2 14-7.4a330 330 0 0 1 98-26.4c31.5-3.7 52.5 0 78.6 13.7 11 5.8 11.8 6.1 14.7 4.9 3.9-1.6 5.4-5.6 3.7-9.7-2.4-5.8-27.2-17.6-46.4-22C266 1.5 259.9.8 248 .5c-8.5-.2-16.8-.2-18.5.1zM337 274.7c0 1.6.9 6.5 1.9 11l1.8 8.2-29.1 14.4a579.8 579.8 0 0 0-84.3 49c-1 .6-1.3-3.8-1.3-22v-22.8l20.3-6.8c20.1-6.7 64.6-23.3 80.7-30 4.7-1.9 8.8-3.6 9.3-3.6.4-.1.7 1.1.7 2.6zm-126 87.2v7.8l-9.1 7.8c-10.3 8.7-10.4 8.4-3.2-5.7 4-7.8 10.6-17.8 11.8-17.8.3 0 .5 3.5.5 7.9zm-42.1 45.8a724.2 724.2 0 0 0-49.1 57.3c-7.6 9.9-8 10.3-7.4 6.6.4-2.1 2.1-7.9 3.7-12.8 9.5-29.3 25.6-47.5 47.1-53.2 9-2.5 9.7-2.2 5.7 2.1z"/>
  <path d="M165.8 175.7c-2.9 1.5-7.9 3-12.9 3.7-8.8 1.3-11.9 3.4-11.9 8.3 0 3.4 4.2 7.3 7.9 7.3 4.5 0 17.3-2.6 21.7-4.5 9.1-3.8 12.3-11.1 6.8-15.4-3.4-2.7-5.8-2.5-11.6.6zm18.5 261c-24 24.9-51.3 61.2-51.3 68.2 0 4.8 5.7 8.3 10.5 6.5.9-.4 4.8-5.4 8.7-11.3a345.2 345.2 0 0 1 39.9-49.6c4.8-5 9.2-10.1 9.7-11.5 1.8-4.9-1.8-9.9-7.2-10-2.3 0-4.4 1.6-10.3 7.7z"/>
</svg>
