<svg xmlns="http://www.w3.org/2000/svg" fill="none" viewBox="0 0 36 36" class="pointer-events-none">
  <path fill="currentColor" d="m11.1 27.7-.2.3c0 .4 1 1.5 2.3 2.8.8.8 1 .9 1.3.8.2 0 .4-.4.3-.5l-1-1.1a19.2 19.2 0 0 1-2.1-2.4H11Z"/>
  <path fill="currentColor" fill-rule="evenodd" d="M32.6 31.6h.2c.2-.2.2-.2.2-.8 0-2.4-1.2-7.1-2-8l-1-.5h-.8c-.1.2-.2.5 0 .7l.6.3c.6.2.6.2 1 1A25.2 25.2 0 0 1 32 31a25 25 0 0 1-14.3 4c-5.5 0-11-1.3-14.7-4.2v-.2c0-1.7.9-6 1.5-7 .2-.2.2-.3.7-.4l1.7-.5 3.7-.8v.6L10 25c0 .3 0 .3.2.5h.6l.3-.9c0-.7.5-2.1.7-2.8.1-.3.1-.3.6-.6a6.8 6.8 0 0 0 1.1-.7l.1 1.3a15.6 15.6 0 0 0 3 9c.8 1.1 1 1.1 1.8 0a16 16 0 0 0 3-10.3l.4.3.8.4.5.3.2.6c.4 1.1.7 2.4.7 3.2.2 1.2-.7 2.7-2.8 4.7l-1 1c0 .3.1.6.3.6h.3c.2 0 .7-.6 1.3-1.2l1.1-1 .2.2c0 .2.3.4.5.6.5.5 1.8 1.4 2 1.4 0 0 .2 0 1.1-.7.9-.7 1.1-1 1.4-1.4.5-1.2-.2-2.4-1.4-2.5l-.8.1-.4.2-.3-.2-.5-.1h-.3l.1-.4c.3-.8.2-1.7-.3-3.6-.2-1-.2-1 0-1a46.7 46.7 0 0 0 3.2.5v-.6l-1.5-.5c-1.6-.3-2-.5-2.7-.8l-1.7-1c-.3-.4-.4-.4-.4-.6 0-.3 0-.3.5-.8 1.2-1.2 2-2.5 2.4-4.2 0-.5.2-.6.3-.6a2 2 0 0 0 1.4-1c.1-.3.2-.3.2-1.7V9.2L26 9c-.3-.4-.6-.6-1-.6h-.4V6.6c0-2 0-2.3-.4-3A7 7 0 0 0 19.4.2c-.8-.2-2.3-.3-3-.2a9 9 0 0 0-2.5.8c-.1.2 0 .5.1.7.2.1.2.1 1-.2a7.5 7.5 0 0 1 6.4.7c.2.1.2.1 0 .6 0 .5-.2.8-.5 1.2-.5.5-1.2.7-2.3.7-1 0-1.5 0-2.7-.4l-1.6-.3a4 4 0 0 0-2.2 0h-.3l.7-1c.3-.2.4-.4.4-.5 0-.2-.3-.5-.5-.5-.3 0-1.2 1-1.6 1.7-.3.8-.4 1-.4 3v2h-.3c-.5 0-.8.1-1 .5l-.3.2v1.5c0 1.6 0 1.6.5 2.1.3.3.5.4 1 .5h.3v.5a9.6 9.6 0 0 0 2.5 4.4c.4.4.5.5.5.7 0 .3 0 .3-.4.6-.6.6-1.6 1.1-2.5 1.5l-2.6.6c-3.1.7-3.8 1-4.1 1.3-.8.8-2 5.5-2 7.9 0 .6 0 .6.2.7l.2.1c4 3 9.7 4.4 15.3 4.4a26 26 0 0 0 14.9-4.4ZM22.9 3.3c.6.8.7 1.2.7 2.5v1l-.3-.4-.5-.5-.3-.2V3l.4.3ZM21.6 5c0 .8 0 1 .7 1.6a4 4 0 0 1 1.2 2c.2.8.1 4 0 4.7a9 9 0 0 1-2.2 4c-.8.9-1.6 1.3-2.6 1.6a5 5 0 0 1-2.4 0c-2.3-.6-4-2.8-4.7-5.6-.2-.8-.3-4-.1-4.6a4 4 0 0 1 1.2-2c.7-.8.7-.9.7-1.7v-.5h.4l1.7.4a10.5 10.5 0 0 0 4.5.3 3.8 3.8 0 0 0 1.5-.7V5Zm-9.4.8-.5.5-.3.3V5.3l.3-.3.5-.3h.3v1l-.3.2Zm-1.9 3.5.1 1.6v1.4h-.2c-.4-.3-.4-.3-.4-1.6V9.4h.5Zm14.8 0 .1 1.4c0 1.3 0 1.3-.4 1.5l-.2.1V11l.1-1.6c.2-.1.3-.1.4 0Zm-9 10.6 1.4.1a5 5 0 0 0 2.4-.5l.6-.3v1.5a16.6 16.6 0 0 1-1 5.9l-.2-.5L19 25l-.2-.5.2-.4c.4-.8.4-1.5 0-2.2-.4-.7-1.1-1.3-1.5-1.3-.4 0-1.1.6-1.5 1.3-.4.7-.4 1.4 0 2.2l.2.4-.2.5a25.3 25.3 0 0 0-.5 1.6s-.5-1.3-.6-2a15 15 0 0 1-.4-3.9v-1.5l.6.3 1 .4Zm1.7 2c.4.4.5.7.5 1.1 0 .3 0 .5-.3.8l-.3.5.3 1 .8 2.6-.2.8-1.1 1.6s-.8-1-1-1.6c-.3-.5-.4-.5-.3-.8l.8-2.7.3-.9-.3-.5c-.2-.3-.3-.5-.3-.8l.1-.6.7-.8.3.3Zm7.6 6.2c.3.3.5.3.9 0 .6-.6 1.4-.2 1.3.6 0 .4-.4.7-1.1 1.3l-.7.5-.3-.3c-1-.7-1.3-1-1.4-1.5-.1-.8.7-1.2 1.3-.6Z" clip-rule="evenodd"/>
</svg>
