<svg xmlns="http://www.w3.org/2000/svg" viewBox="0 0 512 512" fill="currentColor">
  <path d="M444.71 22.31C468.42 40.95 483.97 66.92 488 97c1.09 15.68.64 30.95-4 46l-.8 2.7c-4.7 15.74-11.04 30.53-18.2 45.3l3.88.03c4.76.04 9.52.1 14.27.18l6.18.06c2.96.02 5.91.07 8.87.12h2.8l2.6.06 2.29.03c3 .74 4.15 2.15 6.11 4.52.5 2.5.5 2.5.5 5.35l.03 3.31-.02 3.64.02 3.86v10.62c-.02 3.82 0 7.64 0 11.46.03 7.47.02 14.95.01 22.43v26.12c.01 16.47 0 32.94-.02 49.41-.02 14.14-.02 28.28 0 42.42a23984.23 23984.23 0 0 1 .02 54.48v20.82c.02 7.4.01 14.8 0 22.19-.02 3.77-.02 7.55 0 11.33l-.03 12.26.02 3.64-.03 3.3v2.87c-.69 3.43-1.6 4.52-4.5 6.49-2.91.4-5.44.54-8.35.5l-2.6.02c-2.87.02-5.76 0-8.64-.01-2.08 0-4.16 0-6.24.02h-17.19c-6.17-.02-12.34 0-18.51 0-11.4.03-22.8.02-34.2.01a22420.18 22420.18 0 0 0-42.2 0c-26.6.01-53.18 0-79.76-.02-23.63-.02-47.26-.02-70.9 0a62545.73 62545.73 0 0 1-88.09.02H97.64c-11.96.02-23.93.01-35.9 0-6.1-.02-12.21-.02-18.32 0-5.59 0-11.17 0-16.76-.03l-6.08.01c-2.74.01-5.48 0-8.23-.02l-2.41.03c-3.43-.05-5.56-.27-8.43-2.23-1.83-2.78-2.01-4.33-2.01-7.65l-.03-3.31.02-3.64-.02-3.86v-10.62c.02-3.82 0-7.64 0-11.46-.03-7.47-.02-14.95-.01-22.43V421.2c-.01-16.47 0-32.94.02-49.41.02-14.14.02-28.28 0-42.42a23984.22 23984.22 0 0 1-.02-54.48v-20.82c-.02-7.4-.01-14.8 0-22.19.02-3.77.02-7.55 0-11.33l.03-12.26-.02-3.64.03-3.3v-2.87c.67-3.31 1.81-4.48 4.5-6.49 2.31-.5 2.31-.5 4.91-.5l3.01-.04 3.3.02 3.52-.02c3.21-.02 6.43-.02 9.65 0a4424.87 4424.87 0 0 1 28.44-.06c8.7 0 17.39-.03 26.08-.05 14.1-.04 28.2-.07 42.3-.08a28669.15 28669.15 0 0 0 56.36-.1c35.15-.08 70.29-.13 105.43-.17l-.78-1.64-3.55-7.44-1.23-2.57a197.87 197.87 0 0 1-8.25-20.04l-1.13-3.18c-11.05-31.77-11.93-64.3 2.84-94.97 13.78-27.15 37.17-46.31 65.61-56.4C375.97-6.7 415.16-.32 444.71 22.3ZM312 41c-.87.8-1.75 1.6-2.64 2.44-17.14 16.44-28.18 39.3-28.7 63.18C280.2 155.5 308.94 204.08 339 241l1.35 1.65c14.57 18.9 14.57 18.9 35.15 28.79 11.62-.25 21.31-12.1 28.91-19.92 20.03-21.7 35.98-47.9 48.59-74.52l1.12-2.34c5.37-11.26 9.93-22.54 13.3-34.56.51-1.85 1.06-3.69 1.61-5.52 6.33-24.03 1.6-49.34-10.34-70.7-13.65-22.6-34.49-38.32-59.91-45.1C367.6 12.36 335.66 19 312 41ZM16 208v48h153a34.36 34.36 0 0 0-4.65-7.4l-1.59-1.93-1.7-2.04-3.55-4.33-1.8-2.2a599.15 599.15 0 0 1-7.34-9.22l-2.52-3.1a46.59 46.59 0 0 1-4.85-7.47c-2.84-5.02-5.84-9.36-11.57-11.08-7.91-1.23-15.9-.83-23.88-.6a1191.76 1191.76 0 0 0-26 .36c-6.94.16-13.87.24-20.8.3-14.26.15-28.5.4-42.75.71Zm138 0c1.75 3 3.53 5.81 5.75 8.5l1.58 1.92 1.67 2.02a4294.6 4294.6 0 0 1 5.3 6.48c2.9 3.55 5.7 7.16 8.51 10.77a280.9 280.9 0 0 0 7.73 9.5 303.36 303.36 0 0 0 5.31 6.22c3.45 4.11 5 7.02 5.15 12.59-.96 2.8-1.35 3.68-4 5a165.94 165.94 0 0 1-9.05.17l-7.24.04a9207.2 9207.2 0 0 1-19.25.1l-14.7.07-27.85.14-31.7.16L16 272v16l7.57-.03c23.53-.09 47.06-.12 70.59-.1 12.1.01 24.19 0 36.28-.05 10.55-.05 21.1-.06 31.64-.03 5.58.01 11.16.01 16.74-.03 5.26-.04 10.52-.04 15.78 0 1.92 0 3.85 0 5.77-.03 14.54-.2 14.54-.2 19.73 3.46 2.28 2.5 4.1 4.95 5.9 7.81.93 1.17 1.87 2.33 2.83 3.48l2.42 3.15A762.1 762.1 0 0 0 243.5 321c4.5 5.52 8.95 11.1 13.34 16.71A848.7 848.7 0 0 0 267.5 351a974 974 0 0 1 13.32 16.7c4.15 5.3 8.4 10.51 12.68 15.7 9.8 11.99 9.8 11.99 10 16.85-.5 3.75-.5 3.75-1.73 5.46-2.32 1.69-3.72 1.67-6.57 1.67l-3.02.03-3.32-.01-3.52.02c-3.24.01-6.47.02-9.7.01l-10.45.03c-6.03.03-12.07.04-18.1.04-8.73 0-17.46.03-26.18.06l-42.47.1c-13.76.01-27.51.04-41.27.08h-2.57l-12.75.04c-35.28.1-70.57.16-105.85.22v16l4.08.02c12.67.05 25.34.13 38 .22 6.52.04 13.04.08 19.55.1 6.28.03 12.57.07 18.85.12l7.2.04c3.36 0 6.71.04 10.07.07h3.02l2.77.03 2.4.02c2.6.48 3.49 1.29 5.06 3.38.4 2.94.4 2.94.43 6.58l.03 2.01a2708.71 2708.71 0 0 0 .1 11.13c.05 4 .08 8 .11 12 .03 4.09.08 8.17.12 12.25.09 8.01.15 16.02.21 24.03h16l.04-6.2c.05-6.74.12-13.5.2-20.24.04-4.1.08-8.19.1-12.28l.12-11.85.04-4.52c0-2.1.04-4.22.07-6.33l.03-3.64c.4-2.94.4-2.94 1.56-4.6 2.6-1.9 4.45-1.72 7.64-1.72l3.7-.03 4.07.01 4.32-.02a2171 2171 0 0 1 11.88-.01c4.27 0 8.53-.02 12.8-.03 7.4-.03 14.8-.04 22.2-.04 10.7 0 21.39-.03 32.08-.06l52.06-.1c16.86-.01 33.71-.04 50.57-.08h3.15l15.63-.04c43.25-.1 86.5-.16 129.74-.22v-16h-5.89c-18.29-.02-36.58-.06-54.87-.13-9.4-.04-18.8-.06-28.21-.07-8.2 0-16.4-.02-24.59-.06l-13.02-.03c-4.09.01-8.17 0-12.26-.04h-4.5c-2.04.02-4.09 0-6.14-.03h-3.47c-3.98-.83-5.45-2.6-8.05-5.64l-1.59-1.81-1.36-1.69-1.55-1.92-1.63-2.02-1.72-2.13a1260.3 1260.3 0 0 1-11.98-15.14A835.2 835.2 0 0 0 304.5 364a992.3 992.3 0 0 1-13.34-16.71 965.26 965.26 0 0 0-12.32-15.32 798.22 798.22 0 0 1-11.94-15.02 184.89 184.89 0 0 0-6.55-8.02l-2.48-2.87-2.19-2.46c-2.09-3.23-2.44-5.79-2.68-9.6.96-2.8 1.35-3.68 4-5 2.35-.1 4.7-.15 7.06-.16l2.2-.02a1912.92 1912.92 0 0 1 12.25-.04l10.52-.02c4.5 0 9-.03 13.5-.06 3.44-.02 6.9-.02 10.35-.02a685.05 685.05 0 0 1 11.93-.03l4-.02c3.19.37 3.19.37 5.11 1.77 1.34 2 1.48 3.21 1.45 5.6l.03 2.06c-.53 2.57-1.34 3.33-3.4 4.94-2.37.4-2.37.4-5.2.43l-3.22.06-3.47.02-3.55.06-11.25.12-7.62.1c-6.23.09-12.46.15-18.69.21a35.1 35.1 0 0 0 4.65 7.4l1.59 1.93 1.7 2.05a4315.53 4315.53 0 0 1 5.35 6.52c2.44 3 4.83 6.05 7.21 9.1a887.24 887.24 0 0 0 12 15 974 974 0 0 1 13.32 16.7 849.77 849.77 0 0 0 12.59 15.62l1.55 1.9 1.47 1.74a19.55 19.55 0 0 1 2.68 4.13A18.81 18.81 0 0 0 348 392c4.73 1.18 9.43 1.01 14.27.9l4.37.01c3.95 0 7.9-.04 11.85-.1 4.14-.05 8.27-.05 12.4-.06 7.82-.03 15.64-.1 23.46-.17 10.57-.11 21.14-.15 31.7-.2 16.66-.08 33.3-.23 49.95-.38v-88c-24.88-.21-24.88-.21-49.75-.39l-7.07-.08-4.72-.03c-2.38 0-4.76-.04-7.14-.07h-2.13c-2.88-.05-4.75-.11-7.12-1.84-1.33-1.98-1.47-3.2-1.45-5.59l-.02-2.06c.54-2.64 1.21-3.35 3.4-4.94 2.52-.3 4.8-.44 7.32-.43l2.24-.03a3381.1 3381.1 0 0 0 12.45-.1c4.48-.05 8.95-.08 13.43-.11l13.7-.12c8.95-.09 17.9-.15 26.86-.21v-16l-4.73-.04c-5.77-.06-11.55-.14-17.32-.22l-7.5-.09c-3.6-.03-7.19-.08-10.78-.14l-3.4-.02a198468296.17 198468296.17 0 0 1-5.94-.1c-2.76-.46-3.66-1.18-5.33-3.39-.4-1.94-.4-1.94-.38-4l-.02-2.06c.53-2.56 1.35-3.33 3.4-4.94 2.33-.4 2.33-.4 5.11-.43l3.16-.06 3.4-.02 3.48-.06 11.04-.12 7.47-.1c6.11-.09 12.23-.15 18.34-.21v-48c-21.66-2.63-21.66-2.63-43.83 1.5-3.93 3.92-5.55 8.77-7.22 13.97-1.63 4.34-4.38 7.84-7.14 11.53l-3.04 4.24A263.46 263.46 0 0 1 424 253l-1.34 1.63c-10.54 12.76-25.24 30.5-42.79 32.78-13.86.37-22.72-5.54-32.87-14.41l-2.53-2.12a109.98 109.98 0 0 1-15.08-16.13c-1.1-1.4-2.24-2.76-3.38-4.13a220.43 220.43 0 0 1-15.2-20.68l-2.03-3.07c-5.7-8.6-5.7-8.6-6.6-11.43-1.33-3.37-2.37-5.11-5.18-7.44-6.82-1.93-14.36-1.16-21.37-.98l-6.36.05c-5.58.03-11.15.13-16.72.24-5.7.1-11.38.15-17.07.2-11.16.1-22.32.28-33.48.49 1.78 3 3.53 5.81 5.75 8.5l1.58 1.92 1.67 2.02 3.52 4.3 1.78 2.16a667.8 667.8 0 0 1 7.39 9.29 334 334 0 0 0 3.73 4.7c1.58 2.11 1.58 2.11 3.5 5.27 3.16 5.02 5.83 9.1 11.62 11 4.2.39 8.22.38 12.42.22h4.58c3.99-.01 7.97-.1 11.96-.2 6.4-.15 12.8-.17 19.2-.21 2.24-.02 4.47-.07 6.7-.13l4.08-.07 3.6-.08c2.92.31 2.92.31 4.8 1.7 1.4 2 1.52 3.2 1.5 5.61l.02 2.06c-.54 2.64-1.22 3.34-3.4 4.94-2.5.33-4.76.48-7.27.5l-2.23.05a639.9 639.9 0 0 1-9.85.12c-4.43.05-8.85.09-13.28.1-4.56.03-9.11.11-13.67.2-3.51.07-7.03.09-10.54.1-1.68 0-3.36.03-5.04.08-13.1.33-13.1.33-18.11-3.33A60.2 60.2 0 0 1 222 261c-.93-1.17-1.87-2.33-2.83-3.48l-2.42-3.14A762.7 762.7 0 0 0 204.5 239a1212 1212 0 0 1-14.87-18.62l-1.28-1.58c-1.35-1.8-1.35-1.8-2.75-4.2-2.43-3.82-4.06-6.23-8.6-7.32a92.47 92.47 0 0 0-10.44.16l-3.66.12c-2.97.1-5.93.25-8.9.44ZM16 304v88h262a64.49 64.49 0 0 0-5.75-8.5l-1.58-1.92-1.67-2.02-3.53-4.3-1.78-2.18c-2.43-3-4.82-6.03-7.19-9.08a888.04 888.04 0 0 0-12-15 971.95 971.95 0 0 1-13.32-16.7 803.79 803.79 0 0 0-14.23-17.6l-1.36-1.66C214 311 214 311 213.03 309.3c-1.2-2-2.38-3.65-4.03-5.3-3-.71-4.94-.92-7.93-.84l-2.4-.02c-2.65-.01-5.3.03-7.95.07H185c-5.16-.01-10.33.03-15.49.08-5.4.04-10.8.05-16.19.06-10.21.02-20.43.08-30.65.15-13.8.09-27.61.13-41.42.17-21.75.06-43.5.2-65.26.33Zm0 136v56h96v-56H16Zm144 0v56h256l1-36c3.42-3.42 4.71-3.36 9.36-3.42l2.58.02h8.21c2.84.02 5.68 0 8.51-.01l5.4.01 2.58-.02c5.9.07 5.9.07 8.08 1.72 2.18 2.9 1.76 6.37 1.8 9.87l.05 2.4.12 7.62.1 5.16c.09 4.22.15 8.43.21 12.65h32v-56H160Zm272 32v24h16v-24h-16Z"/>
  <path d="M424.81 47.31A133.1 133.1 0 0 1 429 51l2.74 2.5A80.7 80.7 0 0 1 452 84l1.2 3.11c6.53 20.18 4.14 42.43-5.01 61.27-3.13 6.07-6.56 11.55-11.19 16.62l-2.43 2.7c-13.4 14.2-32.17 23.92-51.9 24.73a316 316 0 0 1-6.48 0l-3.46-.02c-18.3-.37-36.1-6.94-49.73-19.41l-2.7-2.43c-14.2-13.4-23.92-32.17-24.73-51.9a316 316 0 0 1 0-6.48l.02-3.46c.38-18.68 7.17-35.6 19.41-49.73l1.8-2.4C325 46.88 336.27 40.45 348 36l3.37-1.31c24.6-8.04 52.82-2.67 73.44 12.62ZM330.25 67.2c-14.34 15.41-18.12 32.7-17.43 53.16.38 5.6 1.95 10.5 4.18 15.65l1.1 2.65c7.03 15.48 20.38 27.19 35.96 33.6a66.97 66.97 0 0 0 51.18-3.31 67.2 67.2 0 0 0 32.27-39.2c3.67-13.52 3.07-28.88-2.51-41.74l-1.1-2.65c-7.03-15.48-20.38-27.19-35.96-33.6-24.42-8.2-48.9-1.66-67.69 15.44Z"/>
  <path d="m362 79.69 2.04-.01c3.49.03 6.3.43 9.65 1.46 3.87 1 4.77.45 8.31-1.14 9.8-.89 18.07-.87 25.92 5.58 5.04 4.62 7.66 9.27 8.58 16.18.18 11.54-2.16 19.9-10.25 28.61-8.13 7.44-18.95 13.52-30.13 14.2-10.57-.51-20.1-6.03-28.12-12.57l-2-1.62c-6.06-5.45-9.75-12.19-10.45-20.36-.39-8.64.46-15.16 6.03-21.94 5.78-6.3 11.85-8.6 20.42-8.4ZM355 99c-2.1 3.14-2.69 5.17-2.41 8.95 1.29 6.44 5 10.1 10.2 13.7 4.8 2.95 8.98 5.31 14.71 5.41 7.93-2.4 15.72-6.89 20.38-13.87 1.49-4.22 1.69-6.71 1.12-11.19-1.83-3.17-1.83-3.17-5-5-4.62-.59-6.85-.57-11 1.5-3.81 1.9-6.81 2.16-11 1.5l-6-3c-4.31-.82-7.27-.49-11 2ZM173 319.47l2.64-.01c1.85 0 3.69 0 5.53.02 2.82.02 5.64 0 8.46-.03l5.37.02 2.55-.03c3.51.06 5.86.24 8.98 1.92 2.39 4.29 2.04 8.57 2 13.39l.01 3.18c0 2.22 0 4.44-.02 6.66-.02 3.4 0 6.8.03 10.2l-.02 6.46.03 3.08c-.1 6.84-.1 6.84-2.03 10.3-3.8 2.06-7.27 1.94-11.53 1.9l-2.64.01c-1.85 0-3.69 0-5.53-.02-2.82-.02-5.64 0-8.46.03l-5.37-.02-2.55.03c-3.51-.06-5.86-.24-8.98-1.92-2.39-4.29-2.04-8.57-2-13.39l-.01-3.18c0-2.22 0-4.44.02-6.66.02-3.4 0-6.8-.03-10.2l.02-6.46-.03-3.08c.1-6.84.1-6.84 2.03-10.3 3.8-2.06 7.27-1.94 11.53-1.9Zm3 16.53v24h16v-24h-16Zm-67-16.53 2.64-.01c1.85 0 3.69 0 5.53.02 2.82.02 5.64 0 8.45-.03l5.38.02 2.55-.03c3.51.06 5.86.24 8.98 1.92 2.39 4.29 2.04 8.57 2 13.39l.01 3.18c0 2.22 0 4.44-.02 6.66-.02 3.4 0 6.8.03 10.2l-.02 6.46.03 3.08c-.1 6.84-.1 6.84-2.03 10.3-3.8 2.06-7.27 1.94-11.53 1.9l-2.64.01c-1.85 0-3.69 0-5.53-.02-2.82-.02-5.64 0-8.45.03l-5.38-.02-2.55.03c-3.51-.06-5.86-.24-8.98-1.92-2.39-4.29-2.04-8.57-2-13.39l-.01-3.18c0-2.22 0-4.44.02-6.66.02-3.4 0-6.8-.03-10.2l.02-6.46-.03-3.08c.1-6.84.1-6.84 2.03-10.3 3.8-2.06 7.27-1.94 11.53-1.9Zm3 16.53v24h16v-24h-16Zm-67-16.53 2.64-.01c1.85 0 3.69 0 5.53.02 2.82.02 5.64 0 8.45-.03l5.38.02 2.55-.03c3.51.06 5.86.24 8.98 1.92 2.39 4.29 2.04 8.57 2 13.39l.01 3.18c0 2.22 0 4.44-.02 6.66-.02 3.4 0 6.8.03 10.2l-.02 6.46.03 3.08c-.1 6.84-.1 6.84-2.03 10.3-3.8 2.06-7.27 1.94-11.53 1.9l-2.64.01c-1.85 0-3.69 0-5.53-.02-2.82-.02-5.64 0-8.45.03l-5.38-.02-2.55.03c-3.51-.06-5.86-.24-8.98-1.92-2.39-4.29-2.04-8.57-2-13.39l-.01-3.18c0-2.22 0-4.44.02-6.66.02-3.4 0-6.8-.03-10.2l.02-6.46-.03-3.08c.1-6.84.1-6.84 2.03-10.3 3.8-2.06 7.27-1.94 11.53-1.9ZM48 336v24h16v-24H48Z"/>
</svg>
