<svg xmlns="http://www.w3.org/2000/svg" fill="none" viewBox="0 0 36 36">
  <path fill="currentColor" d="M5.5 5.5a6 6 0 0 0-3 .7c-.9.4-1.6 1.1-1.9 2l-.3.4-.2.2v16.7c.2 1.1.4 2 .7 2.6.5 1 1.4 1.8 2.6 2 1 .3 2 .4 7.6.5a1309.6 1309.6 0 0 1 20.3.3c1.3-.3 2-.6 2.8-1.3.7-.7 1.1-1.7 1.4-3.4A54 54 0 0 0 35 8c-.2-1-.7-1.6-1.4-1.9-1-.4-.6-.4-8.1-.4a1352.3 1352.3 0 0 1-20-.2ZM13 6.8l10.2.1a54.2 54.2 0 0 1 9.6.4l.3.1-.6.6a222 222 0 0 1-11.3 10.5c-2.7 1.8-4.3 1.8-6.7 0A189.4 189.4 0 0 1 4.4 9.1L2.7 7.7l.4-.2c1.6-.8 4.5-1 10-.7Zm21 1.6c.5.9.5 1.7.6 8.1 0 5.9 0 8.6-.3 9.6 0 .5-.4 1.2-.4 1.2L32.8 26a125.7 125.7 0 0 0-7.7-9.1l1-.9a71.8 71.8 0 0 0 7.7-8l.2.4ZM3.6 9.6c1.7 2 7.7 7.9 10 10a9 9 0 0 0 3.2 2c.6.2 1.6.2 2.1 0 1.4-.5 2.7-1.4 4.8-3.3l.8-.7 6.6 8.2 2 2.7-.2.2c-.3.3-1 .6-1.5.7-1 .3-1.8.3-5.6.2L6.7 29c-2.1-.1-2.2-.1-2.6-.3a3 3 0 0 1-.6-.5L3 28l1.4-1.4a120.5 120.5 0 0 0 7.3-8.3c0-.3-.2-.5-.4-.4l-3.1 3.4c-4.4 5-5.5 6.1-5.6 6-.2 0-.7-1.2-.8-1.7A311.4 311.4 0 0 0 1 9.8l.2-.1.3-.5c.2-.4.6-1 .7-.8l1.3 1.3Z"/>
  <path fill="currentColor" d="M19.4 9.2c-.6 0-1.2.6-1.8 1.5l-.3.4-.3-.2a3 3 0 0 0-3-.3c-.3 0-.3.2-.3.9 0 1.5 1 2.9 2.5 3.4.6.2 1.6.3 1.8.2l.5-.3c1-.4 2.4-1.6 2.8-2.4.2-.3.2-.5.2-1a2 2 0 0 0-.6-1.6c-.5-.5-1-.7-1.5-.6Zm.6 1.2c.4.3.6.8.4 1.4-.1.6-.7 1.1-1.7 1.7l-.9.5c-.1.2-.2.2-.5.1-1-.2-1.9-.9-2.3-1.7-.3-.6-.3-1-.1-1.2.4-.2 1.3.1 1.8.7.2.1.3.3.3.4l.2.1c.3.1.5 0 .9-.8s.6-1 1-1.3c.2-.2.6-.2.9 0Z"/>
</svg>
