<svg xmlns="http://www.w3.org/2000/svg" viewBox="0 0 512 512" fill="currentColor">
  <path d="M440.43 90.96c2.91 2.62 5.75 5.32 8.57 8.04l1.9 1.75c31.26 29.49 45.55 73.4 47.1 115.25.5 44.18-17.01 86.25-47.23 118.2-22.98 23.24-50.87 39.32-82.77 46.8h-2l-.2 1.74C362.47 406 348.94 433.62 333 451c-3.06 1.53-5.63 1.23-9 1-3.14-1.49-3.81-2.48-5-5.75 0-5.84 4.25-10.7 7.5-15.38 9.61-13.88 17.39-29.43 21.5-45.87h-23l-1 5a130.08 130.08 0 0 1-23 39l-2.05 2.45C278.42 455.28 247.45 471.4 216 474c-37.58 1.64-72.32-7.25-100.75-32.93-25.69-23.92-41.06-56.24-42.38-91.42-.54-32.5 9.49-64.07 31.13-88.65l2.11-2.52c15.07-17.51 34.84-29.86 56.89-36.48v-22c-35.65 7.31-67.43 32.79-87.22 62.72A158.15 158.15 0 0 0 55 313l-.53 2.36c-7 32.67-1.85 68.1 13.53 97.64l1.72 3.42C76.17 428.92 84.76 439.51 94 450l1.88 2.14C122.28 480.27 162.1 494.78 200 496c35.87.54 69.57-11.93 97.72-33.79 2.96-1.57 4.97-1.57 8.28-1.21 3.32 2.46 4.78 3.93 5.63 8-.86 4.12-2.4 5.3-5.63 8l-1.8 1.55c-24.91 20.48-59.99 33.45-92.22 33.65l-2.24.02c-30.4.23-30.4.23-43.74-3.22l-2.47-.6c-44.93-11.13-81.71-39.12-106-78.34-22.64-37.83-27.97-83.67-17.94-126.26C45.26 281.32 55.3 259.97 70 242l1.3-1.6c24.66-30.3 56.75-50.27 94.7-59.4l.42-1.64c12.13-46.29 39.72-83.9 81.12-108.35C264.24 61.5 282.18 55.63 301 52l2.05-.4c48.65-8.88 100.54 7.02 137.38 39.36ZM298 69l-2.44.54C274.76 74.3 254.57 83.49 238 97l-1.7 1.37c-31.79 25.75-52.72 61.7-57.3 102.63-.31 5.32-.4 10.62-.38 15.94v2.18C178.78 255 191.55 288.78 215 316l2.49 2.9c10.33 11.76 22.03 21.17 35.51 29.1l1.89 1.13c34.29 20.32 75.67 24.77 114.06 15.28 38.95-10.38 72-36.68 92.55-71.08 20.23-35.1 25.23-75.97 15.32-115.1-7.17-26.62-21.2-48.17-39.82-68.23l-1.67-1.83c-23.64-24.93-61.1-40.78-95.18-42.3C325.84 65.51 312 65.84 298 69ZM121.87 265.04a114.6 114.6 0 0 0-33.06 79.58c.22 20.28 5.23 38.8 15.19 56.38l1.68 2.98c15.85 26.3 41.3 44.03 70.81 51.56 30.13 7.29 60.43 1.06 86.8-14.46 4.61-2.9 8.65-6.46 12.71-10.08l2.51-2.08c12.6-10.68 24.27-26.09 29.49-41.92v-4l-3.7-.66c-31.64-5.86-59.91-18.09-84.3-39.34l-2.96-2.55C186.91 313.97 171.37 277.79 164 239c-14.35 0-32.34 16.56-42.13 26.04Z"/>
  <path d="M412.05 117.07A348.8 348.8 0 0 1 420 124l2.21 1.95c22.65 21.26 35.86 53.46 37.17 84.12.35 14.4-.51 28.03-4.38 41.93l-.55 2.03c-9.15 32.78-31.96 59.75-61.14 76.53a130.76 130.76 0 0 1-96.95 12.1A133.96 133.96 0 0 1 246 316l-2.86-2.36c-22.66-19.58-38.48-49.84-41.9-79.64-2.53-35.17 4.59-70.1 27.75-97.68L231 134l2.04-2.45c44.76-52.01 126.33-57.78 179-14.48Zm-167.42 25.46C237.13 151.4 224 167.15 224 179l2.15.42C262.3 186.7 291.6 200.37 319 225l2.05 1.82c25.89 24.48 42.5 61.22 46.95 96.18 5.04-.56 9.15-2.23 13.62-4.5l2.13-1.08c24.91-13 45.48-37 54.02-63.84 8.91-30.6 7.24-62.17-7.84-90.58-4.95-8.87-11.11-16.5-17.93-24l-1.73-1.98c-19.33-20.92-48.47-31.67-76.36-33.3a115.68 115.68 0 0 0-89.28 38.81ZM219 195c-1.84 7.41-2.24 14.38-2 22l3.85.7c34.25 6.4 65.51 22.39 85.92 51.53 12.85 18.89 20.02 39.4 24.23 61.77 2.36-.12 4.7-.24 7.06-.38l3.98-.2A51.9 51.9 0 0 0 353 328c-1.28-17.91-6.86-35.07-15-51l-1.07-2.11c-18.6-35.97-50.94-62.36-89.29-74.89-9.35-2.94-18.76-5.6-28.64-5Zm-1 38c2.38 27.04 17.63 52 37.3 70.11 15.32 12.81 38.08 26.7 58.7 25.89-.66-25.07-16.13-49.34-33.41-66.5C264.72 247.46 240.3 233 218 233ZM97.13 7.63c1.63 1.1 3.26 2.23 4.87 3.37l3 2 2.81-2.69C119.51.28 133.83-.83 148.53-.19c11.7.92 22.67 7.5 30.6 15.94C192.25 31.51 195.59 49.06 194 69a71.14 71.14 0 0 1-11 28l-1.47 2.22c-2.57 3.44-3.79 4.62-8.1 5.53-4.35-.95-5.92-2.07-8.43-5.75-.28-4.73 1.29-7.64 3.75-11.5 7.67-12.3 10.69-26.2 7.85-40.52-2.93-11.56-9.35-20.84-19.6-26.98-8.88-4.57-18.55-4.9-28-2-7.9 2.73-12.35 7.14-17.48 13.67-3.2 2.96-5.2 3.27-9.52 3.33-3.45-1.07-4.77-2.78-6.69-5.75-5.07-7.06-12.22-11.13-20.7-12.69-10.16-1.4-19.35.67-27.65 6.78-9 7.6-14.3 18.47-15.77 30.1-1.04 15.85 5.07 30.81 15.26 42.8 8.37 9.05 16.98 17.85 26.7 25.48 3.6 2.88 7.06 5.92 10.54 8.97 9.79 9.67 9.79 9.67 22.31 13.31 5.96-2.18 10.55-5.84 15.19-10.06l3.9-3.47 1.97-1.75c3-2.66 6.06-5.26 9.13-7.84l1.6-1.36c1.4-1.19 2.8-2.35 4.21-3.52l2.14-1.78c2.97-1.95 5.42-1.59 8.86-1.22 2.38 1.06 2.38 1.06 4 3 .83 3.27 1.45 5.74.3 8.98-1.66 2.58-3.57 4.07-5.99 5.96a357.6 357.6 0 0 0-13.75 11.56c-20.93 18.28-20.93 18.28-35.56 18.5-11.82-.87-20.03-9.58-28.52-16.99a286.63 286.63 0 0 0-9.04-7.51A316.32 316.32 0 0 1 46 120l-1.73-1.64C27.61 102.44 15.48 83.79 14 60.2c0-17.09 5.42-33.55 17.31-46.08a54.22 54.22 0 0 1 65.81-6.5Z"/>
</svg>
