<svg xmlns="http://www.w3.org/2000/svg" fill="currentColor" fill-rule="evenodd" clip-rule="evenodd" image-rendering="optimizeQuality" shape-rendering="geometricPrecision" text-rendering="geometricPrecision" viewBox="0 0 512 512">
  <path d="M127.5-.5h8a303.73 303.73 0 0 1 18.5 12c2.17 9.83-1.67 13.67-11.5 11.5A461.06 461.06 0 0 0 125 12.5c-2.53-5.15-1.7-9.48 2.5-13Zm248 0h8c4.2 3.52 5.03 7.85 2.5 13a68.2 68.2 0 0 1-22 11c-7.06-.42-9.4-4.09-7-11a6.98 6.98 0 0 1 2.5-3.5 183.2 183.2 0 0 0 16-9.5Z" opacity=".9"/>
  <path d="M203.5 26.5c21.44-2.94 38.78 4.06 52 21 14.06-18.3 32.39-24.8 55-19.5 27.35 10.04 38.85 29.54 34.5 58.5a77.1 77.1 0 0 1-12 26 260.6 260.6 0 0 1-74.5 68.5 11.9 11.9 0 0 1-10-2 352.76 352.76 0 0 1-66.5-60.5 84.58 84.58 0 0 1-16-33 59.98 59.98 0 0 1 4-32c4.96-4.21 9.63-3.88 14 1a108.45 108.45 0 0 0-2 27 79.5 79.5 0 0 0 15 30 293.4 293.4 0 0 0 58.5 52 243.03 243.03 0 0 0 66.5-64c10.26-14.98 10.59-29.98 1-45-13.5-13.36-28.66-15.53-45.5-6.5-9.75 8.58-14.92 19.4-15.5 32.5-5.38 4.32-10.04 3.66-14-2-1.25-21.58-12.58-33.92-34-37a151.53 151.53 0 0 0-16.5 4c-7.18-1.67-9.35-6-6.5-13 3.84-2.88 8-4.88 12.5-6Z" opacity=".92"/>
  <path d="M109.5 70.5c8-.17 16 0 24 .5 4.8 3.07 5.97 7.24 3.5 12.5a6.98 6.98 0 0 1-3.5 2.5c-8 .67-16 .67-24 0-4.72-2.44-6.22-6.27-4.5-11.5 1.4-1.57 2.9-2.9 4.5-4Zm268 0c8-.17 16 0 24 .5 4.73 2.39 6.23 6.22 4.5 11.5a7.33 7.33 0 0 1-4.5 3.5c-8 .67-16 .67-24 0-6.59-5.16-6.59-10.33 0-15.5Zm-235 63c9.83-1.67 13.66 2.33 11.5 12a166.15 166.15 0 0 1-18.5 11.5c-10.66 1.85-14.16-2.32-10.5-12.5a153.16 153.16 0 0 0 17.5-11Zm217 0c3.02-.16 6.02 0 9 .5 5.5 3.59 11.17 6.92 17 10 4.37 10.26 1.04 14.6-10 13l-16-9c-3.95-4.83-3.95-9.66 0-14.5Z" opacity=".9"/>
  <path d="M364.5 511.5h-32a160.55 160.55 0 0 1-76.5-29 164.11 164.11 0 0 1-73.5 29h-36C77.78 501.28 31.28 463.6 7 398.5-9.9 335.94 3.93 281.44 48.5 235c54.88-48.1 116.21-58.44 184-31 7.8 4.3 15.46 8.8 23 13.5 49.53-31.58 101.87-37.08 157-16.5 56.83 27.44 89.33 72.6 97.5 135.5 3.93 47.87-10.23 89.37-42.5 124.5-5.12 3.1-9.62 2.27-13.5-2.5a12.5 12.5 0 0 1 0-7c45.47-51.5 53.14-108.17 23-170-36.6-60.05-89.77-84.55-159.5-73.5a159.8 159.8 0 0 0-48 20.5 117.34 117.34 0 0 1 15.5 16c44.21-24.57 88.05-23.74 131.5 2.5 40.61 28.07 59.11 66.9 55.5 116.5-10.38 62.04-46.54 98.54-108.5 109.5-54.8 4.19-95.96-17.31-123.5-64.5-22.03-43.3-20.2-85.47 5.5-126.5a101.2 101.2 0 0 0-15.5-15.5c-29.16 41.46-35.16 86.13-18 134 21.74 50.12 59.24 81.29 112.5 93.5 41.07 6.4 78.4-2.6 112-27 8.86-.14 12.03 4.02 9.5 12.5a163.96 163.96 0 0 1-81.5 32Zm-211-307c64.14-.53 110.98 27.47 140.5 84 20.46 45 19.13 89.34-4 133-2.6 4.21-5.43 8.21-8.5 12a53.56 53.56 0 0 1-15-15c26.75-45.02 26.58-90.02-.5-135-32.48-46.14-76.65-63.97-132.5-53.5-49.04 13.7-79.88 45.2-92.5 94.5-9.59 64.66 14.91 111.16 73.5 139.5 29.64 11.48 59.64 12.48 90 3a154.34 154.34 0 0 0 21-10.5 350.37 350.37 0 0 1 16 15.5c-34.1 22.48-71.1 29.15-111 20-52.56-13.56-88.4-45.73-107.5-96.5C5.63 328.29 24.13 273.45 78.5 231a161.34 161.34 0 0 1 75-26.5Zm1 38c22.01-1.41 42.34 3.59 61 15-32.57 50.76-37.4 104.1-14.5 160 4.33 8.66 9.16 17 14.5 25a41.7 41.7 0 0 1-15 8.5c-55.06 15.87-98.89.37-131.5-46.5-18.57-34.66-19.24-69.66-2-105 20.06-32.87 49.22-51.87 87.5-57Zm185 0c44.86-.66 79.36 17.67 103.5 55 17.22 33.67 17.88 67.67 2 102-26.94 43.88-66.1 62.72-117.5 56.5a86.19 86.19 0 0 1-32-13c28.68-43.76 35.85-90.92 21.5-141.5a150 150 0 0 0-21.5-44 108.06 108.06 0 0 1 44-15Zm-85 55a5.37 5.37 0 0 1 3.5 3c17.05 34.8 16.21 69.14-2.5 103-19.63-35.12-19.96-70.45-1-106Z" opacity=".93"/>
</svg>
